<?xml version="1.0" standalone="no"?>
<!DOCTYPE svg PUBLIC "-//W3C//DTD SVG 1.1//EN" "http://www.w3.org/Graphics/SVG/1.1/DTD/svg11.dtd" >
<svg xmlns="http://www.w3.org/2000/svg">
<metadata>
Created by FontPrep 20130207 at Wed Jul 12 15:04:48 2017
 By designomx
Copyright 2014 Pria Ravichandran (pria.ravichandran@gmail.com)
</metadata>
<defs>
<font id="5da08b22565ac42555d65cf20d59fde3" horiz-adv-x='1024' >
  <font-face 
    font-family="PalanquinDark-Regular"
    font-weight="400"
    font-stretch="normal"
    units-per-em="2048"
    panose-1="2 11 0 4 2 2 3 2 2 4"
    ascent="1577"
    descent="-471"
    x-height="993"
    cap-height="1393"
    bbox="-1075 -1006 4753 2703"
    underline-thickness="102"
    underline-position="-205"
    unicode-range="U+000D-FB02"
  />
<missing-glyph horiz-adv-x="1427" 
d="M461 1214v-1005h502v1005h-502zM1233 1425v-1425h-1040v1425h1040z" />
    <glyph glyph-name=".notdef" horiz-adv-x="1427" 
d="M461 1214v-1005h502v1005h-502zM1233 1425v-1425h-1040v1425h1040z" />
    <glyph glyph-name=".null" horiz-adv-x="0" 
 />
    <glyph glyph-name=".null" horiz-adv-x="0" 
 />
    <glyph glyph-name="nonmarkingreturn" horiz-adv-x="681" 
 />
    <glyph glyph-name="CR" unicode="&#xd;" horiz-adv-x="0" 
 />
    <glyph glyph-name="space" unicode=" " horiz-adv-x="483" 
 />
    <glyph glyph-name="exclam" unicode="!" horiz-adv-x="516" 
d="M257 299q62 0 106.5 -43t44.5 -106.5t-44.5 -106.5t-106.5 -43t-106.5 43t-44.5 106.5t44.5 106.5t106.5 43zM365 1438v-1037l-213 99l-35 938h248z" />
    <glyph glyph-name="quotedbl" unicode="&#x22;" horiz-adv-x="737" 
d="M184.5 1520q63.5 0 109.5 -51t46 -149t-77 -222.5t-193 -190.5l-58 125q51 45 87 85t51 106q-35 0 -75 45t-40 99t43 103.5t106.5 49.5zM565.5 1520q63.5 0 107.5 -51t44 -149t-76 -222.5t-192 -190.5l-60 125q51 45 88 85t51 106q-37 0 -75.5 45t-38.5 99t44 103.5
t107.5 49.5z" />
    <glyph glyph-name="numbersign" unicode="#" horiz-adv-x="1159" 
d="M485 637l-51 -229h242l53 229h-244zM1055 1059l-49 -223h90l20 -199h-155l-54 -229h189l20 -197h-254l-53 -242l-227 11l51 231h-246l-55 -242l-226 11l52 231h-92l-23 197h160l51 229h-188l-23 199h258l53 223h228l-54 -223h246l51 223h230z" />
    <glyph glyph-name="dollar" unicode="$" horiz-adv-x="1130" 
d="M522 -27h-26v-235h-181v268q-143 39 -204 86l59 215q63 -33 161.5 -65.5t186.5 -32.5q250 0 250 151q0 70 -83 124t-207 118t-258 165t-134 286q0 106 60.5 193t168.5 132v277l181 -8v-226q32 4 62 4t54 -4v234h183v-271q53 -14 163 -63l-88 -213q-63 31 -137 58.5
t-163 27.5t-149.5 -35t-60.5 -109t75 -125t205 -117t266 -169.5t136 -282.5q0 -111 -64.5 -199.5t-182.5 -138.5v-280l-183 18v221q-40 -4 -90 -4z" />
    <glyph glyph-name="percent" unicode="%" horiz-adv-x="1937" 
d="M1415 346q0 -78 34 -118t82 -40t84 41t36 117t-35 116t-81 40t-83 -39t-37 -117zM1194 346q0 164 105.5 255t234.5 91t232.5 -89t103.5 -252t-104.5 -257t-232.5 -94t-233.5 91t-105.5 255zM287 1090q0 -78 32.5 -117t80.5 -39t85 40t37 115.5t-34 115.5t-82 40
t-83.5 -38.5t-35.5 -116.5zM63 1090q0 162 105.5 255t235.5 93t234.5 -91t104.5 -253t-105.5 -256.5t-234.5 -94.5t-234.5 92.5t-105.5 254.5zM1401 1446l-610 -1446h-269l611 1446h268z" />
    <glyph glyph-name="ampersand" unicode="&#x26;" horiz-adv-x="1402" 
d="M367 444q0 -116 80.5 -171.5t164.5 -55.5q148 0 244 70l-405 370q-84 -97 -84 -213zM225 1034q0 158 118 274.5t297 116.5t398 -104l-90 -213q-72 35 -139.5 60.5t-146.5 25.5t-120.5 -44t-41.5 -104t41 -120t127 -135l327 -297q52 127 60 297l239 -97q-12 -208 -94 -385
l162 -141l-160 -199l-155 144q-164 -136 -403 -136q-238 0 -398 120t-160 354q0 111 55.5 214t141.5 179q-58 84 -58 190z" />
    <glyph glyph-name="quotesingle" unicode="'" horiz-adv-x="360" 
d="M184.5 1520q63.5 0 109.5 -51t46 -149t-77 -222.5t-193 -190.5l-58 125q51 45 87 85t51 106q-35 0 -75 45t-40 99t43 103.5t106.5 49.5z" />
    <glyph glyph-name="parenleft" unicode="(" horiz-adv-x="585" 
d="M346 -80q-260 344 -260 725t260 752l207 -76q-88 -121 -154.5 -314.5t-66.5 -349.5t65.5 -354.5t153.5 -304.5z" />
    <glyph glyph-name="parenright" unicode=")" horiz-adv-x="585" 
d="M500 657q0 -197 -70 -378t-192 -359l-205 76q88 121 152.5 314.5t64.5 347.5t-63.5 354t-151.5 305l205 80q260 -350 260 -740z" />
    <glyph glyph-name="asterisk" unicode="*" horiz-adv-x="776" 
d="M496 1571v-203l209 45l61 -186l-207 -41l141 -201l-159 -125l-152 203l-149 -203l-162 125l141 199q-98 27 -207 43l62 186l207 -45q0 93 4 203h211z" />
    <glyph glyph-name="plus" unicode="+" horiz-adv-x="1042" 
d="M657 461v-453l-249 8v445h-359l-16 203h375v423h249v-423h334l21 -203h-355z" />
    <glyph glyph-name="comma" unicode="," horiz-adv-x="382" 
d="M196 299q62 0 108 -50.5t46 -148.5t-76.5 -224t-193.5 -191l-60 127q53 45 89 83.5t51 104.5q-35 0 -74 46t-39 101.5t43.5 103.5t105.5 48z" />
    <glyph glyph-name="hyphen" unicode="-" horiz-adv-x="622" 
d="M590 457h-535l-22 209h536z" />
    <glyph glyph-name="period" unicode="." horiz-adv-x="342" 
d="M172.5 299q63.5 0 105 -43t41.5 -106.5t-41.5 -106.5t-105 -43t-108 43t-44.5 106.5t44.5 106.5t108 43z" />
    <glyph glyph-name="slash" unicode="/" horiz-adv-x="911" 
d="M901 1446l-612 -1446h-277l611 1446h278z" />
    <glyph glyph-name="zero" unicode="0" horiz-adv-x="1273" 
d="M350 585q0 -185 85 -284.5t200 -99.5t202 97.5t87 283.5t-85 282.5t-202 96.5t-202 -95.5t-85 -280.5zM106 580q0 285 152 445.5t380 160.5t376.5 -156t148.5 -440t-152.5 -450.5t-376.5 -166.5t-376 161t-152 446z" />
    <glyph glyph-name="one" unicode="1" horiz-adv-x="911" 
d="M358 184v670l-106 -61l-125 180l319 186h179v-975h157l23 -184h-649l-21 184h223z" />
    <glyph glyph-name="two" unicode="2" horiz-adv-x="1040" 
d="M475 1186q236 0 328 -116t92 -247t-68.5 -233.5t-218.5 -224.5l-194 -162h506l34 -203h-891v178l402 352q115 100 153.5 161t38.5 125t-49 109.5t-131 45.5t-180 -55.5t-104 -57.5l-115 180q57 45 155.5 96.5t241.5 51.5z" />
    <glyph glyph-name="three" unicode="3" horiz-adv-x="1099" 
d="M517 1186q216 0 323.5 -106.5t107.5 -250.5q0 -94 -53 -168.5t-113 -101.5q57 -14 124 -99t67 -212q0 -170 -131 -287t-341 -117t-458 129l135 179q82 -49 153.5 -71t162 -22t163 49.5t72.5 140.5t-72.5 146.5t-234.5 55.5h-86l-37 206h135q125 0 198 46.5t73 113.5
t-52.5 110.5t-140.5 43.5q-154 0 -305 -107l-125 178q219 144 435 144z" />
    <glyph glyph-name="four" unicode="4" horiz-adv-x="1214" 
d="M666 340v403l-316 -403h316zM934 121v-262h-268v262h-568l-35 219l672 829h199v-829h215l-27 -219h-188z" />
    <glyph glyph-name="five" unicode="5" horiz-adv-x="1118" 
d="M575 731q229 0 343 -129.5t114 -315.5t-135 -314t-369 -128q-115 0 -233.5 39t-208.5 88l131 187q82 -45 153.5 -67.5t172.5 -22.5t174.5 62.5t73.5 166.5t-58.5 162.5t-138.5 58.5t-125 -31.5t-59 -64.5h-236l37 737h750l-29 -215h-496l-12 -244q64 31 151 31z" />
    <glyph glyph-name="six" unicode="6" horiz-adv-x="1144" 
d="M842 406q0 85 -58.5 160t-159.5 75t-174 -57.5t-100 -122.5q16 -119 85 -193.5t179 -74.5t169 64t59 149zM635 831q201 0 322.5 -124.5t121.5 -293.5t-118.5 -304.5t-330.5 -135.5t-368 141.5t-156 422.5q0 225 168 465.5t443 295.5l117 -174q-154 -35 -271 -139
t-172 -233q127 79 244 79z" />
    <glyph glyph-name="seven" unicode="7" horiz-adv-x="1038" 
d="M100 -70l562 1014h-543l-33 215h832l77 -106l-647 -1194z" />
    <glyph glyph-name="eight" unicode="8" horiz-adv-x="1163" 
d="M346 368q0 -81 73 -130.5t162 -49.5t163.5 49.5t74.5 130.5t-60.5 142t-174.5 80q-119 -18 -178.5 -79.5t-59.5 -142.5zM766 958q0 57 -53 99.5t-131 42.5t-131.5 -43t-53.5 -107t48.5 -105.5t138.5 -56.5q182 28 182 170zM1057 379q0 -166 -126 -286t-349 -120
t-349.5 120t-126.5 286q0 104 72 196.5t158 120.5q-78 35 -127 105.5t-49 156.5q0 145 113.5 252t309.5 107t309.5 -106.5t113.5 -252.5q0 -86 -50.5 -156.5t-128.5 -105.5q86 -29 158 -121t72 -196z" />
    <glyph glyph-name="nine" unicode="9" horiz-adv-x="1144" 
d="M303 753q0 -85 57.5 -160t159.5 -75t174 57.5t99 120.5q-16 123 -85.5 197t-179.5 74t-167.5 -64.5t-57.5 -149.5zM63 746q0 169 124 304.5t336 135.5t361.5 -141.5t149.5 -421.5q0 -225 -167 -466t-439 -298l-121 176q154 37 268.5 138t172.5 228q-113 -73 -230 -73
q-203 0 -329 124.5t-126 293.5z" />
    <glyph glyph-name="colon" unicode=":" horiz-adv-x="342" 
d="M172.5 299q63.5 0 105 -43t41.5 -106.5t-41.5 -106.5t-105 -43t-108 43t-44.5 106.5t44.5 106.5t108 43zM172.5 971q63.5 0 105 -44.5t41.5 -106.5t-41.5 -106t-105 -44t-108 44t-44.5 106t44.5 106.5t108 44.5z" />
    <glyph glyph-name="semicolon" unicode=";" horiz-adv-x="385" 
d="M196 299q62 0 108 -50.5t46 -148.5t-76.5 -224t-193.5 -191l-60 127q53 45 89 83.5t51 104.5q-35 0 -74 46t-39 101.5t43.5 103.5t105.5 48zM202.5 971q63.5 0 106.5 -44.5t43 -106.5t-43 -106t-106.5 -44t-108.5 44t-45 106t45 106.5t108.5 44.5z" />
    <glyph glyph-name="less" unicode="&#x3c;" horiz-adv-x="704" 
d="M596 39l-563 403v119l563 402l47 -220l-344 -241l344 -242z" />
    <glyph glyph-name="equal" unicode="=" horiz-adv-x="1019" 
d="M977 211h-911l-23 197h915zM977 637h-911l-23 199h915z" />
    <glyph glyph-name="greater" unicode="&#x3e;" horiz-adv-x="704" 
d="M111 963l563 -402v-119l-563 -403l-48 221l345 242l-345 241z" />
    <glyph glyph-name="question" unicode="?" horiz-adv-x="851" 
d="M339.5 299q63.5 0 106.5 -43t43 -106.5t-43 -106.5t-106.5 -43t-107.5 43t-44 106.5t44 106.5t107.5 43zM405 1436q210 0 313 -101.5t103 -265.5q0 -111 -97 -228.5t-241 -193.5l-34 -280l-189 79l-16 338q145 47 239.5 122t94.5 152t-51 116.5t-119 39.5
q-169 0 -361 -131l-35 238q183 115 393 115z" />
    <glyph glyph-name="at" unicode="@" horiz-adv-x="1656" 
d="M717 457q0 -45 28.5 -85t98.5 -40q35 0 58.5 27.5t27.5 66.5l35 264h-17q-92 0 -161.5 -64.5t-69.5 -168.5zM483 457q0 197 145.5 314.5t329.5 117.5h164l74 -92l-47 -400q0 -31 15.5 -48t29.5 -17q57 0 106.5 75.5t49.5 210.5q0 178 -123 291t-327 113t-381 -151.5
t-177 -409.5q0 -207 140.5 -326t332.5 -119t334 74l65 -203q-111 -57 -218 -71.5t-210 -14.5q-254 0 -467 180.5t-213 486.5t220.5 536.5t588.5 230.5q281 0 468.5 -172t187.5 -429t-111.5 -385t-277.5 -128q-95 0 -162 51q-86 -49 -172 -49q-186 0 -275.5 93t-89.5 241z
" />
    <glyph glyph-name="A" unicode="A" horiz-adv-x="1333" 
d="M780 1393l541 -1356l-266 -37l-125 328h-529l-122 -328h-267l543 1393h225zM662 1028l-183 -485h369z" />
    <glyph glyph-name="B" unicode="B" horiz-adv-x="1333" 
d="M741 610h-305v-391h287q106 0 170.5 49.5t64.5 143.5t-59.5 146t-157.5 52zM633 825q235 0 235 174q0 98 -57.5 135t-157.5 37h-217v-346h197zM1235 410q0 -193 -134 -301.5t-358 -108.5h-571v1393h520q203 0 330 -89.5t127 -299.5q0 -146 -129 -248q215 -112 215 -346z
" />
    <glyph glyph-name="C" unicode="C" horiz-adv-x="1214" 
d="M713 195q168 0 315 63l100 -197q-80 -41 -192.5 -65.5t-198.5 -24.5q-326 0 -473 208.5t-147 520.5t162.5 516.5t468.5 204.5q61 0 169.5 -20.5t198.5 -69.5l-82 -190q-98 31 -155.5 44t-139.5 13q-166 0 -256 -135t-90 -355t76 -366.5t244 -146.5z" />
    <glyph glyph-name="D" unicode="D" horiz-adv-x="1439" 
d="M690 1167h-254v-944h240q168 0 269.5 110.5t101.5 349.5t-86.5 361.5t-270.5 122.5zM680 0h-508v1393h516q322 0 477.5 -194.5t155.5 -506.5t-168 -502t-473 -190z" />
    <glyph glyph-name="E" unicode="E" horiz-adv-x="1187" 
d="M172 0v1393h832l40 -209h-608v-375h373l43 -211h-416v-391h668l43 -207h-975z" />
    <glyph glyph-name="F" unicode="F" horiz-adv-x="1024" 
d="M436 590v-590h-264v1393h789l40 -209h-565v-387h355l38 -207h-393z" />
    <glyph glyph-name="G" unicode="G" horiz-adv-x="1343" 
d="M762 195q101 0 203 22v340h-293l22 205h508v-688q-192 -103 -434 -103q-326 0 -488.5 210t-162.5 518t184 515t500 207q61 0 175 -20.5t206 -69.5l-84 -190q-90 27 -146.5 42t-146.5 15q-184 0 -298 -126t-114 -368t93.5 -375.5t275.5 -133.5z" />
    <glyph glyph-name="H" unicode="H" horiz-adv-x="1421" 
d="M436 803h549v590h264v-1393h-264v590h-549v-590h-264v1393l264 10v-600z" />
    <glyph glyph-name="I" unicode="I" horiz-adv-x="608" 
d="M436 1393v-1393h-264v1393h264z" />
    <glyph glyph-name="J" unicode="J" horiz-adv-x="632" 
d="M461 1393v-1090q0 -141 -68.5 -215t-253.5 -133l-106 197q109 39 134.5 71.5t25.5 118.5v1051h268z" />
    <glyph glyph-name="K" unicode="K" horiz-adv-x="1298" 
d="M412 1393v-584l522 614l196 -151l-413 -479l581 -793h-329l-426 590l-131 -154v-436h-267v1393h267z" />
    <glyph glyph-name="L" unicode="L" horiz-adv-x="1112" 
d="M172 0v1393h264v-1186h615l41 -207h-920z" />
    <glyph glyph-name="M" unicode="M" horiz-adv-x="1570" 
d="M436 0h-264v1393h168l471 -643l428 643h162v-1393h-268v803l-261 -367l-102 -14l-334 428v-850z" />
    <glyph glyph-name="N" unicode="N" horiz-adv-x="1519" 
d="M1348 1393v-1393h-267l-645 932v-932h-264v1393h264l645 -930v930h267z" />
    <glyph glyph-name="O" unicode="O" horiz-adv-x="1517" 
d="M393 699q0 -226 87.5 -365t265.5 -139t278 124.5t100 363.5t-88 378t-263 139t-277.5 -137.5t-102.5 -363.5zM117 702q0 310 168 513.5t473 209.5q328 0 485.5 -210.5t157.5 -522.5t-168.5 -516.5t-484.5 -204.5t-473.5 210.5t-157.5 520.5z" />
    <glyph glyph-name="P" unicode="P" horiz-adv-x="1243" 
d="M604 705q258 0 275 225q0 135 -74 188t-205 53h-164v-466h168zM172 0v1393h436q227 0 389 -103.5t162 -342.5t-174 -350.5t-395 -111.5h-154v-485h-264z" />
    <glyph glyph-name="Q" unicode="Q" horiz-adv-x="1517" 
d="M1124 713q0 209 -88 348t-263 139t-277.5 -137.5t-102.5 -363.5t88 -365t275 -139q74 0 149 32l-170 158l180 137l148 -143q61 125 61 334zM117 702q0 310 168.5 516.5t484.5 206.5t473.5 -210.5t157.5 -516.5t-154 -501l137 -134l-155 -137l-142 129q-151 -84 -329 -84
q-326 0 -483.5 210.5t-157.5 520.5z" />
    <glyph glyph-name="R" unicode="R" horiz-adv-x="1284" 
d="M590 528h-154v-528h-264v1393h436q227 0 389 -104.5t162 -323.5q0 -129 -66.5 -222.5t-170.5 -144.5l342 -598h-283l-295 532q-46 -4 -96 -4zM600 1171h-164v-426h168q119 0 197 48.5t78 162.5q0 216 -279 215z" />
    <glyph glyph-name="S" unicode="S" horiz-adv-x="1130" 
d="M518 209q250 0 250 151q0 70 -83 124t-207 118t-258 165t-134 273t125 278.5t331 106.5t416 -104l-88 -213q-63 31 -137 58.5t-163 27.5t-149.5 -35t-60.5 -109t65 -118t205 -118q140 -73 276 -176.5t136 -275.5t-134 -280.5t-386 -108.5q-88 0 -226 39t-185 80l59 215
q63 -33 161.5 -65.5t186.5 -32.5z" />
    <glyph glyph-name="T" unicode="T" horiz-adv-x="1191" 
d="M12 1393h1127l43 -209h-477v-1184h-269v1184h-424v209z" />
    <glyph glyph-name="U" unicode="U" horiz-adv-x="1460" 
d="M428 1393v-867q0 -174 84 -252.5t218 -78.5t217 81.5t83 249.5v867h268v-887q0 -225 -154.5 -377t-416.5 -152t-414.5 152t-152.5 377v887h268z" />
    <glyph glyph-name="V" unicode="V" horiz-adv-x="1333" 
d="M553 0l-541 1356l262 37l396 -1031l383 1031h268l-543 -1393h-225z" />
    <glyph glyph-name="W" unicode="W" horiz-adv-x="2119" 
d="M1382 0l-329 995l-318 -995h-235l-488 1356l262 37l347 -1014l313 1014h248l334 -1012l325 1012h268l-489 -1393h-238z" />
    <glyph glyph-name="X" unicode="X" horiz-adv-x="1357" 
d="M653 524l-395 -544l-246 38l506 687l-477 649l256 39l379 -516l393 516h277l-537 -699l510 -694h-279z" />
    <glyph glyph-name="Y" unicode="Y" horiz-adv-x="1239" 
d="M479 0v543l-467 815l275 35l323 -582l338 582h281l-484 -861v-532h-266z" />
    <glyph glyph-name="Z" unicode="Z" horiz-adv-x="1185" 
d="M1137 1184l-818 -977h803l31 -207h-1090l-30 207l794 977h-704l-31 209h1014z" />
    <glyph glyph-name="bracketleft" unicode="[" horiz-adv-x="667" 
d="M406 1217v-1190h210l41 -207h-516v1605h516l-41 -208h-210z" />
    <glyph glyph-name="backslash" unicode="\" horiz-adv-x="911" 
d="M623 0l-611 1446h277l612 -1446h-278z" />
    <glyph glyph-name="bracketright" unicode="]" horiz-adv-x="667" 
d="M260 27v1190h-211l-37 208h516v-1605h-516l37 207h211z" />
    <glyph glyph-name="asciicircum" unicode="^" horiz-adv-x="929" 
d="M297 293h-277l365 506h162l362 -506h-274l-170 235z" />
    <glyph glyph-name="underscore" unicode="_" horiz-adv-x="847" 
d="M815 0h-760l-22 207h762z" />
    <glyph glyph-name="grave" unicode="`" horiz-adv-x="460" 
d="M33 1542h274l123 -336h-203z" />
    <glyph glyph-name="a" unicode="a" horiz-adv-x="1056" 
d="M457 -25q-182 0 -270.5 89.5t-88.5 237.5t104.5 230t272.5 82h195q-2 76 -44 118t-114 42t-154 -19.5t-137 -45.5l-71 221q57 39 174.5 64.5t181.5 25.5q178 0 305 -103.5t127 -263.5v-653h-137l-66 84q-55 -43 -129.5 -76t-148.5 -33zM453 186q116 0 219 99v151h-201
q-70 0 -107.5 -43t-37.5 -91t34.5 -82t92.5 -34z" />
    <glyph glyph-name="b" unicode="b" horiz-adv-x="1189" 
d="M582 203q137 0 192 99t55 209t-49 202t-198 92q-88 0 -176 -57v-488q93 -57 176 -57zM651 1032q219 0 336 -151.5t117 -376.5t-120 -377t-333 -152q-70 0 -155.5 29t-153.5 80l-66 -84h-135v1423l265 23v-483q123 69 245 69z" />
    <glyph glyph-name="c" unicode="c" horiz-adv-x="995" 
d="M600 793q-113 0 -176.5 -85t-63.5 -213t63.5 -210t176.5 -82q70 0 126 17.5t128 49.5l76 -192q-70 -53 -169 -78t-163 -25q-242 0 -377 141.5t-135 379t135 381t377 143.5q63 0 160.5 -26.5t171.5 -78.5l-76 -190q-72 33 -128 50.5t-126 17.5z" />
    <glyph glyph-name="d" unicode="d" horiz-adv-x="1212" 
d="M549 1032q125 0 256 -74v465l268 23v-1446h-139l-74 96q-68 -57 -159 -89t-164 -32q-217 0 -334 152t-117 377t124 376.5t339 151.5zM360 498q0 -110 49.5 -202.5t198.5 -92.5q83 0 197 71v459q-105 72 -197 72q-139 0 -193.5 -98.5t-54.5 -208.5z" />
    <glyph glyph-name="e" unicode="e" horiz-adv-x="1116" 
d="M786 596q-39 197 -206 197q-82 0 -137.5 -50.5t-71.5 -146.5h415zM641 -25q-258 0 -406.5 141.5t-148.5 379t134 381t366 143.5t342 -154.5t110 -365.5v-82h-669q18 -98 89.5 -156.5t188.5 -58.5q68 0 122 17.5t126 49.5l78 -192q-70 -53 -169.5 -78t-162.5 -25z" />
    <glyph glyph-name="f" unicode="f" horiz-adv-x="761" 
d="M552 1208q-57 0 -88.5 -50t-31.5 -128v-57h189l84 -207h-273v-766h-266v766h-154v207h154v94q0 172 101.5 271.5t285.5 99.5q47 0 106.5 -18.5t92.5 -45.5l-76 -192q-67 26 -124 26z" />
    <glyph glyph-name="g" unicode="g" horiz-adv-x="1212" 
d="M86 504q0 225 124 376.5t339 151.5q74 0 166 -31.5t157 -89.5l62 82h139v-991q0 -180 -122 -302t-386 -122q-63 0 -184 30t-201 83l80 188q92 -45 157 -65.5t163 -20.5t161.5 56.5t63.5 154.5v51q-136 -80 -268 -80q-217 0 -334 152t-117 377zM360 498
q0 -110 49.5 -202.5t198.5 -92.5q83 0 197 71v459q-105 72 -197 72q-139 0 -193.5 -98.5t-54.5 -208.5z" />
    <glyph glyph-name="h" unicode="h" horiz-adv-x="1198" 
d="M815 610q0 195 -184 195q-94 0 -225 -98v-707h-265v1423l265 23v-518q66 51 150.5 77.5t152.5 26.5q203 0 287.5 -118.5t84.5 -290.5v-623h-266v610z" />
    <glyph glyph-name="i" unicode="i" horiz-adv-x="524" 
d="M393 993v-993h-266v993h266zM261 1434q62 0 106.5 -43t44.5 -106.5t-44 -106.5t-106 -43t-105.5 43t-43.5 106.5t43 106.5t105 43z" />
    <glyph glyph-name="j" unicode="j" horiz-adv-x="569" 
d="M432 993v-1016q0 -141 -83 -227t-277 -147l-105 202q109 39 153 93.5t44 142.5v952h268zM296.5 1434q63.5 0 108 -43t44.5 -106.5t-44.5 -106.5t-108 -43t-106.5 43t-43 106.5t43 106.5t106.5 43z" />
    <glyph glyph-name="k" unicode="k" horiz-adv-x="1079" 
d="M406 0h-265v1423l265 23v-815l425 391l150 -188l-279 -244l365 -590h-305l-250 420l-106 -94v-326z" />
    <glyph glyph-name="l" unicode="l" horiz-adv-x="544" 
d="M406 0h-265v1423l265 23v-1446z" />
    <glyph glyph-name="m" unicode="m" horiz-adv-x="1828" 
d="M770 610q0 195 -179 195q-89 0 -198 -76v-729h-266v993h139l66 -90q68 61 163 95t171 34q222 0 315 -155q63 72 168.5 113.5t189.5 41.5q203 0 288 -118.5t85 -290.5v-623h-268v610q0 195 -184 195q-94 0 -228 -100q6 -60 6 -82v-623h-268v610z" />
    <glyph glyph-name="n" unicode="n" horiz-adv-x="1187" 
d="M803 610q0 195 -184 195q-94 0 -226 -98v-707h-266v993h139l80 -106q68 68 169 106.5t181 38.5q203 0 288 -118.5t85 -290.5v-623h-266v610z" />
    <glyph glyph-name="o" unicode="o" horiz-adv-x="1208" 
d="M360 426q0 -223 230 -223q115 0 186.5 67.5t71.5 213.5t-62.5 227.5t-178.5 81.5t-181.5 -72t-65.5 -295zM589 -25q-239 0 -371 142.5t-132 381.5t138 380t382 141t380 -146.5t136 -384t-147 -376t-386 -138.5z" />
    <glyph glyph-name="p" unicode="p" horiz-adv-x="1189" 
d="M651 -25q-120 0 -245 70v-473l-265 -21v1442h135l58 -73q68 51 158 81.5t159 30.5q219 0 336 -151.5t117 -376.5t-120 -377t-333 -152zM582 203q137 0 192 99t55 209t-49 202t-198 92q-88 0 -176 -57v-488q93 -57 176 -57z" />
    <glyph glyph-name="q" unicode="q" horiz-adv-x="1212" 
d="M360 498q0 -110 49.5 -202.5t198.5 -92.5q83 0 197 71v459q-105 72 -197 72q-139 0 -193.5 -98.5t-54.5 -208.5zM86 504q0 225 124 376.5t339 151.5q74 0 166 -31.5t157 -89.5l62 82h139v-1421l-268 -21v504q-136 -80 -268 -80q-217 0 -334 152t-117 377z" />
    <glyph glyph-name="r" unicode="r" horiz-adv-x="733" 
d="M393 0h-266v993h139l88 -145q61 53 149.5 99t168.5 46l53 -213q-68 0 -157 -39t-175 -114v-627z" />
    <glyph glyph-name="s" unicode="s" horiz-adv-x="884" 
d="M451 793q-111 0 -111 -74q0 -46 134 -94q134 -47 240.5 -128t106.5 -219t-105.5 -220.5t-307.5 -82.5q-63 0 -169 25t-176 78l80 192q146 -67 240 -67q172 0 172 73q0 82 -162 134q-119 39 -224.5 111.5t-105.5 204.5t104.5 213t283.5 81q63 0 163.5 -26.5t176.5 -78.5
l-80 -190q-149 68 -260 68z" />
    <glyph glyph-name="t" unicode="t" horiz-adv-x="761" 
d="M546 186q63 0 118 27l77 -193q-33 -27 -93 -44t-107 -17q-184 0 -290 93t-106 265v469h-133v205h133v236l265 47v-283h180l82 -205h-262v-421q0 -78 36.5 -128.5t99.5 -50.5z" />
    <glyph glyph-name="u" unicode="u" horiz-adv-x="1177" 
d="M385 381q0 -195 180 -195q90 0 217 88v719h267v-993h-140l-75 98q-68 -63 -166.5 -101t-178.5 -38q-203 0 -287.5 120t-84.5 290v624h268v-612z" />
    <glyph glyph-name="v" unicode="v" horiz-adv-x="1024" 
d="M393 0l-381 956l275 37l229 -602l217 602h281l-391 -993h-230z" />
    <glyph glyph-name="w" unicode="w" horiz-adv-x="1546" 
d="M973 0l-207 608l-199 -608h-225l-330 956l275 37l174 -577l164 577h293l174 -577l161 577h281l-338 -993h-223z" />
    <glyph glyph-name="x" unicode="x" horiz-adv-x="1110" 
d="M12 0l375 504l-342 450l272 39l240 -319l250 319h291l-383 -528l350 -465h-293l-229 297l-236 -297h-295z" />
    <glyph glyph-name="y" unicode="y" horiz-adv-x="1024" 
d="M319 -47l48 117l-355 886l275 37l229 -602l217 602h281l-445 -1124q-47 -121 -165.5 -207t-249.5 -117l-95 219q72 31 152.5 75t107.5 114z" />
    <glyph glyph-name="z" unicode="z" horiz-adv-x="919" 
d="M866 842l-479 -627h479l21 -215h-819l-35 141l473 633h-397l-52 219h795z" />
    <glyph glyph-name="braceleft" unicode="{" horiz-adv-x="593" 
d="M465 428q0 -66 -36 -132.5t-36 -121.5q0 -16 19.5 -35.5t58.5 -19.5h86l27 -205h-119q-152 0 -221.5 71.5t-69.5 188.5q0 72 41 174q8 29 17.5 56.5t9.5 58.5t-27 55.5t-59 24.5h-93v176h93q33 0 59.5 24.5t26.5 58.5t-34 133t-34 157q0 117 69.5 187.5t221.5 70.5h119
l-27 -205h-86q-39 0 -58.5 -19.5t-19.5 -35.5q0 -57 36 -121t36 -167.5t-72 -168.5q72 -72 72 -205z" />
    <glyph glyph-name="bar" unicode="|" horiz-adv-x="544" 
d="M406 1440v-1460l-265 20v1460z" />
    <glyph glyph-name="braceright" unicode="}" horiz-adv-x="593" 
d="M127 836q0 66 35 132t35 122q0 16 -18.5 35.5t-57.5 19.5h-86l-23 205h115q150 0 222.5 -71t72.5 -187q0 -53 -43 -177q-8 -29 -17.5 -57t-9.5 -58t25.5 -55.5t58.5 -25.5h92v-174h-92q-33 0 -58.5 -24.5t-25.5 -59.5t11.5 -62.5t21.5 -63.5t23.5 -82t13.5 -79
q0 -117 -73 -188.5t-222 -71.5h-115l23 205h86q39 0 57.5 19.5t18.5 35.5q0 57 -35 120.5t-35 133.5q0 142 72 203q-72 72 -72 205z" />
    <glyph glyph-name="asciitilde" unicode="~" horiz-adv-x="948" 
d="M45 352v21q0 172 81.5 246.5t185.5 74.5t169.5 -31.5t128.5 -31.5q16 0 35 18.5t21 59.5h237v-17q0 -178 -79.5 -252.5t-185.5 -74.5t-172.5 32.5t-129.5 32.5q-14 0 -32.5 -18.5t-20.5 -59.5h-238z" />
    <glyph glyph-name="uni00A0" unicode="&#xa0;" horiz-adv-x="483" 
 />
    <glyph glyph-name="exclamdown" unicode="&#xa1;" horiz-adv-x="516" 
d="M150 0v1034l215 -96l28 -938h-243zM257 1137q-62 0 -106.5 44t-44.5 106t44.5 106.5t106.5 44.5t106.5 -44t44.5 -106t-44.5 -106.5t-106.5 -44.5z" />
    <glyph glyph-name="cent" unicode="&#xa2;" horiz-adv-x="995" 
d="M86 495q0 204 99.5 339t279.5 172v245h266v-254q107 -17 199 -82l-76 -190q-72 33 -128 50.5t-126 17.5q-113 0 -176.5 -85t-63.5 -213t63.5 -210t176.5 -82q70 0 126 17.5t128 49.5l76 -192q-66 -56 -195 -86v-228l-266 21v203q-182 35 -282.5 169t-100.5 338z" />
    <glyph glyph-name="sterling" unicode="&#xa3;" horiz-adv-x="1052" 
d="M260 383v213h-154v203h154v231q0 172 102.5 271.5t286.5 99.5q49 0 108.5 -18.5t92.5 -47.5l-78 -188q-58 24 -110 24q-134 0 -134 -176v-196h242l88 -203h-330v-186q0 -126 -43 -203h504l41 -207h-899v207h8q121 4 121 176z" />
    <glyph glyph-name="currency" unicode="&#xa4;" horiz-adv-x="1398" 
d="M961 497q0 112 -78.5 188.5t-180.5 75.5t-177.5 -78t-75.5 -187.5t75.5 -189.5t176.5 -79t180.5 79t79.5 191zM174 497q0 149 72 265l-203 207l164 196l217 -219q137 74 278 74q142 0 273 -72l217 217l164 -196l-197 -199q72 -117 76 -272q-4 -158 -76 -277l197 -198
l-164 -197l-217 217q-118 -66 -270 -70q-151 4 -281 74l-217 -221l-164 197l201 204q-70 121 -70 270z" />
    <glyph glyph-name="yen" unicode="&#xa5;" horiz-adv-x="1239" 
d="M745 135v-135h-266v135h-319l-23 197h342v114h-319l-23 197h285l-410 715l275 35l323 -582l338 582h281l-422 -750h246l20 -197h-328v-114h308l20 -197h-328z" />
    <glyph glyph-name="brokenbar" unicode="&#xa6;" horiz-adv-x="544" 
d="M406 590v-610l-265 20v608zM406 1440v-609l-265 23v606z" />
    <glyph glyph-name="section" unicode="&#xa7;" horiz-adv-x="1277" 
d="M511 -8q257 0 257 153q0 70 -83 123.5t-207 115.5t-258 166.5t-134 285.5q0 90 42 165.5t118 124.5q-10 62 -10 101q2 160 125.5 265t355.5 105q175 0 389 -102l-86 -213q-66 31 -139.5 58.5t-162.5 27.5t-149.5 -35t-60.5 -109t79 -127t205 -119t262 -167.5t136 -283.5
t-162 -287q14 -44 14 -99q-2 -166 -135 -275.5t-385 -109.5q-88 0 -226 39t-185 84l59 209q209 -96 341 -96zM918 542q0 60 -83 114.5t-218 121.5t-228 142q-29 -33 -29 -82q0 -78 78 -131.5t211 -119.5t232 -143q37 38 37 98z" />
    <glyph glyph-name="dieresis" unicode="&#xa8;" horiz-adv-x="722" 
d="M559 1499q55 0 93 -39t38 -94t-38 -93t-93 -38t-95 38t-40 93t40 94t95 39zM167 1499q56 0 93 -39t37 -94t-37 -93t-93 -38t-95 38t-39 93t39 94t95 39z" />
    <glyph glyph-name="copyright" unicode="&#xa9;" horiz-adv-x="1753" 
d="M924 940q-98 0 -152.5 -66.5t-54.5 -185.5t54 -185.5t149 -66.5q63 0 113 16.5t116 49.5l72 -199q-63 -51 -155.5 -72.5t-150.5 -21.5q-219 0 -346 130t-127 350t135.5 350t337.5 130q57 0 147.5 -23.5t158.5 -68.5l-72 -200q-127 63 -225 63zM256 690q0 -268 167 -449.5
t455 -181.5t453.5 181.5t165.5 449.5t-165.5 449.5t-453.5 181.5t-455 -181.5t-167 -449.5zM1669 689q0 -327 -214 -555t-578.5 -228t-577.5 228t-213 555t213 555.5t577.5 228.5t578.5 -228.5t214 -555.5z" />
    <glyph glyph-name="ordfeminine" unicode="&#xaa;" horiz-adv-x="696" 
d="M265 743q-105 0 -163.5 61.5t-58.5 159.5t70.5 157t181.5 59h113q-13 73 -95 73t-188 -43l-47 168q37 25 114.5 42.5t122.5 17.5q117 0 206 -70t89 -174v-434h-100l-49 53q-91 -70 -196 -70zM289 928q74 0 125 37v55h-111q-33 0 -48 -14.5t-15 -46t49 -31.5z" />
    <glyph glyph-name="guillemotleft" unicode="&#xab;" horiz-adv-x="786" 
d="M371 170l-328 283v98l328 285l47 -179l-174 -155l174 -156zM719 170l-330 283v98l330 285l43 -179l-172 -155l172 -156z" />
    <glyph glyph-name="logicalnot" unicode="&#xac;" horiz-adv-x="1046" 
d="M780 623h-731l-16 208h954l17 -102v-500l-224 11v383z" />
    <glyph glyph-name="softhyphen" unicode="&#xad;" horiz-adv-x="268" 
 />
    <glyph glyph-name="registered" unicode="&#xae;" horiz-adv-x="1525" 
d="M1087 1149q0 -131 -133 -197l162 -329h-211l-127 292h-110v-292h-189v772h307q125 0 213 -57.5t88 -188.5zM737 1239h-69v-172h71q68 0 110 16.5t42 70.5t-41 69.5t-113 15.5zM223 1002q0 -236 142.5 -391.5t395.5 -155.5t397.5 155.5t144.5 391.5t-144.5 390t-397.5 154
t-395.5 -154t-142.5 -390zM1462 999q0 -291 -189 -491.5t-511 -200.5t-510.5 201.5t-188.5 491.5t188.5 492t511.5 202t511 -202t188 -493z" />
    <glyph glyph-name="macron" unicode="&#xaf;" horiz-adv-x="600" 
d="M33 1466h536v-211h-536v211z" />
    <glyph glyph-name="degree" unicode="&#xb0;" horiz-adv-x="514" 
d="M338 1244q0 32 -23.5 57.5t-56.5 25.5t-56.5 -24.5t-23.5 -55.5t23.5 -57.5t56.5 -26.5t56.5 24.5t23.5 56.5zM256 1483q98 0 172 -68.5t74 -166.5t-74 -164t-172 -66t-171 65.5t-73 163.5t73 167t171 69z" />
    <glyph glyph-name="plusminus" unicode="&#xb1;" horiz-adv-x="925" 
d="M881 0h-818l-14 184h823zM582 610v-323l-228 10v313h-291l-20 183h311v294h228v-294h280l19 -183h-299z" />
    <glyph glyph-name="twosuperior" unicode="&#xb2;" horiz-adv-x="821" 
d="M371 1579q174 0 256 -90t82 -184t-50.5 -171t-162.5 -171l-109 -89h318l28 -184h-670v168l281 229q57 47 87 95.5t30 120.5q0 31 -27.5 55t-81.5 24t-117 -39.5t-65 -44.5l-90 172q41 33 111.5 71t179.5 38z" />
    <glyph glyph-name="threesuperior" unicode="&#xb3;" horiz-adv-x="870" 
d="M494 872q0 138 -168 138h-64l-26 184h100q94 0 117.5 39t23.5 67t-22.5 54t-90.5 26t-111.5 -23.5t-82.5 -53.5l-96 165q76 49 153.5 80t171.5 31q164 0 245 -81t81 -189q0 -70 -41 -127.5t-86 -75.5q45 -10 94 -73.5t49 -158.5q0 -127 -98 -215t-246 -88t-354 97
l102 170q61 -37 105 -54.5t106 -17.5t100 30.5t38 75.5z" />
    <glyph glyph-name="acute" unicode="&#xb4;" horiz-adv-x="460" 
d="M156 1542h274l-194 -336h-203z" />
    <glyph glyph-name="mu" unicode="&#xb5;" horiz-adv-x="1198" 
d="M406 381q0 -195 180 -195q90 0 217 88v719h266v-993h-139l-72 98q-70 -63 -168 -101t-164 -38q-65 0 -120 10v-397l-265 -21v1442h265v-612z" />
    <glyph glyph-name="paragraph" unicode="&#xb6;" horiz-adv-x="1912" 
d="M1386 0v1184h-413v-1184h-268v485h-48q-225 0 -398 112.5t-173 350.5t162 341.5t387 103.5h1212v-209h-192v-1184h-269z" />
    <glyph glyph-name="periodcentered" unicode="&#xb7;" horiz-adv-x="342" 
d="M172.5 686q63.5 0 105 -43t41.5 -106.5t-41.5 -106.5t-105 -43t-108 43t-44.5 106.5t44.5 106.5t108 43z" />
    <glyph glyph-name="cedilla" unicode="&#xb8;" horiz-adv-x="518" 
d="M235 -281q62 0 62 33t-49 59.5t-131 34.5l71 181h191l-37 -86q61 -25 102 -77t41 -106q0 -109 -78.5 -160t-179.5 -51q-39 0 -100 15.5t-94 42.5l61 155q79 -41 141 -41z" />
    <glyph glyph-name="onesuperior" unicode="&#xb9;" horiz-adv-x="796" 
d="M303 872v424l-82 -45l-94 170l260 142h158v-691h127l18 -182h-540l-17 182h170z" />
    <glyph glyph-name="ordmasculine" unicode="&#xba;" horiz-adv-x="774" 
d="M379 926q125 0 125 159q0 78 -24.5 123t-90.5 45q-121 0 -121 -161q0 -82 25.5 -124t85.5 -42zM376 743q-159 0 -246 94.5t-87 254t92 253t254 93.5t251 -96.5t89 -254t-97 -251t-256 -93.5z" />
    <glyph glyph-name="guillemotright" unicode="&#xbb;" horiz-adv-x="786" 
d="M414 836l329 -285v-98l-329 -283l-45 176l174 156l-174 155zM68 836l325 -285v-98l-325 -283l-48 176l175 156l-175 155z" />
    <glyph glyph-name="onequarter" unicode="&#xbc;" horiz-adv-x="1900" 
d="M1407 31v219l-182 -219h182zM1651 -166v-172h-244v172h-406l-24 197l506 628h168v-628h186l-22 -197h-164zM1331 1020l-588 -1020h-286l583 1020h291zM303 872v424l-82 -45l-94 170l260 142h158v-691h127l18 -182h-540l-17 182h170z" />
    <glyph glyph-name="onehalf" unicode="&#xbd;" horiz-adv-x="1986" 
d="M1534 664q176 0 257 -89.5t81 -184.5t-49 -171t-162 -170l-109 -90h318l28 -184h-669v170l280 229q57 47 88 95t31 118q0 31 -28.5 56.5t-81.5 25.5t-118 -41t-67 -43l-88 172q41 33 112 70t177 37zM1331 1020l-588 -1020h-286l583 1020h291zM303 872v424l-82 -45
l-94 170l260 142h158v-691h127l18 -182h-540l-17 182h170z" />
    <glyph glyph-name="threequarters" unicode="&#xbe;" horiz-adv-x="1910" 
d="M1419 31v219l-186 -219h186zM1663 -166v-172h-244v172h-405l-27 197l508 628h168v-628h184l-20 -197h-164zM494 872q0 138 -168 138h-64l-26 184h100q94 0 117.5 39t23.5 67t-22.5 54t-90.5 26t-111.5 -23.5t-82.5 -53.5l-96 165q76 49 153.5 80t171.5 31q164 0 245 -81
t81 -189q0 -70 -41 -127.5t-86 -75.5q45 -10 94 -73.5t49 -158.5q0 -127 -98 -215t-246 -88t-354 97l102 170q61 -37 105 -54.5t106 -17.5t100 30.5t38 75.5zM1343 1020l-585 -1020h-293l588 1020h290z" />
    <glyph glyph-name="questiondown" unicode="&#xbf;" horiz-adv-x="937" 
d="M500 -76q-209 0 -311.5 102.5t-102.5 264.5q0 113 97.5 229.5t238.5 194.5l35 278l188 -78l19 -337q-147 -47 -241.5 -123t-94.5 -153t50 -117t120 -40q175 0 360 134l35 -240q-184 -115 -393 -115zM565.5 1059q-63.5 0 -106.5 44t-43 106t43 106.5t106.5 44.5t107.5 -44
t44 -106t-44 -106.5t-107.5 -44.5z" />
    <glyph glyph-name="Agrave" unicode="&#xc0;" horiz-adv-x="1333" 
d="M780 1393l541 -1356l-266 -37l-125 328h-529l-122 -328h-267l543 1393h225zM662 1028l-183 -485h369zM440 1849h275l123 -336h-203z" />
    <glyph glyph-name="Aacute" unicode="&#xc1;" horiz-adv-x="1333" 
d="M780 1393l541 -1356l-266 -37l-125 328h-529l-122 -328h-267l543 1393h225zM662 1028l-183 -485h369zM623 1849h274l-195 -336h-202z" />
    <glyph glyph-name="Acircumflex" unicode="&#xc2;" horiz-adv-x="1333" 
d="M780 1393l541 -1356l-266 -37l-125 328h-529l-122 -328h-267l543 1393h225zM662 1028l-183 -485h369zM522 1513h-252l312 336h145l311 -336h-243l-136 134z" />
    <glyph glyph-name="Atilde" unicode="&#xc3;" horiz-adv-x="1333" 
d="M780 1393l541 -1356l-266 -37l-125 328h-529l-122 -328h-267l543 1393h225zM662 1028l-183 -485h369zM492 1536h-177q0 137 69 191.5t148 54.5t127 -36t88 -36t56 19.5t16 44.5h166q0 -139 -68.5 -193.5t-147.5 -54.5t-122 36.5t-82 36.5t-56 -21.5t-17 -41.5z" />
    <glyph glyph-name="Adieresis" unicode="&#xc4;" horiz-adv-x="1333" 
d="M780 1393l541 -1356l-266 -37l-125 328h-529l-122 -328h-267l543 1393h225zM662 1028l-183 -485h369zM856 1806q55 0 93 -38.5t38 -94t-38 -93.5t-93 -38t-95 38t-40 93.5t40 94t95 38.5zM464 1806q56 0 93 -38.5t37 -94t-37 -93.5t-93 -38t-95 38t-39 93.5t39 94
t95 38.5z" />
    <glyph glyph-name="Aring" unicode="&#xc5;" horiz-adv-x="1333" 
d="M780 1393l541 -1356l-266 -37l-125 328h-529l-122 -328h-267l543 1393h225zM662 1028l-183 -485h369zM659.5 1642q32.5 0 56 25t23.5 57.5t-23.5 56t-56 23.5t-57 -23.5t-24.5 -56t24.5 -57.5t57 -25zM659.5 1931q88.5 0 154 -59.5t65.5 -147.5t-65.5 -144t-154 -56
t-154 56t-65.5 144t65.5 147.5t154 59.5z" />
    <glyph glyph-name="AE" unicode="&#xc6;" horiz-adv-x="1972" 
d="M954 543v485l-331 -485h331zM1223 1184v-375h370l43 -211h-413v-391h665l41 -207h-975v328h-475l-225 -328l-254 37l928 1356h862l39 -209h-606z" />
    <glyph glyph-name="Ccedilla" unicode="&#xc7;" horiz-adv-x="1214" 
d="M698 -281q62 0 62 33t-49 59.5t-131 34.5l51 134q-268 33 -391 233.5t-123 499.5t162.5 503.5t468.5 204.5q61 0 169.5 -20.5t198.5 -69.5l-82 -190q-98 31 -155.5 44t-139.5 13q-166 0 -256 -135t-90 -355t76 -366.5t244 -146.5t315 63l100 -197q-118 -62 -309 -84
l-14 -36q61 -25 102 -77t41 -106q0 -109 -78.5 -160t-179.5 -51q-39 0 -100.5 15.5t-93.5 42.5l61 155q79 -41 141 -41z" />
    <glyph glyph-name="Egrave" unicode="&#xc8;" horiz-adv-x="1187" 
d="M172 0v1393h832l40 -209h-608v-375h373l43 -211h-416v-391h668l43 -207h-975zM381 1849h274l123 -336h-203z" />
    <glyph glyph-name="Eacute" unicode="&#xc9;" horiz-adv-x="1187" 
d="M172 0v1393h832l40 -209h-608v-375h373l43 -211h-416v-391h668l43 -207h-975zM563 1849h275l-195 -336h-203z" />
    <glyph glyph-name="Ecircumflex" unicode="&#xca;" horiz-adv-x="1187" 
d="M172 0v1393h832l40 -209h-608v-375h373l43 -211h-416v-391h668l43 -207h-975zM463 1513h-252l311 336h146l311 -336h-244l-135 134z" />
    <glyph glyph-name="Edieresis" unicode="&#xcb;" horiz-adv-x="1187" 
d="M172 0v1393h832l40 -209h-608v-375h373l43 -211h-416v-391h668l43 -207h-975zM797 1806q55 0 93 -38.5t38 -94t-38 -93.5t-93 -38t-95 38t-40 93.5t40 94t95 38.5zM405 1806q56 0 93 -38.5t37 -94t-37 -93.5t-93 -38t-95.5 38t-39.5 93.5t39.5 94t95.5 38.5z" />
    <glyph glyph-name="Igrave" unicode="&#xcc;" horiz-adv-x="608" 
d="M436 1393v-1393h-264v1393h264zM84 1849h274l123 -336h-202z" />
    <glyph glyph-name="Iacute" unicode="&#xcd;" horiz-adv-x="608" 
d="M436 1393v-1393h-264v1393h264zM266 1849h275l-195 -336h-203z" />
    <glyph glyph-name="Icircumflex" unicode="&#xce;" horiz-adv-x="608" 
d="M436 1393v-1393h-264v1393h264zM166 1513h-252l311 336h146l311 -336h-244l-135 134z" />
    <glyph glyph-name="Idieresis" unicode="&#xcf;" horiz-adv-x="608" 
d="M436 1393v-1393h-264v1393h264zM500 1806q55 0 93 -38.5t38 -94t-38 -93.5t-93 -38t-95 38t-40 93.5t40 94t95 38.5zM108 1806q56 0 93 -38.5t37 -94t-37 -93.5t-93 -38t-95.5 38t-39.5 93.5t39.5 94t95.5 38.5z" />
    <glyph glyph-name="Eth" unicode="&#xd0;" horiz-adv-x="1454" 
d="M453 596v-373h237q168 0 269.5 110.5t101.5 349.5t-87 361.5t-272 122.5h-249v-364h133l18 -207h-151zM184 596h-125l-22 207h147v590h510q326 0 483.5 -194.5t157.5 -506.5t-168 -500t-473 -194l-510 2v596z" />
    <glyph glyph-name="Ntilde" unicode="&#xd1;" horiz-adv-x="1519" 
d="M1348 1393v-1393h-267l-645 932v-932h-264v1393h264l645 -930v930h267zM608 1536h-176q0 137 68.5 191.5t147.5 54.5t127.5 -36t88.5 -36t56 19.5t16 44.5h166q0 -139 -68.5 -193.5t-147.5 -54.5t-122 36.5t-82 36.5t-56.5 -21.5t-17.5 -41.5z" />
    <glyph glyph-name="Ograve" unicode="&#xd2;" horiz-adv-x="1517" 
d="M393 699q0 -226 87.5 -365t265.5 -139t278 124.5t100 363.5t-88 378t-263 139t-277.5 -137.5t-102.5 -363.5zM117 702q0 310 168 513.5t473 209.5q328 0 485.5 -210.5t157.5 -522.5t-168.5 -516.5t-484.5 -204.5t-473.5 210.5t-157.5 520.5zM539 1849h274l123 -336h-203z
" />
    <glyph glyph-name="Oacute" unicode="&#xd3;" horiz-adv-x="1517" 
d="M393 699q0 -226 87.5 -365t265.5 -139t278 124.5t100 363.5t-88 378t-263 139t-277.5 -137.5t-102.5 -363.5zM117 702q0 310 168 513.5t473 209.5q328 0 485.5 -210.5t157.5 -522.5t-168.5 -516.5t-484.5 -204.5t-473.5 210.5t-157.5 520.5zM721 1849h274l-194 -336h-203
z" />
    <glyph glyph-name="Ocircumflex" unicode="&#xd4;" horiz-adv-x="1517" 
d="M393 699q0 -226 87.5 -365t265.5 -139t278 124.5t100 363.5t-88 378t-263 139t-277.5 -137.5t-102.5 -363.5zM117 702q0 310 168 513.5t473 209.5q328 0 485.5 -210.5t157.5 -522.5t-168.5 -516.5t-484.5 -204.5t-473.5 210.5t-157.5 520.5zM621 1513h-252l311 336h145
l312 -336h-244l-135 134z" />
    <glyph glyph-name="Otilde" unicode="&#xd5;" horiz-adv-x="1517" 
d="M393 699q0 -226 87.5 -365t265.5 -139t278 124.5t100 363.5t-88 378t-263 139t-277.5 -137.5t-102.5 -363.5zM117 702q0 310 168 513.5t473 209.5q328 0 485.5 -210.5t157.5 -522.5t-168.5 -516.5t-484.5 -204.5t-473.5 210.5t-157.5 520.5zM590 1536h-176
q0 137 68.5 191.5t147.5 54.5t127 -36t88 -36t56.5 19.5t16.5 44.5h165q0 -139 -68.5 -193.5t-147.5 -54.5t-122 36.5t-82 36.5t-56 -21.5t-17 -41.5z" />
    <glyph glyph-name="Odieresis" unicode="&#xd6;" horiz-adv-x="1517" 
d="M393 699q0 -226 87.5 -365t265.5 -139t278 124.5t100 363.5t-88 378t-263 139t-277.5 -137.5t-102.5 -363.5zM117 702q0 310 168 513.5t473 209.5q328 0 485.5 -210.5t157.5 -522.5t-168.5 -516.5t-484.5 -204.5t-473.5 210.5t-157.5 520.5zM954 1806q55 0 93 -38.5
t38 -94t-37.5 -93.5t-93.5 -38t-95.5 38t-39.5 93.5t40 94t95 38.5zM562 1806q56 0 93 -38.5t37 -94t-37 -93.5t-93 -38t-95 38t-39 93.5t39 94t95 38.5z" />
    <glyph glyph-name="multiply" unicode="&#xd7;" horiz-adv-x="1128" 
d="M43 92l360 436l-346 430l250 37l250 -309l254 305h274l-395 -477l363 -455h-273l-241 297l-252 -305z" />
    <glyph glyph-name="Oslash" unicode="&#xd8;" horiz-adv-x="1517" 
d="M1124 705q0 199 -71 331l-355 -837q28 -4 58 -4q168 0 268 124.5t100 385.5zM762 1200q-164 0 -266.5 -137t-102.5 -365t84 -358l357 854q-54 6 -72 6zM117 702q0 310 168 513.5t473 209.5q328 0 485.5 -210.5t157.5 -522.5t-168.5 -516.5t-484.5 -204.5t-473.5 210.5
t-157.5 520.5z" />
    <glyph glyph-name="Ugrave" unicode="&#xd9;" horiz-adv-x="1460" 
d="M428 1393v-867q0 -174 84 -252.5t218 -78.5t217 81.5t83 249.5v867h268v-887q0 -225 -154.5 -377t-416.5 -152t-414.5 152t-152.5 377v887h268zM530 1849h275l123 -336h-203z" />
    <glyph glyph-name="Uacute" unicode="&#xda;" horiz-adv-x="1460" 
d="M428 1393v-867q0 -174 84 -252.5t218 -78.5t217 81.5t83 249.5v867h268v-887q0 -225 -154.5 -377t-416.5 -152t-414.5 152t-152.5 377v887h268zM653 1849h275l-195 -336h-203z" />
    <glyph glyph-name="Ucircumflex" unicode="&#xdb;" horiz-adv-x="1460" 
d="M428 1393v-867q0 -174 84 -252.5t218 -78.5t217 81.5t83 249.5v867h268v-887q0 -225 -154.5 -377t-416.5 -152t-414.5 152t-152.5 377v887h268zM598 1513h-252l311 336h146l311 -336h-244l-135 134z" />
    <glyph glyph-name="Udieresis" unicode="&#xdc;" horiz-adv-x="1460" 
d="M428 1393v-867q0 -174 84 -252.5t218 -78.5t217 81.5t83 249.5v867h268v-887q0 -225 -154.5 -377t-416.5 -152t-414.5 152t-152.5 377v887h268zM928 1806q55 0 93 -38.5t38 -94t-38 -93.5t-93 -38t-95 38t-40 93.5t40 94t95 38.5zM536 1806q56 0 93 -38.5t37 -94
t-37 -93.5t-93 -38t-95.5 38t-39.5 93.5t39.5 94t95.5 38.5z" />
    <glyph glyph-name="Yacute" unicode="&#xdd;" horiz-adv-x="1239" 
d="M479 0v543l-467 815l275 35l323 -582l338 582h281l-484 -861v-532h-266zM543 1849h274l-194 -336h-203z" />
    <glyph glyph-name="Thorn" unicode="&#xde;" horiz-adv-x="1243" 
d="M600 942h-164v-471h168q119 0 192.5 56.5t82.5 172.5q0 133 -74 187.5t-205 54.5zM436 1393v-234h172q227 0 389 -102.5t162 -342t-174 -351t-395 -111.5h-154v-252h-264v1393h264z" />
    <glyph glyph-name="germandbls" unicode="&#xdf;" horiz-adv-x="1310" 
d="M141 969q0 209 125.5 339t347.5 130t368 -100.5t146 -297.5q0 -82 -48 -163.5t-117 -114.5q96 -25 181 -125t85 -238q0 -184 -136.5 -291.5t-359.5 -107.5h-205v219h187q94 0 163.5 53.5t69.5 138.5t-64.5 143t-150.5 58h-192v213h71q111 0 174.5 58.5t63.5 142.5
t-63.5 133t-157.5 49t-158.5 -65.5t-64.5 -177.5v-965h-265v969z" />
    <glyph glyph-name="agrave" unicode="&#xe0;" horiz-adv-x="1056" 
d="M457 -25q-182 0 -270.5 89.5t-88.5 237.5t104.5 230t272.5 82h195q-2 76 -44 118t-114 42t-154 -19.5t-137 -45.5l-71 221q57 39 174.5 64.5t181.5 25.5q178 0 305 -103.5t127 -263.5v-653h-137l-66 84q-55 -43 -129.5 -76t-148.5 -33zM453 186q116 0 219 99v151h-201
q-70 0 -107.5 -43t-37.5 -91t34.5 -82t92.5 -34zM285 1542h274l123 -336h-203z" />
    <glyph glyph-name="aacute" unicode="&#xe1;" horiz-adv-x="1056" 
d="M457 -25q-182 0 -270.5 89.5t-88.5 237.5t104.5 230t272.5 82h195q-2 76 -44 118t-114 42t-154 -19.5t-137 -45.5l-71 221q57 39 174.5 64.5t181.5 25.5q178 0 305 -103.5t127 -263.5v-653h-137l-66 84q-55 -43 -129.5 -76t-148.5 -33zM453 186q116 0 219 99v151h-201
q-70 0 -107.5 -43t-37.5 -91t34.5 -82t92.5 -34zM469 1542h274l-194 -336h-203z" />
    <glyph glyph-name="acircumflex" unicode="&#xe2;" horiz-adv-x="1056" 
d="M457 -25q-182 0 -270.5 89.5t-88.5 237.5t104.5 230t272.5 82h195q-2 76 -44 118t-114 42t-154 -19.5t-137 -45.5l-71 221q57 39 174.5 64.5t181.5 25.5q178 0 305 -103.5t127 -263.5v-653h-137l-66 84q-55 -43 -129.5 -76t-148.5 -33zM453 186q116 0 219 99v151h-201
q-70 0 -107.5 -43t-37.5 -91t34.5 -82t92.5 -34zM408 1206h-252l313 336h141l314 -336h-244l-135 133z" />
    <glyph glyph-name="atilde" unicode="&#xe3;" horiz-adv-x="1056" 
d="M457 -25q-182 0 -270.5 89.5t-88.5 237.5t104.5 230t272.5 82h195q-2 76 -44 118t-114 42t-154 -19.5t-137 -45.5l-71 221q57 39 174.5 64.5t181.5 25.5q178 0 305 -103.5t127 -263.5v-653h-137l-66 84q-55 -43 -129.5 -76t-148.5 -33zM453 186q116 0 219 99v151h-201
q-70 0 -107.5 -43t-37.5 -91t34.5 -82t92.5 -34zM356 1229h-178q0 137 68.5 191.5t149.5 54.5t128.5 -36t87.5 -36t57 19.5t17 43.5h166q0 -139 -68.5 -193t-148.5 -54t-122 36.5t-99 36.5q-23 0 -40.5 -21.5t-17.5 -41.5z" />
    <glyph glyph-name="adieresis" unicode="&#xe4;" horiz-adv-x="1056" 
d="M457 -25q-182 0 -270.5 89.5t-88.5 237.5t104.5 230t272.5 82h195q-2 76 -44 118t-114 42t-154 -19.5t-137 -45.5l-71 221q57 39 174.5 64.5t181.5 25.5q178 0 305 -103.5t127 -263.5v-653h-137l-66 84q-55 -43 -129.5 -76t-148.5 -33zM453 186q116 0 219 99v151h-201
q-70 0 -107.5 -43t-37.5 -91t34.5 -82t92.5 -34zM731 1499q55 0 92 -39t37 -94t-37 -93t-92 -38t-95 38t-40 93t40 94t95 39zM337 1499q56 0 94 -39t38 -94t-38 -93t-94 -38t-95 38t-39 93t39 94t95 39z" />
    <glyph glyph-name="aring" unicode="&#xe5;" horiz-adv-x="1056" 
d="M457 -25q-182 0 -270.5 89.5t-88.5 237.5t104.5 230t272.5 82h195q-2 76 -44 118t-114 42t-154 -19.5t-137 -45.5l-71 221q57 39 174.5 64.5t181.5 25.5q178 0 305 -103.5t127 -263.5v-653h-137l-66 84q-55 -43 -129.5 -76t-148.5 -33zM453 186q116 0 219 99v151h-201
q-70 0 -107.5 -43t-37.5 -91t34.5 -82t92.5 -34zM529 1335q34 0 56.5 24.5t22.5 57.5t-22.5 56.5t-56.5 23.5t-57 -23.5t-23 -56.5t23 -57.5t57 -24.5zM528 1624q88 0 155 -59.5t67 -147.5t-67 -144t-155 -56t-153.5 56t-65.5 144t65.5 147.5t153.5 59.5z" />
    <glyph glyph-name="ae" unicode="&#xe6;" horiz-adv-x="1695" 
d="M471 418q-70 0 -107.5 -38t-37.5 -86t35 -78t93 -30q130 0 238 121q-3 12 -24 111h-197zM1158 793q-79 0 -135 -50.5t-75 -146.5h416q-18 100 -72.5 148.5t-133.5 48.5zM1221 -25q-283 0 -428 164q-51 -59 -146.5 -111.5t-189.5 -52.5q-182 0 -270.5 86t-88.5 234
t104.5 226.5t272.5 78.5h197q0 82 -43 128t-116 46t-155 -19.5t-137 -45.5l-71 221q57 39 174.5 64.5t181.5 25.5q187 0 317 -121q134 121 355 121t331.5 -154.5t110.5 -365.5v-82h-672q18 -98 89 -156.5t190 -58.5q70 0 123 17.5t125 49.5l79 -192q-70 -53 -170 -78
t-163 -25z" />
    <glyph glyph-name="ccedilla" unicode="&#xe7;" horiz-adv-x="995" 
d="M562 -281q61 0 61 33t-48.5 59.5t-128.5 34.5l54 138q-197 27 -305.5 162.5t-108.5 361.5t135 369t377 143q63 0 160.5 -26.5t171.5 -78.5l-76 -190q-72 33 -128 50.5t-126 17.5q-113 0 -176.5 -85t-63.5 -213t63.5 -210t176.5 -82q70 0 126 17.5t128 49.5l76 -192
q-85 -68 -242 -94l-16 -43q59 -25 99 -77t40 -106q0 -109 -77 -160t-177 -51q-41 0 -102.5 15.5t-94.5 42.5l62 155q79 -41 140 -41z" />
    <glyph glyph-name="egrave" unicode="&#xe8;" horiz-adv-x="1116" 
d="M786 596q-39 197 -206 197q-82 0 -137.5 -50.5t-71.5 -146.5h415zM641 -25q-258 0 -406.5 141.5t-148.5 379t134 381t366 143.5t342 -154.5t110 -365.5v-82h-669q18 -98 89.5 -156.5t188.5 -58.5q68 0 122 17.5t126 49.5l78 -192q-70 -53 -169.5 -78t-162.5 -25z
M360 1542h273l125 -336h-201z" />
    <glyph glyph-name="eacute" unicode="&#xe9;" horiz-adv-x="1116" 
d="M786 596q-39 197 -206 197q-82 0 -137.5 -50.5t-71.5 -146.5h415zM641 -25q-258 0 -406.5 141.5t-148.5 379t134 381t366 143.5t342 -154.5t110 -365.5v-82h-669q18 -98 89.5 -156.5t188.5 -58.5q68 0 122 17.5t126 49.5l78 -192q-70 -53 -169.5 -78t-162.5 -25z
M543 1542h276l-196 -336h-201z" />
    <glyph glyph-name="ecircumflex" unicode="&#xea;" horiz-adv-x="1116" 
d="M786 596q-39 197 -206 197q-82 0 -137.5 -50.5t-71.5 -146.5h415zM641 -25q-258 0 -406.5 141.5t-148.5 379t134 381t366 143.5t342 -154.5t110 -365.5v-82h-669q18 -98 89.5 -156.5t188.5 -58.5q68 0 122 17.5t126 49.5l78 -192q-70 -53 -169.5 -78t-162.5 -25z
M461 1206h-252l313 336h142l313 -336h-242l-137 133z" />
    <glyph glyph-name="edieresis" unicode="&#xeb;" horiz-adv-x="1116" 
d="M786 596q-39 197 -206 197q-82 0 -137.5 -50.5t-71.5 -146.5h415zM641 -25q-258 0 -406.5 141.5t-148.5 379t134 381t366 143.5t342 -154.5t110 -365.5v-82h-669q18 -98 89.5 -156.5t188.5 -58.5q68 0 122 17.5t126 49.5l78 -192q-70 -53 -169.5 -78t-162.5 -25z
M778.5 1499q55.5 0 93 -39t37.5 -94t-37.5 -93t-93 -38t-94.5 38t-39 93t39 94t94.5 39zM386 1499q54 0 93 -39t39 -94t-39 -93t-93 -38t-95 38t-41 93t41 94t95 39z" />
    <glyph glyph-name="igrave" unicode="&#xec;" horiz-adv-x="524" 
d="M393 993v-993h-266v993h266zM-2 1542h276l119 -336h-200z" />
    <glyph glyph-name="iacute" unicode="&#xed;" horiz-adv-x="524" 
d="M393 993v-993h-266v993h266zM252 1542h276l-196 -336h-203z" />
    <glyph glyph-name="icircumflex" unicode="&#xee;" horiz-adv-x="524" 
d="M393 993v-993h-266v993h266zM131 1206h-252l311 336h142l315 -336h-244l-135 133z" />
    <glyph glyph-name="idieresis" unicode="&#xef;" horiz-adv-x="524" 
d="M393 993v-993h-266v993h266zM458.5 1499q55.5 0 93.5 -39t38 -94t-38 -93t-93.5 -38t-94 38t-38.5 93t38.5 94t94 39zM67 1499q56 0 94 -39t38 -94t-38 -93t-94 -38t-94.5 38t-38.5 93t38.5 94t94.5 39z" />
    <glyph glyph-name="eth" unicode="&#xf0;" horiz-adv-x="1144" 
d="M303 411q0 -85 57.5 -151.5t167.5 -66.5t179 75.5t86 194.5q-27 66 -99 123t-174 57t-159.5 -73.5t-57.5 -158.5zM1034 541q0 -281 -149.5 -423.5t-361.5 -142.5t-336 135.5t-124 305.5t126 294t329 124q122 0 244 -86q-52 171 -191 305l-221 -172l-102 186l145 115
q-88 49 -192 71l118 179q126 -27 265 -109l145 115l100 -187l-75 -59q123 -121 201.5 -286t78.5 -365z" />
    <glyph glyph-name="ntilde" unicode="&#xf1;" horiz-adv-x="1187" 
d="M803 610q0 195 -184 195q-94 0 -226 -98v-707h-266v993h139l80 -106q68 68 169 106.5t181 38.5q203 0 288 -118.5t85 -290.5v-623h-266v610zM457 1229h-181q0 137 70 191.5t149 54.5t128 -36t106 -36q20 0 38.5 19.5t18.5 43.5h164q0 -139 -68.5 -193t-148.5 -54
t-121 36.5t-82 36.5t-57 -21.5t-16 -41.5z" />
    <glyph glyph-name="ograve" unicode="&#xf2;" horiz-adv-x="1208" 
d="M360 426q0 -223 230 -223q115 0 186.5 67.5t71.5 213.5t-62.5 227.5t-178.5 81.5t-181.5 -72t-65.5 -295zM589 -25q-239 0 -371 142.5t-132 381.5t138 380t382 141t380 -146.5t136 -384t-147 -376t-386 -138.5zM381 1542h276l121 -336h-203z" />
    <glyph glyph-name="oacute" unicode="&#xf3;" horiz-adv-x="1208" 
d="M360 426q0 -223 230 -223q115 0 186.5 67.5t71.5 213.5t-62.5 227.5t-178.5 81.5t-181.5 -72t-65.5 -295zM589 -25q-239 0 -371 142.5t-132 381.5t138 380t382 141t380 -146.5t136 -384t-147 -376t-386 -138.5zM565 1542h273l-193 -336h-203z" />
    <glyph glyph-name="ocircumflex" unicode="&#xf4;" horiz-adv-x="1208" 
d="M360 426q0 -223 230 -223q115 0 186.5 67.5t71.5 213.5t-62.5 227.5t-178.5 81.5t-181.5 -72t-65.5 -295zM589 -25q-239 0 -371 142.5t-132 381.5t138 380t382 141t380 -146.5t136 -384t-147 -376t-386 -138.5zM465 1206h-252l313 336h142l315 -336h-246l-135 133z" />
    <glyph glyph-name="otilde" unicode="&#xf5;" horiz-adv-x="1208" 
d="M360 426q0 -223 230 -223q115 0 186.5 67.5t71.5 213.5t-62.5 227.5t-178.5 81.5t-181.5 -72t-65.5 -295zM589 -25q-239 0 -371 142.5t-132 381.5t138 380t382 141t380 -146.5t136 -384t-147 -376t-386 -138.5zM436 1229h-180q0 137 69.5 191.5t148.5 54.5t127.5 -36
t88.5 -36t56 19.5t16 43.5h168q0 -139 -68.5 -193t-148.5 -54t-123 36.5t-101 36.5q-23 0 -38 -21.5t-15 -41.5z" />
    <glyph glyph-name="odieresis" unicode="&#xf6;" horiz-adv-x="1208" 
d="M360 426q0 -223 230 -223q115 0 186.5 67.5t71.5 213.5t-62.5 227.5t-178.5 81.5t-181.5 -72t-65.5 -295zM589 -23q-239 0 -371 141.5t-132 380.5t138 380t382 141t380 -146.5t136 -384t-147 -375t-386 -137.5zM799 1499q55 0 93 -39t38 -94t-38 -93t-93 -38t-95 38
t-40 93t40 94t95 39zM405.5 1499q55.5 0 93.5 -39t38 -94t-38 -93t-93.5 -38t-93.5 38t-38 93t38 94t93.5 39z" />
    <glyph glyph-name="divide" unicode="&#xf7;" horiz-adv-x="985" 
d="M489.5 49q-65.5 0 -111.5 47t-46 113t46 112t111.5 46t112.5 -46.5t47 -111.5t-47 -112.5t-112.5 -47.5zM952 457h-901l-18 209h897zM489.5 737q-65.5 0 -111.5 46t-46 112t46 112t111.5 46t112.5 -45.5t47 -111.5t-47 -112.5t-112.5 -46.5z" />
    <glyph glyph-name="oslash" unicode="&#xf8;" horiz-adv-x="1208" 
d="M590 203q115 0 186.5 68.5t71.5 217.5q0 78 -25 148q-249 -434 -245 -434h12zM608 793q-117 0 -182.5 -72t-65.5 -219q0 -68 19 -146l248 437h-19zM589 -23q-239 0 -371 141.5t-132 380.5t138 380t382 141t380 -146.5t136 -384t-147 -375t-386 -137.5z" />
    <glyph glyph-name="ugrave" unicode="&#xf9;" horiz-adv-x="1177" 
d="M385 381q0 -195 180 -195q90 0 217 88v719h267v-993h-140l-75 98q-68 -63 -166.5 -101t-178.5 -38q-203 0 -287.5 120t-84.5 290v624h268v-612zM332 1542h274l123 -336h-201z" />
    <glyph glyph-name="uacute" unicode="&#xfa;" horiz-adv-x="1177" 
d="M385 381q0 -195 180 -195q90 0 217 88v719h267v-993h-140l-75 98q-68 -63 -166.5 -101t-178.5 -38q-203 0 -287.5 120t-84.5 290v624h268v-612zM559 1542h275l-197 -336h-201z" />
    <glyph glyph-name="ucircumflex" unicode="&#xfb;" horiz-adv-x="1177" 
d="M385 381q0 -195 180 -195q90 0 217 88v719h267v-993h-140l-75 98q-68 -63 -166.5 -101t-178.5 -38q-203 0 -287.5 120t-84.5 290v624h268v-612zM461 1206h-254l315 336h142l313 -336h-244l-135 133z" />
    <glyph glyph-name="udieresis" unicode="&#xfc;" horiz-adv-x="1177" 
d="M385 381q0 -195 180 -195q90 0 217 88v719h267v-993h-140l-75 98q-68 -63 -166.5 -101t-178.5 -38q-203 0 -287.5 120t-84.5 290v624h268v-612zM792.5 1499q55.5 0 93.5 -39t38 -94t-38 -93t-93.5 -38t-94.5 38t-39 93t39 94t94.5 39zM401.5 1499q55.5 0 92 -39t36.5 -94
t-36.5 -93t-92 -38t-95.5 38t-40 93t40 94t95.5 39z" />
    <glyph glyph-name="yacute" unicode="&#xfd;" horiz-adv-x="1024" 
d="M319 -47l48 117l-355 886l275 37l229 -602l217 602h281l-445 -1124q-47 -121 -165.5 -207t-249.5 -117l-95 219q72 31 152.5 75t107.5 114zM479 1542h277l-197 -336h-203z" />
    <glyph glyph-name="thorn" unicode="&#xfe;" horiz-adv-x="1189" 
d="M651 1032q219 0 336 -151.5t117 -376.5t-120 -377t-333 -152q-120 0 -245 70v-473l-265 -21v1872l265 23v-483q123 69 245 69zM582 203q137 0 192 99t55 209t-49 202t-198 92q-88 0 -176 -57v-488q93 -57 176 -57z" />
    <glyph glyph-name="ydieresis" unicode="&#xff;" horiz-adv-x="1024" 
d="M319 -47l48 117l-355 886l275 37l229 -602l217 602h281l-445 -1124q-47 -121 -165.5 -207t-249.5 -117l-95 219q72 31 152.5 75t107.5 114zM320 1499q54 0 93.5 -39t39.5 -94t-39.5 -93t-93.5 -38t-94 38t-40 93t40 94t94 39zM714 1499q56 0 93 -39t37 -94t-37 -93
t-93 -38t-95 38t-39 93t39 94t95 39z" />
    <glyph glyph-name="Amacron" unicode="&#x100;" horiz-adv-x="1333" 
d="M780 1393l541 -1356l-266 -37l-125 328h-529l-122 -328h-267l543 1393h225zM662 1028l-183 -485h369zM385 1774h537v-211h-537v211z" />
    <glyph glyph-name="amacron" unicode="&#x101;" horiz-adv-x="1056" 
d="M457 -25q-182 0 -270.5 89.5t-88.5 237.5t104.5 230t272.5 82h195q-2 76 -44 118t-114 42t-154 -19.5t-137 -45.5l-71 221q57 39 174.5 64.5t181.5 25.5q178 0 305 -103.5t127 -263.5v-653h-137l-66 84q-55 -43 -129.5 -76t-148.5 -33zM453 186q116 0 219 99v151h-201
q-70 0 -107.5 -43t-37.5 -91t34.5 -82t92.5 -34zM270 1466h537v-211h-537v211z" />
    <glyph glyph-name="Abreve" unicode="&#x102;" horiz-adv-x="1333" 
d="M780 1393l541 -1356l-266 -37l-125 328h-529l-122 -328h-267l543 1393h225zM662 1028l-183 -485h369zM963 1849q0 -129 -74 -231t-227 -105q-154 2 -228 104.5t-74 231.5h183q0 -53 25.5 -99t92.5 -46t95 46t28 99h179z" />
    <glyph glyph-name="abreve" unicode="&#x103;" horiz-adv-x="1056" 
d="M457 -25q-182 0 -270.5 89.5t-88.5 237.5t104.5 230t272.5 82h195q-2 76 -44 118t-114 42t-154 -19.5t-137 -45.5l-71 221q57 39 174.5 64.5t181.5 25.5q178 0 305 -103.5t127 -263.5v-653h-137l-66 84q-55 -43 -129.5 -76t-148.5 -33zM453 186q116 0 219 99v151h-201
q-70 0 -107.5 -43t-37.5 -91t34.5 -82t92.5 -34zM829 1542q0 -129 -73.5 -231.5t-228.5 -102.5t-228.5 102.5t-73.5 231.5h183q0 -53 25.5 -99t91.5 -46t94 46t28 99h182z" />
    <glyph glyph-name="Aogonek" unicode="&#x104;" horiz-adv-x="1333" 
d="M662 1028l-183 -485h369zM973 -193q0 45 25.5 108.5t52.5 94.5l-121 318h-529l-122 -328h-267l543 1393h225l541 -1356q-29 -27 -77 -95.5t-48 -101.5q0 -67 64 -67q36 0 83 34l76 -163q-90 -68 -203 -68q-112 0 -177.5 68.5t-65.5 162.5z" />
    <glyph glyph-name="aogonek" unicode="&#x105;" horiz-adv-x="1056" 
d="M453 186q116 0 219 99v151h-201q-70 0 -107.5 -43t-37.5 -91t34.5 -82t92.5 -34zM633 -199q0 88 37 155t80 107l-15 21q-55 -43 -129.5 -76t-148.5 -33q-182 0 -270.5 89.5t-88.5 237.5t104.5 230t272.5 82h195q-2 76 -44 118t-114 42t-154 -19.5t-137 -45.5l-71 221
q57 39 174.5 64.5t181.5 25.5q178 0 305 -103.5t127 -263.5v-653q-29 -31 -54.5 -78t-25.5 -81q0 -68 64 -68q31 0 84 34l75 -163q-86 -68 -201 -68q-114 0 -180.5 68.5t-66.5 156.5z" />
    <glyph glyph-name="Cacute" unicode="&#x106;" horiz-adv-x="1214" 
d="M713 195q168 0 315 63l100 -197q-80 -41 -192.5 -65.5t-198.5 -24.5q-326 0 -473 208.5t-147 520.5t162.5 516.5t468.5 204.5q61 0 169.5 -20.5t198.5 -69.5l-82 -190q-98 31 -155.5 44t-139.5 13q-166 0 -256 -135t-90 -355t76 -366.5t244 -146.5zM709 1849h274
l-195 -336h-202z" />
    <glyph glyph-name="cacute" unicode="&#x107;" horiz-adv-x="995" 
d="M600 793q-113 0 -176.5 -85t-63.5 -213t63.5 -210t176.5 -82q70 0 126 17.5t128 49.5l76 -192q-70 -53 -169 -78t-163 -25q-242 0 -377 141.5t-135 379t135 381t377 143.5q63 0 160.5 -26.5t171.5 -78.5l-76 -190q-72 33 -128 50.5t-126 17.5zM559 1542h275l-197 -336
h-201z" />
    <glyph glyph-name="Ccaron" unicode="&#x10c;" horiz-adv-x="1214" 
d="M713 195q168 0 315 63l100 -197q-80 -41 -192.5 -65.5t-198.5 -24.5q-326 0 -473 208.5t-147 520.5t162.5 516.5t468.5 204.5q61 0 169.5 -20.5t198.5 -69.5l-82 -190q-98 31 -155.5 44t-139.5 13q-166 0 -256 -135t-90 -355t76 -366.5t244 -146.5zM356 1849h252
l137 -133l136 133h243l-311 -336h-145z" />
    <glyph glyph-name="ccaron" unicode="&#x10d;" horiz-adv-x="995" 
d="M600 793q-113 0 -176.5 -85t-63.5 -213t63.5 -210t176.5 -82q70 0 126 17.5t128 49.5l76 -192q-70 -53 -169 -78t-163 -25q-242 0 -377 141.5t-135 379t135 381t377 143.5q63 0 160.5 -26.5t171.5 -78.5l-76 -190q-72 33 -128 50.5t-126 17.5zM207 1542h252l137 -133
l137 133h242l-311 -336h-144z" />
    <glyph glyph-name="Dcaron" unicode="&#x10e;" horiz-adv-x="1439" 
d="M690 1167h-254v-944h240q168 0 269.5 110.5t101.5 349.5t-86.5 361.5t-270.5 122.5zM172 1393h508q326 0 483.5 -194.5t157.5 -506.5t-168 -500t-473 -194l-508 2v1393zM268 1849h252l137 -133l136 133h243l-311 -336h-145z" />
    <glyph glyph-name="dcaron" unicode="&#x10f;" horiz-adv-x="1570" 
d="M549 1032q125 0 256 -74v465l268 23v-1446h-139l-74 96q-68 -57 -159 -89t-164 -32q-217 0 -334 152t-117 377t124 376.5t339 151.5zM360 498q0 -110 49.5 -202.5t198.5 -92.5q83 0 197 71v459q-105 72 -197 72q-139 0 -193.5 -98.5t-54.5 -208.5zM1396.5 1520
q63.5 0 108.5 -51t45 -149t-75.5 -222.5t-196.5 -190.5l-55 125q53 45 89 85t50 106q-39 0 -78 45t-39 99t44 103.5t107.5 49.5z" />
    <glyph glyph-name="Dcroat" unicode="&#x110;" horiz-adv-x="1454" 
d="M453 596v-373h237q168 0 269.5 110.5t101.5 349.5t-87 361.5t-272 122.5h-249v-364h133l18 -207h-151zM184 596h-125l-22 207h147v590h510q326 0 483.5 -194.5t157.5 -506.5t-168 -500t-473 -194l-510 2v596z" />
    <glyph glyph-name="dcroat" unicode="&#x111;" horiz-adv-x="1212" 
d="M549 1032q125 0 256 -74v158h-158l-24 195h182v112l268 23v-135h86l23 -195h-109v-1116h-139l-74 96q-68 -57 -159 -89t-164 -32q-217 0 -334 152t-117 377t124 376.5t339 151.5zM360 498q0 -110 49.5 -202.5t198.5 -92.5q83 0 197 71v459q-105 72 -197 72
q-139 0 -193.5 -98.5t-54.5 -208.5z" />
    <glyph glyph-name="Emacron" unicode="&#x112;" horiz-adv-x="1187" 
d="M172 0v1393h832l40 -209h-608v-375h373l43 -211h-416v-391h668l43 -207h-975zM326 1774h536v-211h-536v211z" />
    <glyph glyph-name="emacron" unicode="&#x113;" horiz-adv-x="1116" 
d="M786 596q-39 197 -206 197q-82 0 -137.5 -50.5t-71.5 -146.5h415zM641 -25q-258 0 -406.5 141.5t-148.5 379t134 381t366 143.5t342 -154.5t110 -365.5v-82h-669q18 -98 89.5 -156.5t188.5 -58.5q68 0 122 17.5t126 49.5l78 -192q-70 -53 -169.5 -78t-162.5 -25z
M307 1466h537v-211h-537v211z" />
    <glyph glyph-name="Edotaccent" unicode="&#x116;" horiz-adv-x="1187" 
d="M172 0v1393h832l40 -209h-608v-375h373l43 -211h-416v-391h668l43 -207h-975zM600.5 1825q63.5 0 105.5 -44t42 -107.5t-42 -106.5t-105.5 -43t-107.5 43t-44 106.5t44 107.5t107.5 44z" />
    <glyph glyph-name="edotaccent" unicode="&#x117;" horiz-adv-x="1116" 
d="M786 596q-39 197 -206 197q-82 0 -137.5 -50.5t-71.5 -146.5h415zM641 -25q-258 0 -406.5 141.5t-148.5 379t134 381t366 143.5t342 -154.5t110 -365.5v-82h-669q18 -98 89.5 -156.5t188.5 -58.5q68 0 122 17.5t126 49.5l78 -192q-70 -53 -169.5 -78t-162.5 -25z
M583 1518q62 0 104 -44t42 -107.5t-42 -106.5t-104 -43t-107.5 43t-45.5 106.5t45.5 107.5t107.5 44z" />
    <glyph glyph-name="Eogonek" unicode="&#x118;" horiz-adv-x="1187" 
d="M700 -193q0 41 21.5 100.5t48.5 92.5h-598v1393h832l40 -209h-608v-375h373l43 -211h-416v-391h668l43 -207h-143q-27 -31 -53.5 -81t-26.5 -81q0 -65 63 -65q37 0 84 34l76 -163q-90 -68 -203 -68q-112 0 -178 68.5t-66 162.5z" />
    <glyph glyph-name="eogonek" unicode="&#x119;" horiz-adv-x="1116" 
d="M786 596q-39 197 -206 197q-82 0 -137.5 -50.5t-71.5 -146.5h415zM514 -201q0 86 51 181q-225 20 -352 158t-127 367t134 372t366 143t342 -154.5t110 -365.5v-82h-669q18 -98 89.5 -156.5t188.5 -58.5q68 0 122 17.5t126 49.5l78 -192q-62 -47 -154 -74
q-29 -29 -55.5 -81t-26.5 -93q0 -57 62 -57q35 0 84 34l75 -163q-90 -68 -201 -68t-177 68.5t-66 154.5z" />
    <glyph glyph-name="Ecaron" unicode="&#x11a;" horiz-adv-x="1187" 
d="M172 0v1393h832l40 -209h-608v-375h373l43 -211h-416v-391h668l43 -207h-975zM211 1849h252l137 -133l135 133h244l-311 -336h-146z" />
    <glyph glyph-name="ecaron" unicode="&#x11b;" horiz-adv-x="1116" 
d="M786 596q-39 197 -206 197q-82 0 -137.5 -50.5t-71.5 -146.5h415zM641 -25q-258 0 -406.5 141.5t-148.5 379t134 381t366 143.5t342 -154.5t110 -365.5v-82h-669q18 -98 89.5 -156.5t188.5 -58.5q68 0 122 17.5t126 49.5l78 -192q-70 -53 -169.5 -78t-162.5 -25z
M205 1542h252l139 -133l133 133h244l-311 -336h-144z" />
    <glyph glyph-name="Gbreve" unicode="&#x11e;" horiz-adv-x="1343" 
d="M762 195q101 0 203 22v340h-293l22 205h508v-688q-192 -103 -434 -103q-326 0 -488.5 210t-162.5 518t184 515t500 207q61 0 175 -20.5t206 -69.5l-84 -190q-90 27 -146.5 42t-146.5 15q-184 0 -298 -126t-114 -368t93.5 -375.5t275.5 -133.5zM1104 1849q0 -129 -74 -231
t-227 -105q-154 2 -227.5 104.5t-73.5 231.5h182q0 -53 25.5 -99t92.5 -46t95.5 46t28.5 99h178z" />
    <glyph glyph-name="gbreve" unicode="&#x11f;" horiz-adv-x="1212" 
d="M86 504q0 225 124 376.5t339 151.5q74 0 166 -31.5t157 -89.5l62 82h139v-991q0 -180 -122 -302t-386 -122q-63 0 -184 30t-201 83l80 188q92 -45 157 -66.5t163 -21.5t161.5 57.5t63.5 155.5v51q-136 -80 -268 -80q-217 0 -334 152t-117 377zM360 498
q0 -110 49.5 -202.5t198.5 -92.5q83 0 197 71v459q-105 72 -197 72q-139 0 -193.5 -98.5t-54.5 -208.5zM901 1542q0 -129 -73.5 -231.5t-228.5 -102.5t-228.5 102.5t-73.5 231.5h182q0 -53 25.5 -99t92.5 -46t94.5 46t27.5 99h182z" />
    <glyph glyph-name="Gcedilla" unicode="&#x122;" horiz-adv-x="1343" 
d="M762 195q101 0 203 22v340h-293l22 205h508v-688q-143 -79 -340 -97l-12 -36q59 -25 99 -77t40 -106q0 -109 -79 -160t-177 -51q-41 0 -101.5 15.5t-94.5 42.5l61 155q79 -41 141 -41t62 33t-49.5 59.5t-128.5 34.5l49 131q-276 31 -415.5 234t-139.5 479q0 317 184 524
t500 207q61 0 175 -20.5t206 -69.5l-84 -190q-90 27 -146.5 42t-146.5 15q-184 0 -298 -126t-114 -368t93.5 -375.5t275.5 -133.5z" />
    <glyph glyph-name="gcedilla" unicode="&#x123;" horiz-adv-x="1212" 
d="M86 504q0 225 124 376.5t339 151.5q74 0 166 -31.5t157 -89.5l62 82h139v-991q0 -180 -122 -302t-386 -122q-63 0 -184 30t-201 83l80 188q92 -45 157 -66.5t163 -21.5t161.5 57.5t63.5 155.5v51q-136 -80 -268 -80q-217 0 -334 152t-117 377zM360 498
q0 -110 49.5 -202.5t198.5 -92.5q83 0 197 71v459q-105 72 -197 72q-139 0 -193.5 -98.5t-54.5 -208.5zM552.5 1106q-63.5 0 -108.5 52t-45 148t71 192.5t167 148.5l57 -127q-27 -8 -59.5 -39t-44.5 -74q33 0 74 -46t41 -101.5t-44.5 -104.5t-108 -49z" />
    <glyph glyph-name="Imacron" unicode="&#x12a;" horiz-adv-x="608" 
d="M436 1393v-1393h-264v1393h264zM29 1774h536v-211h-536v211z" />
    <glyph glyph-name="imacron" unicode="&#x12b;" horiz-adv-x="524" 
d="M393 993v-993h-266v993h266zM-8 1466h536v-211h-536v211z" />
    <glyph glyph-name="Iogonek" unicode="&#x12e;" horiz-adv-x="608" 
d="M358 -424q-112 0 -177.5 68.5t-65.5 162.5q0 41 21.5 100.5t47.5 92.5h-12v1393h264v-1393h-18q-27 -31 -53.5 -81t-26.5 -81q0 -65 63 -65q37 0 84 34l76 -163q-91 -68 -203 -68z" />
    <glyph glyph-name="iogonek" unicode="&#x12f;" horiz-adv-x="524" 
d="M323 -424q-112 0 -178.5 68.5t-66.5 162.5q0 41 20.5 100.5t46.5 92.5h-18v993h266v-993h-10q-27 -31 -53.5 -81t-26.5 -89q0 -57 64 -57q33 0 82 34l77 -163q-91 -68 -203 -68zM261 1434q62 0 106.5 -43t44.5 -106.5t-44 -106.5t-106 -43t-105.5 43t-43.5 106.5
t43 106.5t105 43z" />
    <glyph glyph-name="Idotaccent" unicode="&#x130;" horiz-adv-x="608" 
d="M436 1393v-1393h-264v1393h264zM303.5 1825q63.5 0 105.5 -44t42 -107.5t-42 -106.5t-105.5 -43t-107.5 43t-44 106.5t44 107.5t107.5 44z" />
    <glyph glyph-name="dotlessi" unicode="&#x131;" horiz-adv-x="524" 
d="M393 993v-993h-266v993h266z" />
    <glyph glyph-name="Kcedilla" unicode="&#x136;" horiz-adv-x="1298" 
d="M654 -43q62 0 107.5 -51.5t45.5 -149.5t-70.5 -194.5t-167.5 -143.5l-57 125q27 10 59.5 41t46.5 74q-37 0 -75.5 45t-38.5 101t44 104.5t106 48.5zM412 1393v-584l522 614l196 -151l-413 -479l581 -793h-329l-426 590l-131 -154v-436h-267v1393h267z" />
    <glyph glyph-name="kcedilla" unicode="&#x137;" horiz-adv-x="1079" 
d="M557.5 -43q63.5 0 109.5 -51.5t46 -149.5t-72 -194.5t-168 -143.5l-57 125q27 10 59.5 41t46.5 74q-35 0 -74.5 45t-39.5 101t43 104.5t106.5 48.5zM406 0h-265v1423l265 23v-815l425 391l150 -188l-279 -244l365 -590h-305l-250 420l-106 -94v-326z" />
    <glyph glyph-name="Lacute" unicode="&#x139;" horiz-adv-x="1112" 
d="M172 0v1393h264v-1186h615l41 -207h-920zM324 1849h274l-195 -336h-202z" />
    <glyph glyph-name="lacute" unicode="&#x13a;" horiz-adv-x="544" 
d="M406 0h-265v1378l265 25v-1403zM276 1714h277l-184 -256h-203z" />
    <glyph glyph-name="Lcedilla" unicode="&#x13b;" horiz-adv-x="1112" 
d="M630.5 -43q63.5 0 109.5 -51.5t46 -149.5t-71.5 -194.5t-167.5 -143.5l-58 125q27 10 60 41t47 74q-37 0 -76 45t-39 101t43 104.5t106.5 48.5zM172 0v1393h264v-1186h615l41 -207h-920z" />
    <glyph glyph-name="lcedilla" unicode="&#x13c;" horiz-adv-x="544" 
d="M284.5 -43q63.5 0 107.5 -51.5t44 -149.5t-70.5 -194.5t-166.5 -143.5l-58 125q27 10 59.5 41t47.5 74q-37 0 -76 45t-39 101t44 104.5t107.5 48.5zM406 0h-265v1423l265 23v-1446z" />
    <glyph glyph-name="Lcaron" unicode="&#x13d;" horiz-adv-x="1112" 
d="M172 0v1393h264v-1186h615l41 -207h-920zM835.5 1520q63.5 0 109.5 -51t46 -149t-76.5 -222.5t-193.5 -190.5l-57 125q51 45 86.5 85t50.5 106q-35 0 -75 45t-40 99t43 103.5t106.5 49.5z" />
    <glyph glyph-name="lcaron" unicode="&#x13e;" horiz-adv-x="905" 
d="M406 0h-265v1423l265 23v-1446zM730 1520q62 0 108.5 -51t46.5 -149t-77 -222.5t-194 -190.5l-57 125q51 45 87 85t50 106q-35 0 -73.5 45t-38.5 99t43 103.5t105 49.5z" />
    <glyph glyph-name="Lslash" unicode="&#x141;" horiz-adv-x="1138" 
d="M197 0v442l-84 -63l-101 186l185 140v688h266v-488l194 148l103 -187l-297 -221v-438h614l39 -207h-919z" />
    <glyph glyph-name="lslash" unicode="&#x142;" horiz-adv-x="544" 
d="M406 0h-265v526l-141 -104l-102 184l243 185v632l265 23v-455l137 105l104 -185l-241 -182v-729z" />
    <glyph glyph-name="Nacute" unicode="&#x143;" horiz-adv-x="1519" 
d="M1348 1393v-1393h-267l-645 932v-932h-264v1393h264l645 -930v930h267zM739 1849h275l-195 -336h-203z" />
    <glyph glyph-name="nacute" unicode="&#x144;" horiz-adv-x="1187" 
d="M803 610q0 195 -184 195q-94 0 -226 -98v-707h-266v993h139l80 -106q68 68 169 106.5t181 38.5q203 0 288 -118.5t85 -290.5v-623h-266v610zM557 1542h272l-196 -336h-201z" />
    <glyph glyph-name="Ncedilla" unicode="&#x145;" horiz-adv-x="1519" 
d="M772 -43q64 0 108 -51.5t44 -149.5t-71 -194.5t-167 -143.5l-57 125q27 10 59.5 41t46.5 74q-35 0 -73.5 45t-38.5 101t42.5 104.5t106.5 48.5zM1348 1393v-1393h-267l-645 932v-932h-264v1393h264l645 -930v930h267z" />
    <glyph glyph-name="ncedilla" unicode="&#x146;" horiz-adv-x="1187" 
d="M595.5 -43q63.5 0 108 -51.5t44.5 -149.5t-71 -194.5t-167 -143.5l-57 125q27 10 59.5 41t46.5 74q-35 0 -74 45t-39 101t43 104.5t106.5 48.5zM803 610q0 195 -184 195q-94 0 -226 -98v-707h-266v993h139l80 -106q68 68 169 106.5t181 38.5q203 0 288 -118.5t85 -290.5
v-623h-266v610z" />
    <glyph glyph-name="Ncaron" unicode="&#x147;" horiz-adv-x="1519" 
d="M1348 1393v-1393h-267l-645 932v-932h-264v1393h264l645 -930v930h267zM387 1849h252l137 -133l135 133h244l-311 -336h-146z" />
    <glyph glyph-name="ncaron" unicode="&#x148;" horiz-adv-x="1187" 
d="M803 610q0 195 -184 195q-94 0 -226 -98v-707h-266v993h139l80 -106q68 68 169 106.5t181 38.5q203 0 288 -118.5t85 -290.5v-623h-266v610zM229 1542h254l138 -133l137 133h239l-311 -336h-143z" />
    <glyph glyph-name="Omacron" unicode="&#x14c;" horiz-adv-x="1517" 
d="M393 699q0 -226 87.5 -365t265.5 -139t278 124.5t100 363.5t-88 378t-263 139t-277.5 -137.5t-102.5 -363.5zM117 702q0 310 168 513.5t473 209.5q328 0 485.5 -210.5t157.5 -522.5t-168.5 -516.5t-484.5 -204.5t-473.5 210.5t-157.5 520.5zM483 1774h537v-211h-537v211z
" />
    <glyph glyph-name="omacron" unicode="&#x14d;" horiz-adv-x="1208" 
d="M360 426q0 -223 230 -223q115 0 186.5 67.5t71.5 213.5t-62.5 227.5t-178.5 81.5t-181.5 -72t-65.5 -295zM589 -25q-239 0 -371 142.5t-132 381.5t138 380t382 141t380 -146.5t136 -384t-147 -376t-386 -138.5zM326 1466h536v-211h-536v211z" />
    <glyph glyph-name="Ohungarumlaut" unicode="&#x150;" horiz-adv-x="1517" 
d="M393 699q0 -226 87.5 -365t265.5 -139t278 124.5t100 363.5t-88 378t-263 139t-277.5 -137.5t-102.5 -363.5zM117 702q0 310 168 513.5t473 209.5q328 0 485.5 -210.5t157.5 -522.5t-168.5 -516.5t-484.5 -204.5t-473.5 210.5t-157.5 520.5zM594 1849h252l-195 -336h-180
zM977 1849h254l-197 -336h-180z" />
    <glyph glyph-name="ohungarumlaut" unicode="&#x151;" horiz-adv-x="1208" 
d="M360 426q0 -223 230 -223q115 0 186.5 67.5t71.5 213.5t-62.5 227.5t-178.5 81.5t-181.5 -72t-65.5 -295zM589 -25q-239 0 -371 142.5t-132 381.5t138 380t382 141t380 -146.5t136 -384t-147 -376t-386 -138.5zM436 1542h254l-196 -336h-181zM821 1542h252l-196 -336
h-183z" />
    <glyph glyph-name="OE" unicode="&#x152;" horiz-adv-x="2068" 
d="M780 1421q120 0 273 -53v25h829l43 -209h-608v-375h373l43 -211h-416v-391h668l38 -207h-970v20q-172 -49 -285 -49q-326 0 -488.5 208.5t-162.5 520.5t179 516.5t484 204.5zM754 195q140 0 299 63v885q-90 27 -141.5 41t-139.5 14q-166 0 -272.5 -135t-106.5 -355
t92.5 -366.5t268.5 -146.5z" />
    <glyph glyph-name="oe" unicode="&#x153;" horiz-adv-x="1808" 
d="M780 494q0 144 49 258q-103 41 -182 41q-141 0 -214 -85t-73 -213t73 -210t214 -82q91 0 187 41q-54 106 -54 250zM1272 793q-80 0 -135.5 -50.5t-71.5 -146.5h414q-18 100 -72.5 148.5t-134.5 48.5zM1335 -25q-217 0 -362 103q-70 -53 -169.5 -78t-162.5 -25
q-258 0 -406.5 141.5t-148.5 379t148.5 380t406.5 142.5q61 0 156.5 -21.5t165.5 -72.5q134 96 315 96q236 0 346.5 -154.5t110.5 -365.5v-82h-672q18 -98 89 -156.5t165 -58.5t148.5 17.5t123.5 49.5l80 -192q-70 -53 -170 -78t-164 -25z" />
    <glyph glyph-name="Racute" unicode="&#x154;" horiz-adv-x="1284" 
d="M590 528h-154v-528h-264v1393h436q227 0 389 -104.5t162 -323.5q0 -129 -66.5 -222.5t-170.5 -144.5l342 -598h-283l-295 532q-46 -4 -96 -4zM600 1171h-164v-426h168q119 0 197 48.5t78 162.5q0 216 -279 215zM565 1849h275l-195 -336h-203z" />
    <glyph glyph-name="racute" unicode="&#x155;" horiz-adv-x="733" 
d="M393 0h-266v993h139l88 -145q61 53 149.5 99t168.5 46l53 -213q-68 0 -157 -39t-175 -114v-627zM340 1542h272l-194 -336h-203z" />
    <glyph glyph-name="Rcedilla" unicode="&#x156;" horiz-adv-x="1284" 
d="M690.5 -43q63.5 0 108.5 -51.5t45 -149.5t-71 -194.5t-169 -143.5l-57 125q29 10 61.5 41t48.5 74q-39 0 -77.5 45t-38.5 101t43 104.5t106.5 48.5zM590 528h-154v-528h-264v1393h436q227 0 389 -104.5t162 -323.5q0 -129 -66.5 -222.5t-170.5 -144.5l342 -598h-283
l-295 532q-46 -4 -96 -4zM600 1171h-164v-426h168q119 0 197 48.5t78 162.5q0 216 -279 215z" />
    <glyph glyph-name="rcedilla" unicode="&#x157;" horiz-adv-x="733" 
d="M270.5 -43q63.5 0 107.5 -51.5t44 -149.5t-69.5 -194.5t-168.5 -143.5l-57 125q27 10 60.5 41t48.5 74q-39 0 -78 45t-39 101t44 104.5t107.5 48.5zM393 0h-266v993h139l88 -145q61 53 149.5 99t168.5 46l53 -213q-68 0 -157 -39t-175 -114v-627z" />
    <glyph glyph-name="Rcaron" unicode="&#x158;" horiz-adv-x="1284" 
d="M590 528h-154v-528h-264v1393h436q227 0 389 -104.5t162 -323.5q0 -129 -66.5 -222.5t-170.5 -144.5l342 -598h-283l-295 532q-46 -4 -96 -4zM600 1171h-164v-426h168q119 0 197 48.5t78 162.5q0 216 -279 215zM221 1849h252l137 -133l135 133h244l-311 -336h-146z" />
    <glyph glyph-name="rcaron" unicode="&#x159;" horiz-adv-x="733" 
d="M393 0h-266v993h139l88 -145q61 53 149.5 99t168.5 46l53 -213q-68 0 -157 -39t-175 -114v-627zM-16 1542h252l137 -133l135 133h244l-316 -336h-139z" />
    <glyph glyph-name="Sacute" unicode="&#x15a;" horiz-adv-x="1130" 
d="M518 209q250 0 250 151q0 70 -83 124t-207 118t-258 165t-134 273t125 278.5t331 106.5t416 -104l-88 -213q-63 31 -137 58.5t-163 27.5t-149.5 -35t-60.5 -109t65 -118t205 -118q140 -73 276 -176.5t136 -275.5t-134 -280.5t-386 -108.5q-88 0 -226 39t-185 80l59 215
q63 -33 161.5 -65.5t186.5 -32.5zM489 1849h275l-195 -336h-202z" />
    <glyph glyph-name="sacute" unicode="&#x15b;" horiz-adv-x="884" 
d="M451 793q-111 0 -111 -74q0 -46 134 -94q134 -47 240.5 -128t106.5 -219t-105.5 -220.5t-307.5 -82.5q-63 0 -169 25t-176 78l80 192q146 -67 240 -67q172 0 172 73q0 82 -162 134q-119 39 -224.5 111.5t-105.5 204.5t104.5 213t283.5 81q63 0 163.5 -26.5t176.5 -78.5
l-80 -190q-149 68 -260 68zM414 1542h276l-196 -336h-203z" />
    <glyph glyph-name="Scedilla" unicode="&#x15e;" horiz-adv-x="1130" 
d="M486 -281q59 0 59 33t-48 59.5t-128 34.5l51 138q-88 14 -181.5 44.5t-127.5 63.5l59 215q63 -33 161.5 -65.5t186.5 -32.5q250 0 250 151q0 70 -83 124t-207 118t-258 165t-134 273t125 278.5t331 106.5t416 -104l-88 -213q-63 31 -137 58.5t-163 27.5t-149.5 -35
t-60.5 -109t65 -118t205 -118q140 -73 276 -175.5t136 -268.5t-111.5 -270t-322.5 -123l-14 -36q59 -25 99 -77t40 -106q0 -109 -79 -160t-177 -51q-41 0 -101.5 15.5t-92.5 42.5l59 155q85 -41 144 -41z" />
    <glyph glyph-name="scedilla" unicode="&#x15f;" horiz-adv-x="884" 
d="M451 793q-111 0 -111 -74q0 -46 134 -94q134 -47 240.5 -128t106.5 -210t-82 -210t-241 -97l-17 -39q59 -25 100.5 -77t41.5 -106q0 -109 -79 -160t-177 -51q-41 0 -102.5 15.5t-94.5 42.5l61 155q79 -41 141 -41t62 33t-49 59.5t-131 34.5l55 140q-159 25 -246 92
l80 192q146 -67 240 -67q172 0 172 73q0 82 -162 134q-119 39 -224.5 111.5t-105.5 204.5t104.5 213t283.5 81q63 0 163.5 -26.5t176.5 -78.5l-80 -190q-149 68 -260 68z" />
    <glyph glyph-name="Scaron" unicode="&#x160;" horiz-adv-x="1130" 
d="M518 209q250 0 250 151q0 70 -83 124t-207 118t-258 165t-134 273t125 278.5t331 106.5t416 -104l-88 -213q-63 31 -137 58.5t-163 27.5t-149.5 -35t-60.5 -109t65 -118t205 -118q140 -73 276 -176.5t136 -275.5t-134 -280.5t-386 -108.5q-88 0 -226 39t-185 80l59 215
q63 -33 161.5 -65.5t186.5 -32.5zM221 1849h252l137 -133l135 133h244l-311 -336h-146z" />
    <glyph glyph-name="scaron" unicode="&#x161;" horiz-adv-x="884" 
d="M451 793q-111 0 -111 -74q0 -46 134 -94q134 -47 240.5 -128t106.5 -219t-105.5 -220.5t-307.5 -82.5q-63 0 -169 25t-176 78l80 192q146 -67 240 -67q172 0 172 73q0 82 -162 134q-119 39 -224.5 111.5t-105.5 204.5t104.5 213t283.5 81q63 0 163.5 -26.5t176.5 -78.5
l-80 -190q-149 68 -260 68zM61 1542h254l138 -133l137 133h239l-311 -336h-143z" />
    <glyph glyph-name="Tcedilla" unicode="&#x162;" horiz-adv-x="1191" 
d="M532 -281q68 0 68 33t-49 59.5t-129 34.5l61 154h-47v1184h-424v209h1127l43 -209h-477v-1184h-31l-23 -59q57 -25 98.5 -77t41.5 -106q0 -109 -79 -160t-180 -51q-39 0 -100 15.5t-94 42.5l61 155q27 -14 69 -27.5t64 -13.5z" />
    <glyph glyph-name="tcedilla" unicode="&#x163;" horiz-adv-x="761" 
d="M546 186q63 0 118 27l77 -193q-67 -54 -176 -59l-8 -20q59 -25 100 -77t41 -106q0 -109 -77.5 -160t-178.5 -51q-41 0 -102 15.5t-94 42.5l61 155q79 -41 141 -41t62 33t-49 59.5t-129 34.5l53 134q-113 33 -176.5 118.5t-63.5 218.5v469h-133v205h133v236l265 47v-283
h180l82 -205h-262v-421q0 -78 36.5 -128.5t99.5 -50.5z" />
    <glyph glyph-name="Tcaron" unicode="&#x164;" horiz-adv-x="1191" 
d="M12 1393h1127l43 -209h-477v-1184h-269v1184h-424v209zM221 1849h252l137 -133l135 133h244l-311 -336h-146z" />
    <glyph glyph-name="tcaron" unicode="&#x165;" horiz-adv-x="1124" 
d="M546 186q63 0 118 27l77 -193q-33 -27 -93 -44t-107 -17q-184 0 -290 93t-106 265v469h-133v205h133v236l265 47v-283h180l82 -205h-262v-421q0 -78 36.5 -128.5t99.5 -50.5zM948.5 1520q63.5 0 108.5 -51t45 -149t-77 -222.5t-194 -190.5l-57 125q51 45 88 85t53 106
q-39 0 -78.5 45t-39.5 99t44 103.5t107.5 49.5z" />
    <glyph glyph-name="Umacron" unicode="&#x16a;" horiz-adv-x="1460" 
d="M428 1393v-867q0 -174 84 -252.5t218 -78.5t217 81.5t83 249.5v867h268v-887q0 -225 -154.5 -377t-416.5 -152t-414.5 152t-152.5 377v887h268zM461 1774h536v-211h-536v211z" />
    <glyph glyph-name="umacron" unicode="&#x16b;" horiz-adv-x="1177" 
d="M385 381q0 -195 180 -195q90 0 217 88v719h267v-993h-140l-75 98q-68 -63 -166.5 -101t-178.5 -38q-203 0 -287.5 120t-84.5 290v624h268v-612zM319 1466h539v-211h-539v211z" />
    <glyph glyph-name="Uring" unicode="&#x16e;" horiz-adv-x="1460" 
d="M428 1393v-867q0 -174 84 -252.5t218 -78.5t217 81.5t83 249.5v867h268v-887q0 -225 -154.5 -377t-416.5 -152t-414.5 152t-152.5 377v887h268zM727 1642q33 0 56.5 25t23.5 57.5t-23.5 56t-56.5 23.5t-57.5 -23.5t-24.5 -56t24.5 -57.5t57.5 -25zM727 1931
q88 0 153.5 -59.5t65.5 -147.5t-65.5 -144t-153.5 -56t-153.5 56t-65.5 144t65.5 147.5t153.5 59.5z" />
    <glyph glyph-name="uring" unicode="&#x16f;" horiz-adv-x="1177" 
d="M385 381q0 -195 180 -195q90 0 217 88v719h267v-993h-140l-75 98q-68 -63 -166.5 -101t-178.5 -38q-203 0 -287.5 120t-84.5 290v624h268v-612zM596 1335q33 0 55.5 24.5t22.5 57.5t-22.5 56.5t-55.5 23.5t-57.5 -23.5t-24.5 -56.5t24.5 -57.5t57.5 -24.5zM595 1624
q89 0 154.5 -59.5t65.5 -147.5t-65.5 -144t-154.5 -56t-154.5 56t-65.5 144t65.5 147.5t154.5 59.5z" />
    <glyph glyph-name="Uhungarumlaut" unicode="&#x170;" horiz-adv-x="1460" 
d="M428 1393v-867q0 -174 84 -252.5t218 -78.5t217 81.5t83 249.5v867h268v-887q0 -225 -154.5 -377t-416.5 -152t-414.5 152t-152.5 377v887h268zM545 1849h252l-195 -336h-180zM928 1849h254l-197 -336h-180z" />
    <glyph glyph-name="uhungarumlaut" unicode="&#x171;" horiz-adv-x="1177" 
d="M385 381q0 -195 180 -195q90 0 217 88v719h267v-993h-140l-75 98q-68 -63 -166.5 -101t-178.5 -38q-203 0 -287.5 120t-84.5 290v624h268v-612zM432 1542h252l-195 -336h-182zM815 1542h252l-195 -336h-182z" />
    <glyph glyph-name="Uogonek" unicode="&#x172;" horiz-adv-x="1460" 
d="M625 -200q0 87 53 180q-238 14 -378 162.5t-140 363.5v887h268v-867q0 -174 84 -252.5t218 -78.5t217 81.5t83 249.5v867h268v-887q0 -178 -96 -311.5t-266 -186.5q-29 -27 -58.5 -81t-29.5 -87q0 -67 63 -67q37 0 84 34l76 -163q-90 -68 -203 -68q-112 0 -177.5 68.5
t-65.5 155.5z" />
    <glyph glyph-name="uogonek" unicode="&#x173;" horiz-adv-x="1177" 
d="M385 381q0 -195 180 -195q90 0 217 88v719h267v-993q-82 -88 -82 -170q0 -23 15 -40t50 -17t82 34l76 -163q-90 -68 -203 -68q-112 0 -178 68.5t-66 156.5t38 155t79 107l-26 35q-68 -63 -166.5 -101t-178.5 -38q-203 0 -287.5 120t-84.5 290v624h268v-612z" />
    <glyph glyph-name="Ydieresis" unicode="&#x178;" horiz-adv-x="1239" 
d="M479 0v543l-467 815l275 35l323 -582l338 582h281l-484 -861v-532h-266zM817 1806q55 0 93 -38.5t38 -94t-38 -93.5t-93 -38t-95 38t-40 93.5t40 94t95 38.5zM425 1806q56 0 93 -38.5t37 -94t-37 -93.5t-93 -38t-95 38t-39 93.5t39 94t95 38.5z" />
    <glyph glyph-name="Zacute" unicode="&#x179;" horiz-adv-x="1185" 
d="M1137 1184l-818 -977h803l31 -207h-1090l-30 207l794 977h-704l-31 209h1014zM516 1849h275l-195 -336h-203z" />
    <glyph glyph-name="zacute" unicode="&#x17a;" horiz-adv-x="919" 
d="M866 864l-479 -649h479l21 -215h-819l-35 141l473 656h-397l-52 219h795zM479 1542h275l-197 -336h-203z" />
    <glyph glyph-name="Zdotaccent" unicode="&#x17b;" horiz-adv-x="1185" 
d="M1137 1184l-818 -977h803l31 -207h-1090l-30 207l794 977h-704l-31 209h1014zM593.5 1825q63.5 0 105.5 -44t42 -107.5t-42 -106.5t-105.5 -43t-107.5 43t-44 106.5t44 107.5t107.5 44z" />
    <glyph glyph-name="zdotaccent" unicode="&#x17c;" horiz-adv-x="919" 
d="M866 864l-479 -649h479l21 -215h-819l-35 141l473 656h-397l-52 219h795zM505.5 1518q63.5 0 107.5 -44t44 -107.5t-44 -106.5t-107.5 -43t-107.5 43t-44 106.5t44 107.5t107.5 44z" />
    <glyph glyph-name="Zcaron" unicode="&#x17d;" horiz-adv-x="1185" 
d="M1137 1184l-818 -977h803l31 -207h-1090l-30 207l794 977h-704l-31 209h1014zM209 1849h252l137 -133l135 133h244l-311 -336h-146z" />
    <glyph glyph-name="zcaron" unicode="&#x17e;" horiz-adv-x="919" 
d="M866 864l-479 -649h479l21 -215h-819l-35 141l473 656h-397l-52 219h795zM104 1542h252l138 -133l137 133h243l-313 -336h-143z" />
    <glyph glyph-name="florin" unicode="&#x192;" horiz-adv-x="761" 
d="M552 1208q-57 0 -88.5 -50t-31.5 -128v-57h189l84 -207h-273v-653q0 -168 -101.5 -266.5t-285.5 -98.5q-47 0 -107.5 17.5t-93.5 44.5l76 190q159 -66 202.5 4t43.5 146v616h-154v207h154v94q0 172 101.5 271.5t285.5 99.5q47 0 106.5 -18.5t92.5 -45.5l-76 -192
q-67 26 -124 26z" />
    <glyph glyph-name="Scommaaccent" unicode="&#x218;" horiz-adv-x="1130" 
d="M520.5 -43q63.5 0 107.5 -51.5t44 -149.5t-70 -194.5t-166 -143.5l-57 125q27 10 59.5 41t46.5 74q-37 0 -75.5 45t-38.5 101t43 104.5t106.5 48.5zM518 209q250 0 250 151q0 70 -83 124t-207 118t-258 165t-134 273t125 278.5t331 106.5t416 -104l-88 -213
q-63 31 -137 58.5t-163 27.5t-149.5 -35t-60.5 -109t73 -123.5t204 -116.5t268 -171.5t137 -276.5t-134 -280.5t-386 -108.5q-88 0 -226 39t-185 80l59 215q63 -33 161.5 -65.5t186.5 -32.5z" />
    <glyph glyph-name="scommaaccent" unicode="&#x219;" horiz-adv-x="884" 
d="M425 -43q62 0 108.5 -51.5t46.5 -149.5t-71 -194.5t-167 -143.5l-57 125q27 10 59.5 41t44.5 74q-35 0 -75 45t-40 101t44.5 104.5t106.5 48.5zM451 793q-111 0 -111 -74q0 -46 134 -94q134 -47 240.5 -128t106.5 -219t-105.5 -220.5t-307.5 -82.5q-63 0 -169 25t-176 78
l80 192q146 -67 240 -67q172 0 172 73q0 82 -162 134q-119 39 -224.5 111.5t-105.5 204.5t104.5 213t283.5 81q63 0 163.5 -26.5t176.5 -78.5l-80 -190q-149 68 -260 68z" />
    <glyph glyph-name="uni021A" unicode="&#x21a;" horiz-adv-x="1191" 
d="M575.5 -43q63.5 0 108.5 -51.5t45 -149.5t-69.5 -194.5t-170.5 -143.5l-55 125q27 10 59.5 41t47.5 74q-37 0 -77 45t-40 101t44 104.5t107.5 48.5zM12 1393h1127l43 -209h-477v-1184h-269v1184h-424v209z" />
    <glyph glyph-name="uni021B" unicode="&#x21b;" horiz-adv-x="761" 
d="M482 -43q62 0 107.5 -51.5t45.5 -149.5t-69.5 -194.5t-168.5 -143.5l-57 125q27 10 60.5 41t48.5 74q-37 0 -77 45t-40 101t44 104.5t106 48.5zM546 186q63 0 118 27l77 -193q-33 -27 -93 -44t-107 -17q-184 0 -290 93t-106 265v469h-133v205h133v236l265 47v-283h180
l82 -205h-262v-421q0 -78 36.5 -128.5t99.5 -50.5z" />
    <glyph glyph-name="circumflex" unicode="&#x2c6;" horiz-adv-x="831" 
d="M285 1206h-252l311 336h145l312 -336h-244l-135 133z" />
    <glyph glyph-name="caron" unicode="&#x2c7;" horiz-adv-x="831" 
d="M33 1542h252l137 -133l135 133h244l-312 -336h-145z" />
    <glyph glyph-name="uni02C9" unicode="&#x2c9;" horiz-adv-x="600" 
d="M33 1466h536v-211h-536v211z" />
    <glyph glyph-name="breve" unicode="&#x2d8;" horiz-adv-x="667" 
d="M635 1542q0 -129 -73.5 -231.5t-227.5 -102.5t-227.5 102.5t-73.5 231.5h182q0 -53 25.5 -99t92.5 -46t95.5 46t28.5 99h178z" />
    <glyph glyph-name="dotaccent" unicode="&#x2d9;" horiz-adv-x="366" 
d="M184.5 1518q63.5 0 105.5 -44t42 -107.5t-42 -106.5t-105.5 -43t-107.5 43t-44 106.5t44 107.5t107.5 44z" />
    <glyph glyph-name="ring" unicode="&#x2da;" horiz-adv-x="503" 
d="M252 1335q33 0 56.5 24.5t23.5 57.5t-23.5 56.5t-56.5 23.5t-57.5 -23.5t-24.5 -56.5t24.5 -57.5t57.5 -24.5zM252 1624q88 0 153.5 -59.5t65.5 -147.5t-65.5 -144t-153.5 -56t-153.5 56t-65.5 144t65.5 147.5t153.5 59.5z" />
    <glyph glyph-name="ogonek" unicode="&#x2db;" horiz-adv-x="512" 
d="M276 -424q-112 0 -177.5 68.5t-65.5 162.5q0 45 25.5 108.5t52.5 94.5h235q-29 -27 -59.5 -82t-30.5 -88q0 -67 63 -67q37 0 84 34l76 -163q-91 -68 -203 -68z" />
    <glyph glyph-name="tilde" unicode="&#x2dc;" horiz-adv-x="737" 
d="M211 1229h-176q0 137 68.5 191.5t147.5 54.5t127 -36t88 -36t56.5 19.5t16.5 43.5h166q0 -139 -69 -193t-148 -54t-121.5 36.5t-82.5 36.5t-56.5 -21.5t-16.5 -41.5z" />
    <glyph glyph-name="hungarumlaut" unicode="&#x2dd;" horiz-adv-x="823" 
d="M156 1542h252l-195 -336h-180zM539 1542h254l-197 -336h-180z" />
    <glyph glyph-name="pi" unicode="&#x3c0;" horiz-adv-x="1476" 
d="M942 0v786h-407v-786h-265v786h-194v207h1327v-207h-195v-786h-266z" />
    <glyph glyph-name="dv_CandrabinduInverted" unicode="&#x900;" horiz-adv-x="0" 
d="M531 1546q-67 0 -112.5 48t-45.5 115t46 113t112.5 46t113.5 -46t47 -113t-47 -115t-114 -48zM533 1960q-71 0 -160.5 -45t-136.5 -146l-201 125q86 168 220 229.5t277.5 61.5t277.5 -61.5t220 -229.5l-199 -125q-59 111 -143 151t-155 40z" />
    <glyph glyph-name="dv_Candrabindu" unicode="&#x901;" horiz-adv-x="0" 
d="M532.5 1546q-143.5 0 -277.5 61.5t-220 229.5l201 125q47 -100 137 -146.5t160.5 -46.5t154.5 41t143 152l199 -125q-86 -170 -220 -230.5t-277.5 -60.5zM531 1862q-67 0 -112.5 47t-45.5 113.5t46 114.5t112.5 48t113.5 -48t47 -115t-47 -113.5t-114 -46.5z" />
    <glyph glyph-name="dv_Anusvara" unicode="&#x902;" horiz-adv-x="0" 
d="M195 1579q-68 0 -114 47t-46 114t46 114t114 47t113.5 -47.5t45.5 -114t-45.5 -113.5t-113.5 -47z" />
    <glyph glyph-name="dv_Visarga" unicode="&#x903;" horiz-adv-x="436" 
d="M217.5 78q-67.5 0 -114 45t-46.5 111t46.5 114.5t114 48.5t114.5 -48.5t47 -114.5t-47 -111t-114.5 -45zM217.5 784q-67.5 0 -114 46.5t-46.5 111.5t46.5 112.5t114 47.5t114.5 -47t47 -113t-47 -112t-114.5 -46z" />
    <glyph glyph-name="dv_ShortA" unicode="&#x904;" horiz-adv-x="1984" 
d="M610.5 1432q241.5 0 360.5 -121t119 -279q0 -53 -29 -110.5t-70 -96.5h502v340h-190l-35 232h239q0 63 -33.5 98t-101.5 35h-137q-174 2 -280.5 81t-106.5 204v88l254 -35q0 -63 37 -86t98 -23h149q154 0 272 -82t118 -204v-80h198l33 -228h-227v-1198l-287 33v612h-473
q47 -35 71.5 -94t24.5 -119q0 -184 -144.5 -307t-383.5 -123q-123 0 -246 33t-215 84l51 233q191 -114 391 -114q98 0 177 48t79 145t-66.5 157.5t-244.5 60.5h-195l-30 209h237q137 0 204 60.5t67 134t-55.5 125t-151.5 51.5q-200 0 -400 -137l-38 239q217 134 458.5 134z
" />
    <glyph glyph-name="dv_A" unicode="&#x905;" horiz-adv-x="1984" 
d="M610.5 1432q241.5 0 360.5 -121t119 -279q0 -53 -29 -110.5t-70 -96.5h502v340h-190l-35 228h706l33 -228h-227v-1198l-287 33v612h-473q47 -35 71.5 -94t24.5 -119q0 -184 -144.5 -307t-383.5 -123q-123 0 -246 33t-215 84l51 233q191 -114 391 -114q98 0 177 48t79 145
t-66.5 157.5t-244.5 60.5h-195l-30 209h237q137 0 204 60.5t67 134t-55.5 125t-151.5 51.5q-200 0 -400 -137l-38 239q217 134 458.5 134z" />
    <glyph glyph-name="dv_Aa" unicode="&#x906;" horiz-adv-x="2666" 
d="M610.5 1432q241.5 0 360.5 -121t119 -279q0 -53 -29 -110.5t-70 -96.5h502v340h-190l-35 228h1386l35 -228h-225v-1198l-291 33v1165h-393v-1198l-287 33v612h-473q47 -35 71.5 -94t24.5 -119q0 -184 -144.5 -307t-383.5 -123q-123 0 -246 33t-215 84l51 233
q191 -114 391 -114q98 0 177 48t79 145t-66.5 157.5t-244.5 60.5h-195l-30 209h237q137 0 204 60.5t67 134t-55.5 125t-151.5 51.5q-200 0 -400 -137l-38 239q217 134 458.5 134z" />
    <glyph glyph-name="dv_I" unicode="&#x907;" horiz-adv-x="1157" 
d="M104 226.5q0 72.5 40 109.5t110 37t134.5 -48.5t90.5 -113.5q60 -6 122 -5t114.5 38t52.5 84q0 108 -121 108h-188q-133 0 -245 86t-112 237t102.5 232.5t252.5 81.5h200v92h-657l-23 228h1180l23 -228h-240v-334h-475q-43 0 -67.5 -22.5t-24.5 -53t27.5 -55t68.5 -24.5
h162q184 0 308 -81t124 -263q0 -139 -125 -249t-340 -118l139 -174l-190 -135l-256 344q-63 31 -125 92.5t-62 134z" />
    <glyph glyph-name="dv_Ii" unicode="&#x908;" horiz-adv-x="1157" 
d="M797 1599q0 -104 86 -206h274l23 -228h-240v-334h-475q-43 0 -67.5 -22.5t-24.5 -53t27.5 -55t68.5 -24.5h162q184 0 308 -81t124 -263q0 -139 -125 -249t-340 -118l139 -174l-190 -135l-256 344q-63 31 -125 92.5t-62 134t40 109.5t110 37t134.5 -48.5t90.5 -113.5
q60 -6 122 -5t114.5 38t52.5 84q0 108 -121 108h-188q-133 0 -245 86t-112 237t102.5 232.5t252.5 81.5h200v92h-657l-23 228h633q-35 47 -55 115.5t-20 127.5q0 125 92 225.5t239 100.5q90 0 166 -38t109 -77l-111 -188q-27 25 -54.5 43t-73.5 18t-75.5 -37.5t-29.5 -83.5z
" />
    <glyph glyph-name="dv_U" unicode="&#x909;" horiz-adv-x="1257" 
d="M1079 1021.5q0 -81.5 -52 -177.5t-161 -133q111 -23 175.5 -115t64.5 -197q0 -184 -146.5 -307t-384.5 -123q-121 0 -243.5 33t-214.5 84l53 233q187 -114 387 -114q100 0 178 48t78 145t-67.5 157.5t-243.5 60.5h-195l-28 209h237q135 0 202.5 60.5t67.5 147t-86 132.5
h-688l-35 228h1268l35 -228h-225q24 -62 24 -143.5z" />
    <glyph glyph-name="dv_Uu" unicode="&#x90a;" horiz-adv-x="1824" 
d="M1077 1021.5q0 -81.5 -52 -177.5t-159 -133q50 -11 101 -45q53 47 141 89t195 42q215 0 327.5 -120t112.5 -310.5t-137.5 -299t-331.5 -108.5l-53 236q121 0 185 51t64 132t-47 131t-126 50t-124 -28.5t-77 -65.5q8 -28 8 -66q0 -184 -145.5 -307t-385.5 -123
q-119 0 -241.5 33t-216.5 84l53 233q187 -114 389 -114q98 0 176 48t78 145t-66.5 157.5t-244.5 60.5h-193l-31 209h238q135 0 203.5 60.5t68.5 146.5t-88 133h-686l-35 228h1835l35 -228h-794q24 -62 24 -143.5z" />
    <glyph glyph-name="dv_VocalicR" unicode="&#x90b;" horiz-adv-x="1861" 
d="M406 741q-54 0 -232 -75l-111 243q70 33 177.5 59.5t165 26.5t142.5 -13t185 -79v262h-721l-35 228h1874l33 -228h-860v-422q66 6 158 29t116 47q-32 57 -32 126t45 102.5t112.5 33.5t142 -52t74.5 -125.5t-30 -106.5q82 -104 120.5 -207t38.5 -176q0 -166 -103 -247
t-252.5 -81t-246.5 39l66 225q74 -23 100.5 -27t73.5 -4t79 27t32 68q0 101 -78 217q-55 -49 -192.5 -83t-223.5 -36v-545l-291 33v356l-407 -254l-158 217l496 304q-135 118 -258 118z" />
    <glyph glyph-name="dv_VocalicL" unicode="&#x90c;" horiz-adv-x="1755" 
d="M1114 1030q84 0 148 -35v170h-1250l-35 228h1766l35 -228h-228v-1067h-155q-51 0 -82 -28.5t-31 -69.5t30.5 -69.5t89.5 -28.5t148 28l47 -227q-95 -27 -223.5 -27t-230 85t-101.5 239q0 117 63.5 195.5t156.5 111.5v330q-12 70 -53.5 113t-104 43t-104.5 -61.5
t-42 -158.5v-303l-258 27v276q0 213 -174 213q-74 0 -119 -45t-45 -121.5t49.5 -204.5t178.5 -386l-230 -78q-127 242 -190.5 394.5t-63.5 303.5t125 266t301.5 115t292.5 -108q104 108 289 108z" />
    <glyph glyph-name="dv_CandraE" unicode="&#x90d;" horiz-adv-x="1507" 
d="M1016 565v600h-527v-819q0 -51 14.5 -97t69.5 -79l512 -322l-141 -215l-528 312q-109 63 -163 150t-54 224v846h-187l-35 228h1522l33 -228h-227v-641q0 -152 -95.5 -243t-294.5 -154l-122 215q119 41 171 86t52 137zM763 1550q-142 0 -276.5 60.5t-222.5 230.5l201 123
q47 -100 137 -145t161 -45t155 40.5t145 149.5l199 -123q-86 -172 -221.5 -231.5t-277.5 -59.5z" />
    <glyph glyph-name="dv_ShortE" unicode="&#x90e;" horiz-adv-x="1507" 
d="M1016 565v600h-527v-819q0 -51 14.5 -97t69.5 -79l512 -322l-141 -215l-528 312q-109 63 -163 150t-54 224v846h-187l-35 232h1035q0 63 -35 98t-100 35h-295q-176 0 -282.5 80t-106.5 205v88l256 -35q0 -63 36.5 -86t100.5 -23h305q154 0 270.5 -82t116.5 -204v-80h221
l33 -228h-227v-641q0 -152 -95.5 -243t-294.5 -154l-122 215q117 41 170 85t53 138z" />
    <glyph glyph-name="dv_E" unicode="&#x90f;" horiz-adv-x="1507" 
d="M1016 565v600h-527v-819q0 -51 14.5 -97t69.5 -79l512 -322l-141 -215l-528 312q-109 63 -163 150t-54 224v846h-187l-35 228h1522l33 -228h-227v-641q0 -152 -95.5 -243t-294.5 -154l-122 215q119 41 171 86t52 137z" />
    <glyph glyph-name="dv_Ai" unicode="&#x910;" horiz-adv-x="1507" 
d="M1016 565v600h-527v-819q0 -51 14.5 -97t69.5 -79l512 -322l-141 -215l-528 312q-109 63 -163 150t-54 224v846h-187l-35 228h943l-455 417l209 166l590 -583h235l33 -228h-227v-641q0 -152 -95.5 -243t-294.5 -154l-122 215q119 41 171 86t52 137z" />
    <glyph glyph-name="dv_CandraO" unicode="&#x911;" horiz-adv-x="2666" 
d="M610.5 1432q241.5 0 360.5 -121t119 -279q0 -53 -29 -110.5t-70 -96.5h502v340h-190l-35 228h1386l35 -228h-225v-1198l-291 33v1165h-393v-1198l-287 33v612h-473q47 -35 71.5 -94t24.5 -119q0 -184 -144.5 -307t-383.5 -123q-123 0 -246 33t-215 84l51 233
q191 -114 391 -114q98 0 177 48t79 145t-66.5 157.5t-244.5 60.5h-195l-30 209h237q137 0 204 60.5t67 134t-55.5 125t-151.5 51.5q-200 0 -400 -137l-38 239q217 134 458.5 134zM1984.5 1550q-143.5 0 -277.5 60.5t-220 230.5l199 123q49 -100 139 -145t159.5 -45
t154.5 40.5t142 149.5l201 -123q-86 -172 -220 -231.5t-277.5 -59.5z" />
    <glyph glyph-name="dv_ShortO" unicode="&#x912;" horiz-adv-x="2666" 
d="M610.5 1432q241.5 0 360.5 -121t119 -279q0 -53 -29 -110.5t-70 -96.5h502v340h-190l-35 232h909q0 63 -34 98t-101 35h-250q-174 0 -281.5 80t-107.5 205v88l258 -35q0 -63 36 -86t97 -23h262q154 0 270.5 -82t116.5 -204v-80h211l35 -228h-225v-1198l-291 33v1165h-393
v-1198l-287 33v612h-473q47 -35 71.5 -94t24.5 -119q0 -184 -144.5 -307t-383.5 -123q-123 0 -246 33t-215 84l51 233q191 -114 391 -114q98 0 177 48t79 145t-66.5 157.5t-244.5 60.5h-195l-30 209h237q137 0 204 60.5t67 134t-55.5 125t-151.5 51.5q-200 0 -400 -137
l-38 239q217 134 458.5 134z" />
    <glyph glyph-name="dv_O" unicode="&#x913;" horiz-adv-x="2666" 
d="M610.5 1432q241.5 0 360.5 -121t119 -279q0 -53 -29 -110.5t-70 -96.5h502v340h-190l-35 228h807l-453 417l209 166l590 -583h233l35 -228h-225v-1198l-291 33v1165h-393v-1198l-287 33v612h-473q47 -35 71.5 -94t24.5 -119q0 -184 -144.5 -307t-383.5 -123
q-123 0 -246 33t-215 84l51 233q191 -114 391 -114q98 0 177 48t79 145t-66.5 157.5t-244.5 60.5h-195l-30 209h237q137 0 204 60.5t67 134t-55.5 125t-151.5 51.5q-200 0 -400 -137l-38 239q217 134 458.5 134z" />
    <glyph glyph-name="dv_Au" unicode="&#x914;" horiz-adv-x="2666" 
d="M610.5 1432q241.5 0 360.5 -121t119 -279q0 -53 -29 -110.5t-70 -96.5h502v340h-190l-35 228h886q-61 61 -112 88.5t-158 27.5h-205l-55 246h248q63 0 116.5 -5t106.5 -32l-96 291l264 74l158 -690h233l35 -228h-225v-1198l-291 33v1165h-393v-1198l-287 33v612h-473
q47 -35 71.5 -94t24.5 -119q0 -184 -144.5 -307t-383.5 -123q-123 0 -246 33t-215 84l51 233q191 -114 391 -114q98 0 177 48t79 145t-66.5 157.5t-244.5 60.5h-195l-30 209h237q137 0 204 60.5t67 134t-55.5 125t-151.5 51.5q-200 0 -400 -137l-38 239q217 134 458.5 134z
" />
    <glyph glyph-name="dv_Ka" unicode="&#x915;" horiz-adv-x="1851" 
d="M354 569q0 -92 69 -150.5t147.5 -58.5t134 34t83.5 77v195q-29 45 -84 78.5t-134 33.5t-147.5 -58.5t-68.5 -150.5zM559 121q-213 0 -345 129t-132 319.5t132 319.5t345 129q53 0 127 -23.5t102 -56.5v227h-776l-35 228h1864l33 -228h-797v-221q29 27 97.5 51.5
t123.5 24.5q217 0 349.5 -130t132.5 -330t-156 -319.5t-350 -119.5l-47 239q119 0 198.5 58.5t79.5 151.5t-59.5 151.5t-147.5 58.5q-142 0 -221 -116v-697l-289 33v203q-29 -33 -102.5 -57.5t-126.5 -24.5z" />
    <glyph glyph-name="dv_Kha" unicode="&#x916;" horiz-adv-x="1961" 
d="M522 948q0 132 -65 217h-445l-35 228h1975l33 -228h-228v-1198l-289 33v135q-104 -82 -241 -127t-281 -45q-315 0 -495.5 169t-227.5 355l-53 2q-47 2 -81 25t-40 61q0 96 90 192.5t183 96.5q33 0 59.5 -35.5t40.5 -76.5q39 25 69.5 80t30.5 116zM1466 665
q0 75 -44 114.5t-96 39.5t-95 -41t-43 -115.5t44 -114.5t96 -40t95 41t43 116zM786 932q0 -125 -78.5 -241t-205.5 -169q33 -96 137 -206.5t307 -112.5q139 0 277 69q-150 29 -239 136.5t-89 266.5t119 274.5t313 115.5q80 0 141 -21v121h-716q34 -108 34 -233z" />
    <glyph glyph-name="dv_Ga" unicode="&#x917;" horiz-adv-x="1431" 
d="M938 1165h-387v-729q0 -70 -31 -110.5t-88 -40.5q-117 0 -214 99t-97 206q0 39 47 64.5t92 25.5v485h-248l-35 228h1442l33 -228h-225v-1198l-289 33v1165z" />
    <glyph glyph-name="dv_Gha" unicode="&#x918;" horiz-adv-x="1462" 
d="M422 1074.5q0 -60.5 48 -103.5t134 -43h101l40 -223h-127q-100 0 -152 -47t-52 -117t52 -109t128 -39q135 0 241.5 90t133.5 254v428h-508q-39 -30 -39 -90.5zM150 1061q0 53 14 104h-152l-35 228h1473l35 -228h-225v-1198l-291 33v274q-66 -49 -167.5 -91t-211.5 -42
q-211 0 -337 109.5t-126 294t119 280.5q-45 45 -70.5 114t-25.5 122z" />
    <glyph glyph-name="dv_Nga" unicode="&#x919;" horiz-adv-x="1368" 
d="M920 1165v-334h-463q-43 0 -69 -22.5t-26 -53t28 -55t69 -24.5h151q184 0 307 -81t123 -263q0 -139 -123.5 -251t-357.5 -112q-119 0 -240.5 28t-212.5 79l50 233q102 -63 193 -83.5t192.5 -20.5t154 38t52.5 85t-27 77.5t-94 30.5h-176q-133 0 -246 86t-113 237
t102.5 232.5t251.5 81.5h216v92h-650l-35 228h1379l35 -228h-471zM1206.5 575q-67.5 0 -113.5 47.5t-46 113t46 112.5t113.5 47t114.5 -47t47 -112.5t-47 -113t-114.5 -47.5z" />
    <glyph glyph-name="dv_Ca" unicode="&#x91a;" horiz-adv-x="1486" 
d="M743 137q-199 0 -346 106.5t-147 311.5q0 98 43 178h-191l-32 225h714l33 -225h-65q-121 0 -180.5 -48t-59.5 -130t68.5 -131t153.5 -49t163 42t98 105v643h-983l-35 228h1498l34 -228h-227v-1198l-287 33v184q-115 -47 -252 -47z" />
    <glyph glyph-name="dv_Cha" unicode="&#x91b;" horiz-adv-x="1693" 
d="M756 616q-314 0 -314 -206q0 -94 89.5 -149.5t220.5 -55.5q195 0 333 98.5t195 204.5q-111 12 -184.5 90t-73.5 181.5t47 168t119 90.5v127h-633q-84 -50 -84 -134.5t66.5 -145t201.5 -60.5h41l29 -209h-53zM178 1026q0 86 23 139h-189l-35 228h1706l35 -228h-291v-135
q92 -41 131 -125t39 -155q0 -254 -221 -517.5t-641 -263.5q-268 0 -426.5 117t-158.5 313q0 104 65.5 196.5t173.5 115.5q-106 37 -158.5 133t-52.5 182z" />
    <glyph glyph-name="dv_Ja" unicode="&#x91c;" horiz-adv-x="1671" 
d="M705 545q0 82 -44.5 135t-154.5 53h-127l-33 225h836v207h-1170l-35 228h1686l35 -228h-230v-1198l-286 33v733h-238q31 -96 31 -170q0 -244 -158 -350.5t-342 -106.5q-125 0 -241.5 45.5t-198.5 98.5l51 260q211 -164 379 -164q111 0 175.5 58.5t64.5 140.5z" />
    <glyph glyph-name="dv_Jha" unicode="&#x91d;" horiz-adv-x="1828" 
d="M104 226.5q0 72.5 40 109.5t110 37t134.5 -48.5t90.5 -113.5q60 -6 122 -5t114.5 38t52.5 84q0 108 -121 108h-188q-133 0 -245 86t-112 237t102.5 232.5t252.5 81.5h200v92h-645l-35 228h1842l34 -228h-227v-1198l-291 33v348h-274l2 -16q0 -139 -125 -249t-340 -118
l139 -174l-190 -135l-256 344q-63 31 -125 92.5t-62 134zM631 676q237 0 350 -117h354v606h-395v-334h-475q-43 0 -67.5 -22.5t-24.5 -53t27.5 -55t68.5 -24.5h162z" />
    <glyph glyph-name="dv_Nya" unicode="&#x91e;" horiz-adv-x="1646" 
d="M482 1044q165 0 290 -88t162 -260h219v469h-1141l-35 228h1659l33 -228h-229v-1198l-287 33v465h-223q-35 -166 -160 -250q-124 -84 -272 -84q-249 0 -463 143l51 258q74 -72 174 -116.5t199.5 -44.5t162 59t62.5 156.5t-61.5 158t-156 60.5t-224.5 -33l-64 223
q139 49 304 49z" />
    <glyph glyph-name="dv_Tta" unicode="&#x91f;" horiz-adv-x="1331" 
d="M375 494q0 -164 120.5 -225.5t233.5 -61.5t219.5 23.5t222.5 111.5l39 -262q-92 -57 -215 -87t-243 -30q-242 0 -440 123q-198 122 -198.5 396t199 408t467.5 134v141h-768l-35 228h1344l33 -228h-285v-381h-295q-166 0 -282.5 -80.5t-116.5 -209.5z" />
    <glyph glyph-name="dv_Ttha" unicode="&#x920;" horiz-adv-x="1466" 
d="M1102 494q0 164 -115 222t-264.5 58t-248.5 -78t-99 -207q0 -164 115.5 -223t264 -59t248 78t99.5 209zM748 -37q-251 0 -443 121t-192 405q0 225 137 355.5t346 163.5v157h-584l-35 228h1479l35 -228h-604v-159q197 -31 339 -152t142 -371.5t-184.5 -385t-435.5 -134.5z
" />
    <glyph glyph-name="dv_Dda" unicode="&#x921;" horiz-adv-x="1103" 
d="M920 1165v-334h-463q-43 0 -69 -22.5t-26 -53t28 -55t69 -24.5h151q184 0 307 -81t123 -263q0 -139 -123.5 -251t-357.5 -112q-119 0 -240.5 28t-212.5 79l50 233q102 -63 193 -83.5t192.5 -20.5t154 38t52.5 85t-27 77.5t-94 30.5h-176q-133 0 -246 86t-113 237
t102.5 232.5t251.5 81.5h216v92h-650l-35 228h1115l36 -228h-208z" />
    <glyph glyph-name="dv_Ddha" unicode="&#x922;" horiz-adv-x="1306" 
d="M739 -37q-220 0 -423 119t-203 420q0 262 199.5 400t467.5 138v125h-768l-35 228h1321l33 -228h-260v-366h-297q-166 0 -282.5 -77t-116.5 -215t87 -229.5t240 -91.5q-18 20 -22 53t-4 99t67.5 147.5t190.5 81.5t203 -69.5t80 -180.5q0 -160 -129 -257t-349 -97z" />
    <glyph glyph-name="dv_Nna" unicode="&#x923;" horiz-adv-x="1945" 
d="M469 723q0 -100 47 -152.5t128 -52.5t128 52.5t47 152.5v442h-350v-442zM1452 1165h-342v-442q0 -213 -135 -330t-329.5 -117t-331 117t-136.5 330v442h-166l-35 228h1958l35 -228h-229v-1198l-289 33v1165z" />
    <glyph glyph-name="dv_Ta" unicode="&#x924;" horiz-adv-x="1417" 
d="M582 737q-189 0 -189 -133q0 -86 81 -225t216 -348l-260 -76q-104 152 -211.5 331t-107.5 329.5t99 252t284 101.5h432v196h-914l-35 228h1430l33 -228h-226v-1198l-288 33v737h-344z" />
    <glyph glyph-name="dv_Tha" unicode="&#x925;" horiz-adv-x="1466" 
d="M973 1165h-187l-34 228h702l35 -228h-225v-1198l-291 33v367q-47 -23 -104.5 -40.5t-155.5 -17.5q-190 0 -349 129t-159 299l55 72q56 16 140.5 67.5t84.5 161.5q-8 -33 -54 -56.5t-120.5 -23.5t-146.5 57.5t-72 164.5t83 179.5t217 72.5t232.5 -105.5t98.5 -269.5
t-74 -251t-160 -138q87 -117 234 -117q88 0 161.5 49t88.5 133v432z" />
    <glyph glyph-name="dv_Da" unicode="&#x926;" horiz-adv-x="1288" 
d="M686 127q-268 0 -430 120t-162 360.5t178.5 348t442.5 107.5v102h-703l-35 228h1301l33 -228h-305v-331h-297q-154 0 -253.5 -57.5t-99.5 -171.5t94.5 -174t235.5 -60q30 0 72 4l-2 33q0 70 41 111.5t113.5 41.5t148.5 -50t76 -127t-62 -153q81 -139 139 -233l-229 -86
l-127 235q-122 -20 -170 -20z" />
    <glyph glyph-name="dv_Dha" unicode="&#x927;" horiz-adv-x="1564" 
d="M422 1056q0 -50 48 -89t134 -39h66l75 -223h-127q-100 0 -158.5 -42t-58.5 -117t64.5 -118t181.5 -43q158 0 291 121t133 332v327h-190l-33 228h706l33 -228h-227v-1198l-289 33v285q-63 -53 -167.5 -105.5t-260.5 -52.5q-274 0 -400 127t-126 293q0 86 46 166t107 112
q-51 35 -85.5 109t-34.5 143q0 133 103 238.5t271 105.5q100 0 164 -35.5t105 -74.5l-138 -187q-51 45 -106.5 45t-91 -31.5t-35.5 -81.5z" />
    <glyph glyph-name="dv_Na" unicode="&#x928;" horiz-adv-x="1363" 
d="M63 664q0 57 40 87.5t110 30.5h657v383h-858l-35 228h1377l32 -228h-227v-1198l-289 33v555h-411q0 -45 -19.5 -93t-60.5 -59l-21 -2q-88 0 -191.5 75t-103.5 188z" />
    <glyph glyph-name="dv_Nnna" unicode="&#x929;" horiz-adv-x="1363" 
d="M380 -160q-67 0 -113 47t-46 113t46 113t113 47t114 -47t47 -113t-47 -113t-114 -47zM63 664q0 57 40 87.5t110 30.5h657v383h-858l-35 228h1377l32 -228h-227v-1198l-289 33v555h-411q0 -45 -19.5 -93t-60.5 -59l-21 -2q-88 0 -191.5 75t-103.5 188z" />
    <glyph glyph-name="dv_Pa" unicode="&#x92a;" horiz-adv-x="1392" 
d="M442 766q0 -100 57.5 -157.5t154 -57.5t164 48t81.5 130v436h-457v-399zM651 309q-205 0 -352 122t-147 335v399h-140l-35 228h1403l35 -228h-227v-1198l-289 33v367q-45 -23 -117.5 -40.5t-130.5 -17.5z" />
    <glyph glyph-name="dv_Pha" unicode="&#x92b;" horiz-adv-x="1961" 
d="M651 309q-205 0 -352 122t-147 335v399h-140l-35 228h1975l35 -228h-799v-211q41 29 106.5 47.5t116.5 18.5q215 0 348 -130t133 -330t-155.5 -319.5t-352.5 -119.5l-47 239q121 0 201 58.5t80 151.5t-59.5 151.5t-148.5 58.5t-140 -36.5t-82 -79.5v-697l-289 33v367
q-45 -23 -117.5 -40.5t-130.5 -17.5zM442 766q0 -100 57.5 -157.5t154 -57.5t164 48t81.5 130v436h-457v-399z" />
    <glyph glyph-name="dv_Ba" unicode="&#x92c;" horiz-adv-x="1302" 
d="M354 559.5q0 -82.5 64.5 -144t142.5 -61.5t125 19l-289 327q-43 -58 -43 -140.5zM565 788q-40 0 -61 -12l282 -319q10 10 13 20v187q-29 45 -84.5 84.5t-149.5 39.5zM571 117q-213 0 -351 131t-138 321.5t138 322.5t351 132q53 0 120 -18.5t108 -47.5v207h-787l-35 228
h1305l33 -228h-228v-1198l-288 33v184q-41 -31 -107.5 -49t-120.5 -18z" />
    <glyph glyph-name="dv_Bha" unicode="&#x92d;" horiz-adv-x="1617" 
d="M1124 436h-444q0 -47 -22.5 -99t-67.5 -52q-104 0 -204.5 70.5t-100.5 187.5q0 59 40 89t105 30v241q-8 -2 -15 -2h-40q-125 0 -204 75t-79 193.5t88 190.5t199 72q154 0 242 -99.5t88 -265.5v-405h415v503h-186l-37 228h707l32 -228h-225v-1198l-291 33v436z" />
    <glyph glyph-name="dv_Ma" unicode="&#x92e;" horiz-adv-x="1415" 
d="M924 1165h-418v-503h418v503zM924 436h-449q0 -47 -21.5 -99t-66.5 -52q-104 0 -204.5 70.5t-100.5 187.5q0 59 41 89t104 30v503h-215l-35 228h1428l35 -228h-228v-1198l-288 33v436z" />
    <glyph glyph-name="dv_Ya" unicode="&#x92f;" horiz-adv-x="1363" 
d="M532 995q0 -203 -155 -311q27 -41 82 -87t151 -46t171 49t89 133v432h-372q34 -80 34 -170zM608 309q-190 0 -348 129t-158 299l54 58q45 14 82.5 73.5t37.5 126t-28.5 110.5t-69.5 60h-166l-35 228h1377l32 -228h-227v-1198l-289 33v365q-126 -56 -262 -56z" />
    <glyph glyph-name="dv_Ra" unicode="&#x930;" horiz-adv-x="954" 
d="M797 936.5q0 -129.5 -78 -246.5t-207 -168l313 -497l-268 -68l-305 532h-72q-47 0 -79.5 24t-41.5 62q0 96 85 192.5t178 96.5q55 0 98 -119q55 33 83.5 92.5t28.5 116.5q0 133 -65 211h-455l-35 228h967l33 -228h-215q35 -99 35 -228.5z" />
    <glyph glyph-name="dv_Rra" unicode="&#x931;" horiz-adv-x="954" 
d="M171 -160q-67 0 -113 47t-46 113t46 113t113 47t114 -47t47 -113t-47 -113t-114 -47zM797 936.5q0 -129.5 -78 -246.5t-207 -168l313 -497l-268 -68l-305 532h-72q-47 0 -79.5 24t-41.5 62q0 96 85 192.5t178 96.5q55 0 98 -119q55 33 83.5 92.5t28.5 116.5
q0 133 -65 211h-455l-35 228h967l33 -228h-215q35 -99 35 -228.5z" />
    <glyph glyph-name="dv_La" unicode="&#x932;" horiz-adv-x="1755" 
d="M1114 1030q84 0 148 -35v170h-1250l-35 228h1766l35 -228h-228v-1198l-288 33v637q-12 70 -53.5 113t-104 43t-104.5 -61.5t-42 -158.5v-303l-258 27v276q0 213 -174 213q-74 0 -119 -45t-45 -121.5t49.5 -204.5t178.5 -386l-230 -78q-127 242 -190.5 394.5t-63.5 303.5
t125 265t302.5 114t291.5 -106q104 108 289 108z" />
    <glyph glyph-name="dv_Lla" unicode="&#x933;" horiz-adv-x="1875" 
d="M1304.5 82q-221.5 0 -378.5 172q-59 -76 -150.5 -127t-204.5 -51q-213 0 -351 130t-138 339t138 352t358.5 143t379.5 -174q90 108 205 154v145h-1151l-35 228h1889l32 -228h-446v-137q156 -39 254 -159.5t98 -310.5t-139 -333t-360.5 -143zM332 547q0 -98 67.5 -166
t167.5 -68t169 93.5t100 195.5l8 35q-43 74 -117 119t-167 45t-160.5 -78t-67.5 -176zM1552 575q0 99 -68.5 166.5t-168.5 67.5t-169 -93t-97 -198l-9 -35q43 -74 116 -119t166 -45t161.5 78.5t68.5 177.5z" />
    <glyph glyph-name="dv_Llla" unicode="&#x934;" horiz-adv-x="1875" 
d="M927.5 -319q-67.5 0 -113.5 46t-46 111t46 113.5t113.5 48.5t113.5 -48t46 -114t-46 -111.5t-113.5 -45.5zM1304.5 82q-221.5 0 -378.5 172q-59 -76 -150.5 -127t-204.5 -51q-213 0 -351 130t-138 339t138 352t358.5 143t379.5 -174q90 108 205 154v145h-1151l-35 228
h1889l32 -228h-446v-137q156 -39 254 -159.5t98 -310.5t-139 -333t-360.5 -143zM332 547q0 -98 67.5 -166t167.5 -68t169 93.5t100 195.5l8 35q-43 74 -117 119t-167 45t-160.5 -78t-67.5 -176zM1552 575q0 99 -68.5 166.5t-168.5 67.5t-169 -93t-97 -198l-9 -35
q43 -74 116 -119t166 -45t161.5 78.5t68.5 177.5z" />
    <glyph glyph-name="dv_Va" unicode="&#x935;" horiz-adv-x="1280" 
d="M354 569q0 -92 69 -150.5t147.5 -58.5t134 34t83.5 77v195q-29 45 -84 78.5t-134 33.5t-147.5 -58.5t-68.5 -150.5zM559 121q-213 0 -345 129t-132 319.5t132 319.5t345 129q53 0 127 -23.5t102 -56.5v227h-776l-35 228h1293l33 -228h-226v-1198l-289 33v203
q-29 -33 -102.5 -57.5t-126.5 -24.5z" />
    <glyph glyph-name="dv_Sha" unicode="&#x936;" horiz-adv-x="1660" 
d="M403 1432q223 0 345 -151t122 -347q0 -139 -90 -265t-231 -169l325 -475l-270 -68l-313 508h-72q-47 0 -81 23.5t-40 64.5q0 94 84 191.5t178 97.5q31 0 61 -45t42 -84q72 29 106.5 91t34.5 106q0 93 -22 132q-27 -55 -94.5 -80.5t-131.5 -25.5q-109 0 -186.5 60.5
t-77.5 173t90 187.5t221 75zM1167 1165h-188l-33 228h705l32 -228h-227v-1198l-289 33v1165z" />
    <glyph glyph-name="dv_Ssa" unicode="&#x937;" horiz-adv-x="1392" 
d="M442 766q0 -100 58 -157.5t163.5 -57.5t170.5 59q-196 252 -392 490v-334zM899 1165h-338l338 -409v409zM651 309q-205 0 -352 122t-147 335v399h-140l-35 228h1403l35 -228h-227v-1198l-289 33v367q-45 -23 -117.5 -40.5t-130.5 -17.5z" />
    <glyph glyph-name="dv_Sa" unicode="&#x938;" horiz-adv-x="1669" 
d="M322 864q55 0 98 -119q55 33 83.5 92.5t28.5 116.5q0 133 -65 211h-455l-35 228h1684l35 -228h-230v-1198l-288 33v545h-619q-44 -22 -47 -23l313 -497l-268 -68l-305 530l-72 2q-47 0 -79.5 24t-41.5 62q0 96 85 192.5t178 96.5zM797 955q0 -111 -39 -195h420v405h-416
q35 -99 35 -210z" />
    <glyph glyph-name="dv_Ha" unicode="&#x939;" horiz-adv-x="1138" 
d="M1028 498q0 -178 -137 -267l-201 138q41 27 58.5 54t17.5 68t-49 72t-131 31t-132.5 -47t-50.5 -117q0 -113 125 -167t267 -62l-62 -234q-240 12 -416 131t-176 332q0 133 80 240q-69 65 -69 194t96 194.5t225 65.5h137v41h-602l-31 228h1149l35 -228h-237v-256h-416
q-76 0 -76 -49q0 -33 25 -43q66 17 133 17q207 0 322.5 -100.5t115.5 -235.5z" />
    <glyph glyph-name="dv_MatraOe" unicode="&#x93a;" horiz-adv-x="0" 
d="M-23 1393h-278v458l278 -32v-426z" />
    <glyph glyph-name="dv_MatraOoe" unicode="&#x93b;" 
d="M199 1165h-187l-35 228h228v458l278 -32v-426h197l37 -228h-228v-1198l-290 33v1165z" />
    <glyph glyph-name="dv_Nukta" unicode="&#x93c;" horiz-adv-x="0" 
d="M195 -426q-68 0 -114 46t-46 113t46 114t114 47t113.5 -47.5t45.5 -114t-45.5 -112.5t-113.5 -46z" />
    <glyph glyph-name="dv_Avagraha" unicode="&#x93d;" horiz-adv-x="1169" 
d="M563 213q92 0 148.5 41t56.5 123t-96.5 221t-196.5 252l-309 350v193h835l46 -228h-510l114 -141q111 -135 246 -316.5t135 -345.5t-123 -280.5t-354 -116.5q-88 0 -225 35t-248 113l127 235q197 -135 354 -135z" />
    <glyph glyph-name="dv_MatraAa" unicode="&#x93e;" 
d="M199 1165h-187l-35 228h703l37 -228h-228v-1198l-290 33v1165z" />
    <glyph glyph-name="dv_MatraI" unicode="&#x93f;" 
d="M129 1563q0 166 126.5 275.5t368.5 109.5t547.5 -122t446.5 -222l-107 -179q-182 115 -427.5 201t-436.5 86q-123 0 -184.5 -54t-61.5 -116t18.5 -96.5t29.5 -52.5h231l37 -228h-228v-1198l-290 33v1165h-187l-35 228h189q-37 56 -37 170z" />
    <glyph glyph-name="dv_MatraIi" unicode="&#x940;" 
d="M-100 1710q-62 0 -62 -84q0 -35 41 -88l-272 -55q-51 59 -51 178t92 203t239 84q207 0 351.5 -186.5t212.5 -368.5h229l37 -228h-228v-1198l-290 33v1165h-187l-35 228h183q-35 100 -102.5 208.5t-157.5 108.5z" />
    <glyph glyph-name="dv_MatraU" unicode="&#x941;" horiz-adv-x="0" 
d="M-336 -461q55 0 83 26.5t28 68.5t-30 71t-81 29h-156v229h175q123 0 228 -87t105 -240t-105.5 -239.5t-251.5 -86.5t-286.5 104.5t-253.5 282.5l176 119q106 -127 190.5 -202t178.5 -75z" />
    <glyph glyph-name="dv_MatraUu" unicode="&#x942;" horiz-adv-x="0" 
d="M-367 -266q-53 0 -80.5 -28t-27.5 -69.5t28.5 -69.5t79.5 -28h156v-229h-174q-123 0 -228.5 87t-105.5 240.5t105.5 239.5t252 86t288 -103.5t251.5 -283.5l-174 -119q-109 127 -192.5 202t-178.5 75z" />
    <glyph glyph-name="dv_MatraVocalicR" unicode="&#x943;" horiz-adv-x="0" 
d="M-381 -690q-127 0 -229.5 87t-102.5 239.5t105.5 239.5t228.5 87h176v-229h-155q-51 0 -82 -29t-31 -71t30.5 -68.5t89.5 -26.5t146 27l49 -225q-98 -31 -225 -31z" />
    <glyph glyph-name="dv_MatraVocalicRr" unicode="&#x944;" horiz-adv-x="0" 
d="M-557 -242q0 115 77 160t161 45h120v-174h-86q-61 0 -61 -31q0 -10 20.5 -16t40.5 -6h72l-45 -168q-98 0 -98 -26.5t71 -26.5h80l-47 -174h-67q-84 0 -161 46t-77 156q0 59 47 111q-47 47 -47 104z" />
    <glyph glyph-name="dv_MatraCandraE" unicode="&#x945;" horiz-adv-x="0" 
d="M532.5 1550q-143.5 0 -277.5 60.5t-220 230.5l201 123q47 -100 137 -145t160.5 -45t154.5 40.5t143 149.5l199 -123q-86 -172 -220 -231.5t-277.5 -59.5z" />
    <glyph glyph-name="dv_MatraShortE" unicode="&#x946;" horiz-adv-x="0" 
d="M-604 1530h-82q-176 2 -282.5 81t-106.5 204v88l256 -35q0 -63 37 -86t98 -23h94q154 0 270.5 -82t116.5 -204v-207h-266v131q0 63 -34.5 98t-100.5 35z" />
    <glyph glyph-name="dv_MatraE" unicode="&#x947;" horiz-adv-x="0" 
d="M-70 1249h-333l-609 561l209 166z" />
    <glyph glyph-name="dv_MatraAi" unicode="&#x948;" horiz-adv-x="0" 
d="M-776 1509h-205l-55 246h248q63 0 116.5 -5t104.5 -32l-95 291l263 74l163 -707h-253q-70 70 -122.5 101.5t-164.5 31.5z" />
    <glyph glyph-name="dv_MatraCandraO" unicode="&#x949;" 
d="M199 1165h-187l-35 228h703l37 -228h-228v-1198l-290 33v1165zM345 1550q-142 0 -276.5 60.5t-220.5 230.5l201 123q47 -100 137 -145t161 -45t155 40.5t145 149.5l197 -123q-86 -172 -221.5 -231.5t-277.5 -59.5z" />
    <glyph glyph-name="dv_MatraShortO" unicode="&#x94a;" 
d="M78 1530h-109q-176 2 -282.5 81t-106.5 204v88l254 -35q0 -63 37 -86t98 -23h121q156 0 272.5 -82t116.5 -204v-80h201l37 -228h-228v-1198l-290 33v1165h-187l-35 232h236q0 63 -33.5 98t-101.5 35z" />
    <glyph glyph-name="dv_MatraO" unicode="&#x94b;" 
d="M199 1165h-187l-35 228h138l-453 417l209 166l588 -583h221l37 -228h-228v-1198l-290 33v1165z" />
    <glyph glyph-name="dv_MatraAu" unicode="&#x94c;" 
d="M199 1165h-187l-35 228h228q-63 61 -114.5 88.5t-156.5 27.5h-206l-54 246h246q63 0 117.5 -5t105.5 -32l-94 291l262 74l158 -690h211l37 -228h-228v-1198l-290 33v1165z" />
    <glyph glyph-name="dv_Halant" unicode="&#x94d;" horiz-adv-x="0" 
d="M-178 -748l-481 431l198 180l453 -459z" />
    <glyph glyph-name="dv_PrishtaMatraE" unicode="&#x94e;" horiz-adv-x="690" 
d="M199 1393h481l35 -228h-228v-1198l-288 33v1393z" />
    <glyph glyph-name="dv_MatraAw" unicode="&#x94f;" 
d="M-74 1659h213q-100 27 -164.5 101.5t-64.5 187.5v73l227 -39q0 -70 35 -121t90 -71q207 -79 207 -313v-84h211l37 -228h-228v-1198l-290 33v1165h-187l-35 228h242q-16 61 -76 61h-206q-170 0 -273.5 87t-103.5 228v72l225 -39q0 -143 141 -143z" />
    <glyph glyph-name="dv_Om" unicode="&#x950;" horiz-adv-x="1826" 
d="M610 1432q242 0 361 -126t119 -274q0 -98 -53.5 -191t-159.5 -130q43 -9 102 -45q55 47 142 89t192 42q215 0 328.5 -115.5t113.5 -313.5t-138 -303.5t-333 -105.5l-53 236q123 0 187.5 51t64.5 132t-48.5 131t-126.5 50t-122.5 -28.5t-75.5 -65.5q6 -42 6 -66
q0 -184 -144.5 -307t-383.5 -123q-123 0 -246 33t-215 84l51 233q191 -114 391 -114q98 0 177 48t79 145t-66.5 157.5t-244.5 60.5h-195l-30 209h237q137 0 204 60.5t67 134.5t-55.5 125t-151.5 51q-200 0 -400 -137l-38 239q216 134 458 134zM1351 1284q-142 0 -276.5 67.5
t-218.5 235.5l197 123q49 -100 139 -151.5t159.5 -51.5t154 47t145.5 156l198 -123q-88 -170 -222 -236.5t-276 -66.5zM1351 1589q-67 0 -113 46t-46 113t46 114t113 47t112.5 -47t45.5 -114t-45.5 -113t-112.5 -46z" />
    <glyph glyph-name="dv_Udatta" unicode="&#x951;" horiz-adv-x="0" 
d="M270 1524h-207l-28 428h266z" />
    <glyph glyph-name="dv_Anudatta" unicode="&#x952;" horiz-adv-x="0" 
d="M1163 -371h-1093l-35 226h1095z" />
    <glyph glyph-name="dv_Graveaccent" unicode="&#x953;" horiz-adv-x="0" 
d="M492 1524h-181l-276 428h266z" />
    <glyph glyph-name="dv_Acuteaccent" unicode="&#x954;" horiz-adv-x="0" 
d="M215 1524h-180l192 428h265z" />
    <glyph glyph-name="dv_MatraCandraLongE" unicode="&#x955;" horiz-adv-x="0" 
d="M1053 1532h-965l-35 201h965zM532.5 1796q-143.5 0 -277.5 55.5t-220 223.5l201 110q47 -100 137 -139t160.5 -39t154.5 34.5t143 143.5l199 -110q-86 -170 -220 -224.5t-277.5 -54.5z" />
    <glyph glyph-name="dv_MatraUe" unicode="&#x956;" horiz-adv-x="0" 
d="M532.5 -520q-143.5 0 -277.5 60.5t-220 232.5l201 121q47 -100 137 -145.5t160.5 -45.5t154.5 42.5t143 148.5l199 -121q-86 -172 -220 -232.5t-277.5 -60.5z" />
    <glyph glyph-name="dv_MatraUue" unicode="&#x957;" horiz-adv-x="0" 
d="M682 -543q286 0 440 189l197 -121q-104 -160 -283.5 -223.5t-350.5 -63.5t-358.5 63.5t-291.5 219.5l196 123q70 -84 190 -135.5t261 -51.5zM681 -477q-95 0 -231.5 49t-230.5 211l201 115q33 -94 108.5 -132t148.5 -38t148.5 32t122.5 138l201 -115
q-98 -166 -235.5 -213t-232.5 -47z" />
    <glyph glyph-name="dv_Qa" unicode="&#x958;" horiz-adv-x="1851" 
d="M352 -319q-68 0 -113.5 46t-45.5 111t46 113.5t113.5 48.5t114.5 -48t47 -114t-47 -111.5t-115 -45.5zM559 121q-213 0 -345 129t-132 319.5t132 320.5t345 130q53 0 121 -19.5t108 -50.5v215h-776l-35 228h1864l33 -228h-797v-211q39 29 104.5 47.5t116.5 18.5
q217 0 349.5 -130t132.5 -330t-156 -319.5t-350 -119.5l-47 239q119 0 198.5 58.5t79.5 151.5t-59.5 151.5t-147.5 58.5q-142 0 -221 -116v-697l-289 33v190q-41 -31 -108.5 -50t-120.5 -19zM354 570q0 -93 63.5 -151.5t158 -58.5t139.5 40t73 85v172q-29 43 -73.5 83
t-139 40t-158 -58.5t-63.5 -151.5z" />
    <glyph glyph-name="dv_Khha" unicode="&#x959;" horiz-adv-x="1961" 
d="M522 948q0 132 -65 217h-445l-35 228h1975l33 -228h-228v-1198l-289 33v135q-104 -82 -241 -127t-281 -45q-315 0 -495.5 169t-227.5 355l-53 2q-47 2 -81 25t-40 61q0 96 90 192.5t183 96.5q33 0 59.5 -35.5t40.5 -76.5q39 25 69.5 80t30.5 116zM229.5 -160
q-65.5 0 -112.5 47t-47 113t47 113t112.5 47t112.5 -47t47 -113t-47 -113t-112.5 -47zM1466 665q0 75 -44 114.5t-96 39.5t-95 -41t-43 -115.5t44 -114.5t96 -40t95 41t43 116zM786 932q0 -125 -78.5 -241t-205.5 -169q33 -96 137 -206.5t307 -112.5q139 0 277 69
q-150 29 -239 136.5t-89 266.5t119 274.5t313 115.5q80 0 141 -21v121h-716q34 -108 34 -233z" />
    <glyph glyph-name="dv_Ghha" unicode="&#x95a;" horiz-adv-x="1431" 
d="M419 -160q-67 0 -113 47t-46 113t46 113t113 47t114 -47t47 -113t-47 -113t-114 -47zM938 1165h-387v-729q0 -70 -31 -110.5t-88 -40.5q-117 0 -214 108.5t-97 196.5q0 35 47 62.5t92 27.5v485h-248l-35 228h1442l33 -228h-225v-1198l-289 33v1165z" />
    <glyph glyph-name="dv_Za" unicode="&#x95b;" horiz-adv-x="1671" 
d="M478 -319q-67 0 -113 46t-46 111t46.5 113.5t113 48.5t114.5 -48t48 -114t-48 -111.5t-115 -45.5zM705 545q0 82 -44.5 135t-154.5 53h-127l-33 225h836v207h-1170l-35 228h1686l35 -228h-230v-1198l-286 33v733h-238q31 -96 31 -170q0 -244 -158 -350.5t-342 -106.5
q-125 0 -241.5 45.5t-198.5 98.5l51 260q211 -164 379 -164q111 0 175.5 58.5t64.5 140.5z" />
    <glyph glyph-name="dv_Dddha" unicode="&#x95c;" horiz-adv-x="1103" 
d="M563 -420q-68 0 -114 46t-46 113t46.5 114t114 47t114.5 -47.5t47 -114t-47 -112.5t-115 -46zM920 1165v-334h-463q-43 0 -69 -22.5t-26 -53t28 -55t69 -24.5h151q184 0 307 -81t123 -263q0 -139 -123.5 -251t-357.5 -112q-119 0 -240.5 28t-212.5 79l50 233
q102 -63 193 -83.5t192.5 -20.5t154 38t52.5 85t-27 77.5t-94 30.5h-176q-133 0 -246 86t-113 237t102.5 232.5t251.5 81.5h216v92h-650l-35 228h1115l36 -228h-208z" />
    <glyph glyph-name="dv_Rha" unicode="&#x95d;" horiz-adv-x="1277" 
d="M751 -424q-67 0 -113 46t-46 112.5t46 115t113 48.5t114.5 -48.5t47.5 -115t-47.5 -112.5t-114.5 -46zM739 -37q-220 0 -423 119t-203 420q0 262 199.5 400t467.5 138v125h-768l-35 228h1321l33 -228h-260v-366h-297q-166 0 -282.5 -77t-116.5 -215t87 -229.5t240 -91.5
q-18 20 -22 53t-4 99t67.5 147.5t190.5 81.5t203 -69.5t80 -180.5q0 -160 -129 -257t-349 -97z" />
    <glyph glyph-name="dv_Fa" unicode="&#x95e;" horiz-adv-x="1961" 
d="M460 -160q-67 0 -113 47t-46 113t46 113t113 47t115 -47t48 -113t-48 -113t-115 -47zM651 309q-205 0 -352 122t-147 335v399h-140l-35 228h1975l35 -228h-799v-211q41 29 106.5 47.5t116.5 18.5q215 0 348 -130t133 -330t-155.5 -319.5t-352.5 -119.5l-47 239
q121 0 201 58.5t80 151.5t-59.5 151.5t-148.5 58.5t-140 -36.5t-82 -79.5v-697l-289 33v367q-45 -23 -117.5 -40.5t-130.5 -17.5zM442 766q0 -100 57.5 -157.5t154 -57.5t164 48t81.5 130v436h-457v-399z" />
    <glyph glyph-name="dv_Yya" unicode="&#x95f;" horiz-adv-x="1363" 
d="M413.5 -160q-67.5 0 -113.5 47t-46 113t46 113t113.5 47t114.5 -47t47 -113t-47 -113t-114.5 -47zM532 995q0 -203 -155 -311q27 -41 82 -87t151 -46t171 49t89 133v432h-372q34 -80 34 -170zM608 309q-190 0 -348 129t-158 299l54 58q45 14 82.5 73.5t37.5 126
t-28.5 110.5t-69.5 60h-166l-35 228h1377l32 -228h-227v-1198l-289 33v365q-126 -56 -262 -56z" />
    <glyph glyph-name="dv_VocalicRr" unicode="&#x960;" horiz-adv-x="1851" 
d="M1616 891q0 -53 -33 -94l19 -23q72 -88 119.5 -162.5t47.5 -175t-88 -176.5t-88 -121q0 -25 14.5 -32t39.5 -7h96l-45 -221h-60q-23 0 -48 -14.5t-25 -38t20.5 -35.5t42.5 -12h86l-47 -221h-90q-88 0 -175 74.5t-87 193.5q0 84 53 154q-35 55 -35 122q0 94 92.5 181.5
t92.5 153.5t-27 105.5t-76 88.5q-53 -45 -177 -78t-214 -39v-547l-291 33v356l-407 -254l-158 217l496 304q-135 118 -258 118q-54 0 -232 -75l-111 243q70 33 177.5 59.5t165 26.5t142.5 -13t185 -79v262h-721l-35 228h1862l33 -228h-848v-417q68 8 148.5 28.5t103.5 42.5
q-37 58 -37 126.5t45 102t113.5 33.5t143.5 -52t75 -138z" />
    <glyph glyph-name="dv_VocalicLl" unicode="&#x961;" horiz-adv-x="1755" 
d="M825 922q104 108 289 108q84 0 148 -35v170h-1250l-35 228h1766l35 -228h-228v-1011h-86q-61 0 -61 -39t61 -39h72l-45 -166q-98 0 -98 -36q0 -44 71 -44h80l-47 -172h-80q-82 0 -159.5 52t-77.5 163q0 29 21.5 70t41.5 49q-29 18 -46 54t-17 67q0 107 82 166v358
q-12 70 -53.5 113t-104 43t-104.5 -61.5t-42 -158.5v-303l-258 27v276q0 213 -174 213q-74 0 -119 -45t-45 -121.5t49.5 -204.5t178.5 -386l-230 -78q-127 242 -190.5 394.5t-63.5 303.5t125 266t301.5 115t292.5 -108z" />
    <glyph glyph-name="dv_MatraVocalicL" unicode="&#x962;" horiz-adv-x="0" 
d="M877 -477q0 -31 26 -31h39l-49 -184h-66q-51 0 -114.5 30.5t-63.5 112.5t40 141.5t40 100.5t-21.5 53t-48 12t-51 -20t-24.5 -57v-199l-189 49v150q0 39 -24.5 58t-53.5 19t-49 -17t-20 -32q0 -61 31.5 -132t101.5 -200l16 -30l-209 -47q-76 145 -114.5 237t-38.5 186.5
t75.5 166t194.5 71.5q59 0 109.5 -27.5t74.5 -70.5q25 39 79.5 68.5t111.5 29.5q117 0 190.5 -71.5t73.5 -153.5t-61 -189q-6 -12 -6 -24z" />
    <glyph glyph-name="dv_MatraVocalicLl" unicode="&#x963;" horiz-adv-x="0" 
d="M684 -508.5q0 66.5 26.5 109.5t27.5 82q2 75 -76 75q-29 0 -53.5 -20t-24.5 -57v-199l-189 49v150q0 39 -24.5 58t-53.5 19t-49 -17t-20 -32q0 -61 31.5 -132t101.5 -200l16 -30l-209 -47q-76 145 -114.5 237t-38.5 186.5t75.5 166t194.5 71.5q59 0 109.5 -27.5
t74.5 -70.5q25 39 79.5 68.5t111.5 29.5q117 0 190.5 -71.5t73.5 -165.5q0 -63 -26.5 -105.5t-26.5 -79.5t37 -37h24l-47 -159h-53q-47 -5 -47 -29q0 -29 53 -29h72l-45 -143h-43q-78 0 -131.5 42t-53.5 130q0 29 14.5 54.5t35.5 37.5q-23 19 -23 85.5z" />
    <glyph glyph-name="dv_Danda" unicode="&#x964;" horiz-adv-x="862" 
d="M575 1546v-1579l-288 33v1579z" />
    <glyph glyph-name="dv_DoubleDanda" unicode="&#x965;" horiz-adv-x="1611" 
d="M575 1546v-1579l-288 33v1579zM1325 1546v-1579l-291 33v1579z" />
    <glyph glyph-name="dv_Zero" unicode="&#x966;" horiz-adv-x="1363" 
d="M354 695q0 -146 93.5 -245.5t234.5 -99.5t234.5 99.5t93.5 245.5t-93.5 245.5t-234.5 99.5t-234.5 -99.5t-93.5 -245.5zM683 117q-249 0 -414 170t-165 407.5t164 408.5t413 171t414 -170t165 -409t-164 -408.5t-413 -169.5z" />
    <glyph glyph-name="dv_One" unicode="&#x967;" horiz-adv-x="835" 
d="M117 1120q0 139 96 225.5t228 86.5t219.5 -91.5t87.5 -226.5q0 -216 -238 -409l-145 -115l401 -565l-272 -66l-402 627l6 98l215 170q-55 14 -125.5 95t-70.5 171z" />
    <glyph glyph-name="dv_Two" unicode="&#x968;" horiz-adv-x="1077" 
d="M452 1196q-111 0 -262 -96l-98 207q61 45 164.5 85t208.5 40q256 0 376 -162t120 -302t-77 -261t-243 -191l307 -491l-270 -68l-301 530l-72 2q-47 0 -82 24t-41 62q0 96 85 192.5t179 96.5q31 0 61 -42t44 -81q82 27 112.5 97.5t30.5 144.5t-65.5 143.5t-176.5 69.5z
" />
    <glyph glyph-name="dv_Three" unicode="&#x969;" horiz-adv-x="1144" 
d="M571 1432q218 0 324 -107.5t106 -247.5q0 -84 -46 -170t-144 -116q100 -23 157.5 -105t57.5 -176q0 -154 -115.5 -261.5t-310.5 -121.5l137 -170l-190 -135l-256 344q-63 29 -125 90t-62 135t40 110t107 36t140.5 -52.5t93.5 -124.5h31q86 0 152.5 40t66.5 112t-61.5 126
t-186.5 54h-172l-28 209h213q100 0 155.5 48.5t55.5 114.5q0 130 -191 134q-88 0 -175 -38t-144 -83l-37 234q189 121 407 121z" />
    <glyph glyph-name="dv_Four" unicode="&#x96a;" horiz-adv-x="1433" 
d="M596 324q0 -53 36 -86t86 -33t85 32.5t35 84.5q0 91 -121 253q-121 -161 -121 -251zM1100 324q0 -154 -104.5 -257.5t-278.5 -103.5t-279.5 103.5t-105.5 257.5q0 106 65.5 223t157.5 239q-113 123 -244 248t-241 230l157 200q382 -367 490 -483q131 144 489 483
l158 -200q-111 -104 -243 -229.5t-242 -248.5q92 -123 156.5 -239.5t64.5 -222.5z" />
    <glyph glyph-name="dv_Five" unicode="&#x96b;" horiz-adv-x="1206" 
d="M805 207q57 0 80.5 26.5t23.5 66.5q0 89 -45 173q-74 -16 -143 -16q-215 0 -386 112.5t-171 362.5v461h291v-461q0 -133 72.5 -185.5t193.5 -52.5q-12 54 -11 92t43.5 88t116.5 50t144.5 -54.5t70.5 -126.5t-28 -118q45 -78 73.5 -174.5t28.5 -147.5q0 -127 -64.5 -231.5
t-267.5 -104.5q-133 0 -245 43l65 226q86 -29 135 -29h23z" />
    <glyph glyph-name="dv_Six" unicode="&#x96c;" horiz-adv-x="1220" 
d="M590 127q-213 0 -343 109.5t-130 273.5q0 94 57.5 176t157.5 105q-96 31 -143.5 116.5t-47.5 169.5q0 139 106.5 247t326.5 108t405 -121l-35 -234q-59 45 -147 83t-176 38h-11q-78 -2 -128 -35t-50 -99t55.5 -114.5t155.5 -48.5h188l21 -209h-195q-125 0 -187 -54
t-62 -126t66.5 -112t154.5 -40h21l44 7v41q0 70 41 111.5t114 41.5t148.5 -50t75.5 -126t-61 -154q31 -57 69.5 -118.5t69.5 -114.5l-227 -86l-129 233q-63 -18 -205 -18z" />
    <glyph glyph-name="dv_Seven" unicode="&#x96d;" horiz-adv-x="1552" 
d="M958 537q-170 0 -284.5 101t-114.5 262t109.5 274.5t281.5 113.5q258 0 384 -185t126 -469t-179 -477.5t-516 -193.5t-517 203t-180 565h290q0 -244 113 -378t295 -134t283.5 104.5t111.5 270.5q-99 -57 -203 -57zM961 1047q-45 0 -88.5 -37t-43.5 -100.5t39.5 -100.5
t95.5 -37q118 0 183 76q-45 199 -186 199z" />
    <glyph glyph-name="dv_Eight" unicode="&#x96e;" horiz-adv-x="1202" 
d="M385 457q0 -98 58.5 -167t160.5 -69t182 67.5t80 270.5l240 -70v-26q0 -154 -105.5 -327t-402.5 -173q-236 0 -365 139.5t-129 346.5q0 276 211 570t396 445l161 -198q-229 -213 -358 -409.5t-129 -399.5z" />
    <glyph glyph-name="dv_Nine" unicode="&#x96f;" horiz-adv-x="1030" 
d="M506 1421q205 0 307 -112.5t102 -264.5t-126.5 -233.5t-286.5 -85.5q4 -8 29 -38.5t97 -136.5t105 -175t33 -167t-89 -166.5t-235 -94.5l-43 205q49 14 77 30.5t28 52.5t-50.5 113.5t-121.5 181.5l-27 39q-70 104 -141.5 212t-71.5 246t104.5 266t309.5 128z" />
    <glyph glyph-name="dv_Abbreviation" unicode="&#x970;" horiz-adv-x="1169" 
d="M586 319q102 0 178 73t76 192t-76 189.5t-178 70.5t-178 -73t-76 -191t76 -189.5t178 -71.5zM585 1085q212 0 357 -147t145 -355t-145 -353.5t-358 -145.5t-357.5 146.5t-144.5 356.5t145.5 354t357.5 144z" />
    <glyph glyph-name="dv_Highspacedot" unicode="&#x971;" horiz-adv-x="483" 
d="M242 444q-68 0 -114 47t-46 113t46 113t114 47t113.5 -47t45.5 -114t-45.5 -113t-113.5 -46z" />
    <glyph glyph-name="dv_CandraA" unicode="&#x972;" horiz-adv-x="1984" 
d="M610.5 1432q241.5 0 360.5 -121t119 -279q0 -53 -29 -110.5t-70 -96.5h502v340h-190l-35 228h706l33 -228h-227v-1198l-287 33v612h-473q47 -35 71.5 -94t24.5 -119q0 -184 -144.5 -307t-383.5 -123q-123 0 -246 33t-215 84l51 233q191 -114 391 -114q98 0 177 48t79 145
t-66.5 157.5t-244.5 60.5h-195l-30 209h237q137 0 204 60.5t67 134t-55.5 125t-151.5 51.5q-200 0 -400 -137l-38 239q217 134 458.5 134zM1644 1550q-144 0 -276.5 60.5t-218.5 230.5l197 123q49 -100 139 -145t159.5 -45t154 40.5t143.5 149.5l200 -123
q-88 -172 -221 -231.5t-277 -59.5z" />
    <glyph glyph-name="dv_Oe" unicode="&#x973;" horiz-adv-x="1984" 
d="M610.5 1432q241.5 0 360.5 -121t119 -279q0 -53 -29 -110.5t-70 -96.5h502v340h-190l-35 228h229v458l279 -32v-426h198l33 -228h-227v-1198l-287 33v612h-473q47 -35 71.5 -94t24.5 -119q0 -184 -144.5 -307t-383.5 -123q-123 0 -246 33t-215 84l51 233
q191 -114 391 -114q98 0 177 48t79 145t-66.5 157.5t-244.5 60.5h-195l-30 209h237q137 0 204 60.5t67 134t-55.5 125t-151.5 51.5q-200 0 -400 -137l-38 239q217 134 458.5 134z" />
    <glyph glyph-name="dv_Ooe" unicode="&#x974;" horiz-adv-x="2666" 
d="M610.5 1432q241.5 0 360.5 -121t119 -279q0 -53 -29 -110.5t-70 -96.5h502v340h-190l-35 228h899v458l276 -32v-426h211l35 -228h-225v-1198l-291 33v1165h-393v-1198l-287 33v612h-473q47 -35 71.5 -94t24.5 -119q0 -184 -144.5 -307t-383.5 -123q-123 0 -246 33
t-215 84l51 233q191 -114 391 -114q98 0 177 48t79 145t-66.5 157.5t-244.5 60.5h-195l-30 209h237q137 0 204 60.5t67 134t-55.5 125t-151.5 51.5q-200 0 -400 -137l-38 239q217 134 458.5 134z" />
    <glyph glyph-name="dv_Aw" unicode="&#x975;" horiz-adv-x="2666" 
d="M1901 1659h213q-100 27 -165 101.5t-65 187.5v73l227 -39q0 -70 35 -121t90 -71q207 -79 207 -313v-84h211l35 -228h-225v-1198l-291 33v1165h-393v-1198l-287 33v612h-473q47 -35 71.5 -94t24.5 -119q0 -184 -144.5 -307t-383.5 -123q-123 0 -246 33t-215 84l51 233
q191 -114 391 -114q98 0 177 48t79 145t-66.5 157.5t-244.5 60.5h-195l-30 209h237q137 0 204 60.5t67 134t-55.5 125t-151.5 51.5q-200 0 -400 -137l-38 239q217 134 458.5 134t360.5 -121t119 -279q0 -53 -29 -110.5t-70 -96.5h502v340h-190l-35 228h925q-16 61 -75 61
h-207q-170 0 -273.5 87t-103.5 228v72l225 -39q0 -143 142 -143z" />
    <glyph glyph-name="dv_Ue" unicode="&#x976;" horiz-adv-x="1984" 
d="M1118.5 -520q-143.5 0 -277.5 60.5t-220 232.5l200 121q47 -100 137.5 -145.5t161 -45.5t154.5 42.5t143 148.5l199 -121q-86 -172 -220 -232.5t-277.5 -60.5zM610.5 1432q241.5 0 360.5 -121t119 -279q0 -53 -29 -110.5t-70 -96.5h502v340h-190l-35 228h706l33 -228
h-227v-1198l-287 33v612h-473q47 -35 71.5 -94t24.5 -119q0 -184 -144.5 -307t-383.5 -123q-123 0 -246 33t-215 84l51 233q191 -114 391 -114q98 0 177 48t79 145t-66.5 157.5t-244.5 60.5h-195l-30 209h237q137 0 204 60.5t67 134t-55.5 125t-151.5 51.5q-200 0 -400 -137
l-38 239q217 134 458.5 134z" />
    <glyph glyph-name="dv_Uue" unicode="&#x977;" horiz-adv-x="1984" 
d="M1112 -543q286 0 440 189l197 -121q-104 -160 -283.5 -223.5t-350.5 -63.5t-358.5 63.5t-291.5 219.5l197 123q70 -84 189.5 -135.5t260.5 -51.5zM1111 -477q-95 0 -231.5 49t-230.5 211l201 115q33 -94 108.5 -132t148.5 -38t148.5 32t122.5 138l201 -115
q-98 -166 -235.5 -213t-232.5 -47zM610.5 1432q241.5 0 360.5 -121t119 -279q0 -53 -29 -110.5t-70 -96.5h502v340h-190l-35 228h706l33 -228h-227v-1198l-287 33v612h-473q47 -35 71.5 -94t24.5 -119q0 -184 -144.5 -307t-383.5 -123q-123 0 -246 33t-215 84l51 233
q191 -114 391 -114q98 0 177 48t79 145t-66.5 157.5t-244.5 60.5h-195l-30 209h237q137 0 204 60.5t67 134t-55.5 125t-151.5 51.5q-200 0 -400 -137l-38 239q217 134 458.5 134z" />
    <glyph glyph-name="dv_MarwariDda" unicode="&#x978;" horiz-adv-x="1335" 
d="M506 1165v-422h221q205 0 352.5 -114.5t147.5 -327.5v-334q-4 0 -148 16l-143 15v303q0 100 -57.5 157.5t-161.5 57.5h-217q-10 -72 -43 -111.5t-70 -39.5q-104 0 -204.5 70.5t-100.5 187.5q0 59 41 88.5t104 29.5v424h-215l-35 228h1346l35 -228h-852z" />
    <glyph glyph-name="dv_Zha" unicode="&#x979;" horiz-adv-x="1671" 
d="M482 -567q-67 0 -112.5 47t-45.5 113.5t46 113.5t112.5 47t113.5 -47t47 -113.5t-47 -113.5t-114 -47zM722 -274q-67 0 -113 46t-46 112.5t46 113.5t113 47t114 -47t47 -114t-47 -112.5t-114 -45.5zM239.5 -274q-65.5 0 -112.5 46t-47 112.5t47 113.5t112.5 47t113.5 -47
t48 -114t-48 -112.5t-113.5 -45.5zM705 545q0 82 -44.5 135t-154.5 53h-127l-33 225h836v207h-1170l-35 228h1686l35 -228h-230v-1198l-286 33v733h-238q31 -96 31 -170q0 -244 -158 -350.5t-342 -106.5q-125 0 -241.5 45.5t-198.5 98.5l51 260q211 -164 379 -164
q111 0 175.5 58.5t64.5 140.5z" />
    <glyph glyph-name="dv_HeavyYa" unicode="&#x97a;" horiz-adv-x="1363" 
d="M594 551q153 0 225 80q-80 100 -150.5 193.5t-136.5 170.5q0 -203 -155 -311q27 -41 82 -87t135 -46zM870 1165h-305l305 -370v370zM608 309q-190 0 -348 129t-158 299l54 58q45 14 82.5 73.5t37.5 126t-28.5 110.5t-69.5 60h-166l-35 228h1377l32 -228h-227v-1198
l-289 33v365q-126 -56 -262 -56z" />
    <glyph glyph-name="dv_Gga" unicode="&#x97b;" horiz-adv-x="1431" 
d="M1274 -371h-1096l-33 226h1094zM938 1165h-387v-729q0 -70 -31 -110.5t-88 -40.5q-117 0 -214 108.5t-97 196.5q0 39 47 64.5t92 25.5v485h-248l-35 228h1442l33 -228h-225v-1198l-289 33v1165z" />
    <glyph glyph-name="dv_Jja" unicode="&#x97c;" horiz-adv-x="1671" 
d="M1421 -371h-1233l-32 226h1230zM705 545q0 82 -44.5 135t-154.5 53h-127l-33 225h836v207h-1170l-35 228h1686l35 -228h-230v-1198l-286 33v733h-238q31 -96 31 -170q0 -244 -158 -350.5t-342 -106.5q-125 0 -241.5 45.5t-198.5 98.5l51 260q211 -164 379 -164
q111 0 175.5 58.5t64.5 140.5z" />
    <glyph glyph-name="dv_GlottalStop" unicode="&#x97d;" horiz-adv-x="1142" 
d="M580 1432q235 0 352 -129t117 -302q0 -135 -98.5 -269t-264.5 -210v-516l-293 90v572q162 51 260.5 140t98.5 186t-52.5 145.5t-143.5 48.5q-163 0 -400 -164l-39 264q228 144 463 144z" />
    <glyph glyph-name="dv_Ddda" unicode="&#x97e;" horiz-adv-x="1103" 
d="M1016 -371h-883l-35 226h883zM920 1165v-334h-463q-43 0 -69 -22.5t-26 -53t28 -55t69 -24.5h151q184 0 307 -81t123 -263q0 -139 -123.5 -251t-357.5 -112q-119 0 -240.5 28t-212.5 79l50 233q102 -63 193 -83.5t192.5 -20.5t154 38t52.5 85t-27 77.5t-94 30.5h-176
q-133 0 -246 86t-113 237t102.5 232.5t251.5 81.5h216v92h-650l-35 228h1115l36 -228h-208z" />
    <glyph glyph-name="dv_Bba" unicode="&#x97f;" horiz-adv-x="1292" 
d="M1147 -371h-973l-35 226h973zM354 559.5q0 -82.5 64.5 -144t142.5 -61.5t125 19l-289 327q-43 -58 -43 -140.5zM565 788q-40 0 -61 -12l282 -319q10 10 13 20v187q-29 45 -84.5 84.5t-149.5 39.5zM571 117q-213 0 -351 131t-138 321.5t138 322.5t351 132q53 0 120 -18.5
t108 -47.5v207h-787l-35 228h1305l33 -228h-228v-1198l-288 33v184q-41 -31 -107.5 -49t-120.5 -18z" />
    <glyph glyph-name="uni200C" unicode="&#x200c;" horiz-adv-x="0" 
d="M-61 2533h122v-2672h-122v2672z" />
    <glyph glyph-name="uni200D" unicode="&#x200d;" horiz-adv-x="0" 
d="M61 -139h-122v2466l-91 -89l-79 80l151 152l-151 151l81 82l150 -151l152 151l81 -82l-151 -151l151 -152l-79 -80l-93 91v-2468z" />
    <glyph glyph-name="endash" unicode="&#x2013;" horiz-adv-x="847" 
d="M815 457h-760l-22 209h762z" />
    <glyph glyph-name="emdash" unicode="&#x2014;" horiz-adv-x="1064" 
d="M1034 457h-979l-22 209h983z" />
    <glyph glyph-name="quoteleft" unicode="&#x2018;" horiz-adv-x="360" 
d="M174.5 907q-63.5 0 -109 52.5t-45.5 150.5t77 222t194 188l59 -123l-8 -8q-51 -43 -84 -81t-47 -102q35 0 74 -45t39 -100t-43 -104.5t-106.5 -49.5z" />
    <glyph glyph-name="quoteright" unicode="&#x2019;" horiz-adv-x="360" 
d="M184.5 1520q63.5 0 109.5 -51t46 -149t-77 -222.5t-193 -190.5l-58 125q51 45 87 85t51 106q-35 0 -75 45t-40 99t43 103.5t106.5 49.5z" />
    <glyph glyph-name="quotesinglbase" unicode="&#x201a;" horiz-adv-x="360" 
d="M184.5 299q63.5 0 109.5 -50.5t46 -148.5t-77 -224t-193 -191l-58 127q51 45 87 83.5t51 104.5q-35 0 -75 46t-40 101.5t43 103.5t106.5 48z" />
    <glyph glyph-name="quotedblleft" unicode="&#x201c;" horiz-adv-x="737" 
d="M552.5 907q-63.5 0 -108.5 52.5t-45 150.5t77 222t192 188l61 -123l-8 -8q-51 -43 -84 -81t-47 -102q33 0 74 -45t41 -100t-44.5 -104.5t-108 -49.5zM174.5 907q-63.5 0 -109 52.5t-45.5 150.5t77 222t194 188l59 -123l-8 -8q-51 -43 -84 -81t-47 -102q35 0 74 -45
t39 -100t-43 -104.5t-106.5 -49.5z" />
    <glyph glyph-name="quotedblright" unicode="&#x201d;" horiz-adv-x="737" 
d="M184.5 1520q63.5 0 109.5 -51t46 -149t-77 -222.5t-193 -190.5l-58 125q51 45 87 85t51 106q-35 0 -75 45t-40 99t43 103.5t106.5 49.5zM565.5 1520q63.5 0 107.5 -51t44 -149t-76 -222.5t-192 -190.5l-60 125q51 45 88 85t51 106q-37 0 -75.5 45t-38.5 99t44 103.5
t107.5 49.5z" />
    <glyph glyph-name="quotedblbase" unicode="&#x201e;" horiz-adv-x="737" 
d="M184.5 299q63.5 0 109.5 -50.5t46 -148.5t-77 -224t-193 -191l-58 127q51 45 87 83.5t51 104.5q-35 0 -75 46t-40 101.5t43 103.5t106.5 48zM565.5 299q63.5 0 107.5 -50.5t44 -148.5t-76 -224t-192 -191l-60 127q51 45 88 83.5t51 104.5q-37 0 -75.5 46t-38.5 101.5
t44 103.5t107.5 48z" />
    <glyph glyph-name="dagger" unicode="&#x2020;" horiz-adv-x="876" 
d="M586 1597v-317h211l37 -250h-271v-1030h-264v1030h-217l-39 250h256v317h287z" />
    <glyph glyph-name="daggerdbl" unicode="&#x2021;" horiz-adv-x="948" 
d="M326 565v465h-224l-39 250h256v317h304v-317h221l37 -250h-258v-465h221l37 -250h-265l11 -313l-312 -14l11 327h-224l-39 250h263z" />
    <glyph glyph-name="bullet" unicode="&#x2022;" horiz-adv-x="571" 
d="M285 457q-92 0 -157 63.5t-65 154.5t65 156.5t157 65.5t157.5 -65.5t65.5 -156.5t-65.5 -154.5t-157.5 -63.5z" />
    <glyph glyph-name="ellipsis" unicode="&#x2026;" horiz-adv-x="1024" 
d="M159.5 274q57.5 0 97.5 -40.5t40 -98t-40 -96.5t-97.5 -39t-98.5 39t-41 96.5t41 98t98.5 40.5zM514 274q57 0 97 -40.5t40 -98t-40 -96.5t-97 -39t-97 39t-40 96.5t40 98t97 40.5zM865 274q56 0 96 -40.5t40 -98t-39.5 -96.5t-95.5 -39t-96.5 39t-40.5 96.5t40 98
t96 40.5z" />
    <glyph glyph-name="perthousand" unicode="&#x2030;" horiz-adv-x="2744" 
d="M1415 346q0 -78 34 -118t82 -40t84 41t36 117t-35 116t-81 40t-83 -39t-37 -117zM2222 346q0 -78 34 -118t83 -40t84 41t35 117t-34 116t-80 40t-84 -39t-38 -117zM1194 346q0 164 105.5 255t234.5 91t232.5 -89t103.5 -252t-104.5 -257t-232.5 -94t-233.5 91t-105.5 255
zM2001 346q0 164 105.5 255t234.5 91t234.5 -89t105.5 -252t-106.5 -257t-234.5 -94t-233.5 91t-105.5 255zM287 1090q0 -78 32.5 -117t80.5 -39t85 40t37 115.5t-34 115.5t-82 40t-83.5 -38.5t-35.5 -116.5zM63 1090q0 162 105.5 255t235.5 93t234.5 -91t104.5 -253
t-105.5 -256.5t-234.5 -94.5t-234.5 92.5t-105.5 254.5zM1405 1446l-610 -1446h-269l609 1446h270z" />
    <glyph glyph-name="guilsinglleft" unicode="&#x2039;" horiz-adv-x="448" 
d="M371 170l-328 283v98l328 285l47 -189l-166 -145l166 -146z" />
    <glyph glyph-name="guilsinglright" unicode="&#x203a;" horiz-adv-x="448" 
d="M78 836l328 -285v-98l-328 -283l-45 186l160 146l-160 145z" />
    <glyph glyph-name="fraction" unicode="&#x2044;" horiz-adv-x="911" 
d="M901 1446l-612 -1446h-277l611 1446h278z" />
    <glyph glyph-name="Euro" unicode="&#x20ac;" horiz-adv-x="1298" 
d="M567 414q89 -219 317 -219q128 0 275 63l98 -197q-78 -41 -186 -65.5t-194 -24.5q-244 0 -379.5 126t-184.5 317h-202l-25 196h197q-4 40 -4 73t6 93h-174l-25 197h229q55 199 198.5 323.5t375.5 124.5q61 0 163.5 -20.5t192.5 -69.5l-82 -190q-90 27 -136.5 42
t-148.5 15t-183 -59.5t-126 -165.5h430l21 -197h-494q-4 -40 -4 -82t4 -84h473l21 -196h-453z" />
    <glyph glyph-name="Turkishlira" unicode="&#x20ba;" horiz-adv-x="1185" 
d="M485 252q160 0 261.5 109.5t101.5 283.5h272q0 -291 -181 -468t-454 -177h-266v610l-137 -47l-39 205l176 61v86l-137 -51l-39 207l176 62v290l266 23v-217l308 106l36 -205l-344 -120v-84l308 106l36 -205l-344 -122v-453z" />
    <glyph glyph-name="Ruble" unicode="&#x20bd;" horiz-adv-x="1339" 
d="M696 1171h-164v-405h168q121 0 193 40t82 157q0 135 -74 171.5t-205 36.5zM532 242v-242h-264v242h-118l-23 209h141v98h-139v217h139v627h437q227 0 387.5 -88t160.5 -327t-173 -334t-394 -95h-154v-98h496l23 -209h-519z" />
    <glyph glyph-name="litre" unicode="&#x2113;" horiz-adv-x="882" 
d="M461 1110v-223q96 113 96 235q0 47 -17.5 65.5t-31.5 18.5q-47 -5 -47 -96zM193 1124q0 147 97 230.5t225 83.5t216 -80t88 -222t-105.5 -296t-252.5 -283v-190q0 -160 96 -160q75 0 135 49l90 -170q-122 -106 -254 -106q-184 0 -259.5 100t-75.5 262v14
q-21 -12 -38.5 -23t-37.5 -20l-66 242q84 51 142 94v475z" />
    <glyph glyph-name="trademark" unicode="&#x2122;" horiz-adv-x="1626" 
d="M1012 625h-191v768h94l281 -334l254 334h88v-768h-190v352l-119 -141l-58 -11l-159 176v-376zM63 1393h668l27 -148h-269v-620h-186v620h-240v148z" />
    <glyph glyph-name="Ohm" unicode="&#x2126;" horiz-adv-x="1517" 
d="M1124 705q0 231 -100 363t-265 132t-265.5 -132t-100.5 -363q0 -166 56.5 -302.5t158.5 -187.5v-215h-491l-11 215h177q-82 86 -124 223t-42 275q0 322 168 513t473 191t474 -191.5t169 -512.5q0 -137 -42 -274.5t-124 -223.5h176l-12 -215h-490v215q104 51 159.5 187.5
t55.5 302.5z" />
    <glyph glyph-name="estimated" unicode="&#x212e;" horiz-adv-x="1062" 
d="M739 596q-31 197 -203 197q-80 0 -135 -50.5t-73 -146.5h411zM598 -25q-260 0 -407.5 141.5t-147.5 379t135 381t368 143.5t341 -154.5t108 -365.5v-82h-669q20 -98 89.5 -156.5t184.5 -58.5q70 0 126 17.5t128 49.5l76 -192q-70 -53 -169.5 -78t-162.5 -25z" />
    <glyph glyph-name="partialdiff" unicode="&#x2202;" horiz-adv-x="1144" 
d="M520 657q-102 0 -159.5 -68.5t-57.5 -154.5t57.5 -150.5t165.5 -64.5t177.5 71.5t87.5 188.5q-27 63 -98 120.5t-173 57.5zM1034 565q0 -283 -149.5 -424t-361.5 -141t-336 135t-124 304t126 300t329 131q107 0 217 -63q-57 115 -168.5 205t-255.5 123l121 176
q272 -55 437 -288t165 -458z" />
    <glyph glyph-name="Delta" unicode="&#x2206;" horiz-adv-x="1333" 
d="M662 1028l-306 -815h617zM780 1393l541 -1356l-266 -37h-1043l543 1393h225z" />
    <glyph glyph-name="product" unicode="&#x220f;" horiz-adv-x="1302" 
d="M895 0v1186h-489v-1186h-265v1393h1022v-1393h-268z" />
    <glyph glyph-name="summation" unicode="&#x2211;" horiz-adv-x="972" 
d="M43 0v207l346 498l-340 479v209h766l43 -209h-518l297 -432v-88l-307 -457h581l41 -207h-909z" />
    <glyph glyph-name="minus" unicode="&#x2212;" horiz-adv-x="921" 
d="M891 457h-840l-18 209h833z" />
    <glyph glyph-name="divisionslash" unicode="&#x2215;" horiz-adv-x="911" 
d="M901 1446l-612 -1446h-277l611 1446h278z" />
    <glyph glyph-name="bulletmath" unicode="&#x2219;" horiz-adv-x="571" 
d="M285 457q-92 0 -157 63.5t-65 154.5t65 156.5t157 65.5t157.5 -65.5t65.5 -156.5t-65.5 -154.5t-157.5 -63.5z" />
    <glyph glyph-name="radical" unicode="&#x221a;" horiz-adv-x="1271" 
d="M1262 1446l-611 -1446h-291l-348 657h277l205 -372l493 1161h275z" />
    <glyph glyph-name="infinity" unicode="&#x221e;" horiz-adv-x="1714" 
d="M521 958q202 0 351 -161q55 70 139.5 117t184.5 47q197 0 326 -119.5t129 -311.5t-128 -324t-323 -132q-102 0 -194.5 43t-161.5 119q-57 -70 -140 -118t-186 -48q-197 0 -326 120.5t-129 311t128 323.5t330 133zM297 504q0 -90 61.5 -153.5t154.5 -63.5t156.5 87
t90.5 183l6 33q-39 63 -105.5 105t-153.5 42t-148.5 -71.5t-61.5 -161.5zM1417 527q0 91 -61.5 153.5t-154.5 62.5t-156.5 -87t-90.5 -181l-6 -31q39 -68 105.5 -109.5t153.5 -41.5t148.5 71.5t61.5 162.5z" />
    <glyph glyph-name="integral" unicode="&#x222b;" horiz-adv-x="886" 
d="M686 1376q-58 0 -84.5 -49t-26.5 -125v-1198q0 -172 -95 -271.5t-279 -99.5q-49 0 -103.5 18.5t-85.5 45.5l74 190q74 -24 100 -24q72 0 97.5 50t25.5 126v1198q0 172 96.5 269.5t280.5 97.5q49 0 103.5 -17.5t87.5 -44.5l-80 -190q-54 24 -111 24z" />
    <glyph glyph-name="approxequal" unicode="&#x2248;" horiz-adv-x="1052" 
d="M1008 432q0 -162 -101.5 -207t-183.5 -45t-185.5 42t-213.5 42q-23 0 -49.5 -17.5t-28.5 -68.5l-201 41v14q0 160 100.5 205t172.5 45t193.5 -42t217.5 -42q20 0 46 19.5t30 70.5l203 -43v-14zM1008 844q0 -160 -101.5 -204t-183.5 -44t-185.5 42t-213.5 42
q-23 0 -49.5 -19.5t-28.5 -70.5l-201 43v14q0 160 100.5 204t172.5 44t193.5 -42t217.5 -42q20 0 46 19.5t30 70.5l203 -43v-14z" />
    <glyph glyph-name="notequal" unicode="&#x2260;" horiz-adv-x="1019" 
d="M877 1059l-101 -223h182l19 -199h-287l-100 -229h368l19 -197h-477l-109 -242l-237 11l102 231h-190l-23 197h299l107 229h-383l-23 199h489l103 223h242z" />
    <glyph glyph-name="lessequal" unicode="&#x2264;" horiz-adv-x="729" 
d="M690 0h-633l-12 184h635zM651 231l-608 328v164l608 330l43 -226l-350 -186l350 -186z" />
    <glyph glyph-name="greaterequal" unicode="&#x2265;" horiz-adv-x="729" 
d="M680 0h-633l-12 184h633zM686 559l-608 -328l-45 224l350 186l-350 186l45 226l608 -330v-164z" />
    <glyph glyph-name="lozenge" unicode="&#x25ca;" horiz-adv-x="1153" 
d="M309 614l266 -321l269 321l-269 322zM524 0l-481 575v76l481 578h107l479 -578v-76l-479 -575h-107z" />
    <glyph glyph-name="uni25CC" unicode="&#x25cc;" horiz-adv-x="1376" 
d="M686 0q-29 0 -47 18.5t-18 47t18 48t47 19.5t48.5 -19.5t19.5 -48t-19.5 -47t-48.5 -18.5zM891 35q-29 0 -47.5 18.5t-18.5 47t18.5 48t47.5 19.5t48 -19.5t19 -48t-19 -47t-48 -18.5zM485.5 168q28.5 0 47 -19.5t18.5 -48t-18.5 -47t-47 -18.5t-48 18.5t-19.5 47
t19.5 48t48 19.5zM309.5 281q28.5 0 47 -19.5t18.5 -48.5t-18.5 -47.5t-47 -18.5t-48 18.5t-19.5 47.5t19.5 48.5t48 19.5zM1067 147q-29 0 -47.5 18.5t-18.5 47.5t18.5 48.5t47.5 19.5t48.5 -19.5t19.5 -48.5t-19.5 -47.5t-48.5 -18.5zM202.5 463q28.5 0 47 -19.5t18.5 -48
t-18.5 -47t-47 -18.5t-48 18.5t-19.5 47t19.5 48t48 19.5zM1173.5 330q-28.5 0 -47 18.5t-18.5 47t18.5 48t47 19.5t48 -19.5t19.5 -48t-19.5 -47t-48 -18.5zM170 653q29 0 47.5 -19.5t18.5 -48t-18.5 -47t-47.5 -18.5t-48.5 18.5t-19.5 47t19.5 48t48.5 19.5zM1206.5 520
q-28.5 0 -47 18.5t-18.5 47t18.5 48t47 19.5t48 -19.5t19.5 -48t-19.5 -47t-48 -18.5zM202.5 848q28.5 0 47 -19.5t18.5 -48t-18.5 -47t-47 -18.5t-48 18.5t-19.5 47t19.5 48t48 19.5zM1173.5 715q-28.5 0 -47 18.5t-18.5 47t18.5 48t47 19.5t48 -19.5t19.5 -48t-19.5 -47
t-48 -18.5zM311.5 1028q28.5 0 47 -19.5t18.5 -48t-18.5 -47t-47 -18.5t-48 18.5t-19.5 47t19.5 48t48 19.5zM1065 895q-29 0 -47.5 18.5t-18.5 47t18.5 48t47.5 19.5t48.5 -19.5t19.5 -48t-19.5 -47t-48.5 -18.5zM485.5 1143q28.5 0 47 -19.5t18.5 -48t-18.5 -47t-47 -18.5
t-48 18.5t-19.5 47t19.5 48t48 19.5zM891 1010q-29 0 -47.5 18.5t-18.5 47t18.5 48t47.5 19.5t48 -19.5t19 -48t-19 -47t-48 -18.5zM686 1044q-29 0 -47 18.5t-18 47.5t18 48.5t47 19.5t48.5 -19.5t19.5 -48.5t-19.5 -47.5t-48.5 -18.5z" />
    <glyph glyph-name="commaaccent" unicode="&#xf6c3;" horiz-adv-x="356" 
d="M172.5 -43q63.5 0 107.5 -51.5t44 -149.5t-70 -194.5t-168 -143.5l-57 125q27 10 59.5 41t46.5 74q-37 0 -76 45t-39 101t44.5 104.5t108 48.5z" />
    <glyph glyph-name="fi" unicode="&#xfb01;" horiz-adv-x="1288" 
d="M552 1208q-56 0 -88 -50t-32 -128v-57h189l84 -207h-273v-766h-266v766h-154v207h154v94q0 172 101 271t286 100q47 0 106 -18t93 -46l-76 -192q-67 26 -124 26zM1155 993v-993h-266v993h266zM1023 1434q62 0 106 -43q45 -43 45 -107t-44 -106q-44 -43 -107 -43
q-62 0 -105 43t-44 106q0 62 44 106t105 44z" />
    <glyph glyph-name="fl" unicode="&#xfb02;" horiz-adv-x="1308" 
d="M552 1208q-56 0 -88 -50t-32 -128v-57h189l84 -207h-273v-766h-266v766h-154v207h154v94q0 172 101 271t286 100q47 0 106 -18t93 -46l-76 -192q-67 26 -124 26zM1167 0h-264v1423l264 23v-1446z" />
    <glyph glyph-name="grave.case" horiz-adv-x="460" 
d="M33 1849h274l123 -336h-203z" />
    <glyph glyph-name="dieresis.case" horiz-adv-x="722" 
d="M559 1806q55 0 93 -38.5t38 -94t-38 -93.5t-93 -38t-95 38t-40 93.5t40 94t95 38.5zM167 1806q56 0 93 -38.5t37 -94t-37 -93.5t-93 -38t-95 38t-39 93.5t39 94t95 38.5z" />
    <glyph glyph-name="macron.case" horiz-adv-x="600" 
d="M33 1774h536v-211h-536v211z" />
    <glyph glyph-name="acute.case" horiz-adv-x="460" 
d="M156 1849h274l-194 -336h-203z" />
    <glyph glyph-name="circumflex.case" horiz-adv-x="831" 
d="M285 1513h-252l311 336h145l312 -336h-244l-135 134z" />
    <glyph glyph-name="caron.case" horiz-adv-x="831" 
d="M33 1849h252l137 -133l135 133h244l-312 -336h-145z" />
    <glyph glyph-name="breve.case" horiz-adv-x="667" 
d="M635 1849q0 -129 -74 -231t-227 -105q-154 2 -227.5 104.5t-73.5 231.5h182q0 -53 25.5 -99t92.5 -46t95.5 46t28.5 99h178z" />
    <glyph glyph-name="dotaccent.case" horiz-adv-x="366" 
d="M184.5 1825q63.5 0 105.5 -44t42 -107.5t-42 -106.5t-105.5 -43t-107.5 43t-44 106.5t44 107.5t107.5 44z" />
    <glyph glyph-name="ring.case" horiz-adv-x="503" 
d="M252 1642q33 0 56.5 25t23.5 57.5t-23.5 56t-56.5 23.5t-57.5 -23.5t-24.5 -56t24.5 -57.5t57.5 -25zM252 1931q88 0 153.5 -59.5t65.5 -147.5t-65.5 -144t-153.5 -56t-153.5 56t-65.5 144t65.5 147.5t153.5 59.5z" />
    <glyph glyph-name="tilde.case" horiz-adv-x="737" 
d="M211 1536h-176q0 137 68.5 191.5t147.5 54.5t127 -36t88 -36t56.5 19.5t16.5 44.5h166q0 -139 -69 -193.5t-148 -54.5t-121.5 36.5t-82.5 36.5t-56.5 -21.5t-16.5 -41.5z" />
    <glyph glyph-name="hungarumlaut.case" horiz-adv-x="823" 
d="M156 1849h252l-195 -336h-180zM539 1849h254l-197 -336h-180z" />
    <glyph glyph-name="dv_La.MAR" horiz-adv-x="1636" 
d="M977 1165h-965l-35 228h1651l33 -228h-393v-166q115 -43 189.5 -139t74.5 -207q0 -156 -64.5 -308t-189.5 -394l-225 78q125 258 174 386t49 204.5t-45 121.5t-117 45t-114 -58t-42 -155v-303l-258 27v276q0 213 -174 213q-74 0 -119 -45t-45 -121.5t49.5 -204.5
t178.5 -386l-230 -78q-127 242 -190.5 394.5t-63.5 303.5t125 266t301.5 115t292.5 -108q57 60 152 88v155z" />
    <glyph glyph-name="dv_Sha.MAR" horiz-adv-x="1693" 
d="M328 1165h-316l-35 228h1704l35 -228h-227v-1198l-291 33v1165h-582v-98q166 -43 238 -163t72 -245q0 -255 -322 -395l158 -241l-268 -68l-152 285h-72q-47 0 -81.5 22.5t-41.5 61.5q0 100 84 195t179 95q33 0 63.5 -42t44.5 -80q144 50 144 176q0 94 -69 140t-164 46
t-239 -96l-98 205q94 75 236 108v94z" />
    <glyph glyph-name="dv_oldJha" horiz-adv-x="2189" 
d="M1124 436h-444q0 -47 -22.5 -99t-67.5 -52q-104 0 -204.5 70.5t-100.5 187.5q0 59 40 89t105 30v241q-8 -2 -15 -2h-40q-125 0 -204 75t-79 193.5t88 190.5t199 72q154 0 242 -99.5t88 -265.5v-405h415v503h-186l-37 228h1278l33 -228h-797v-211q39 29 104.5 47.5
t116.5 18.5q217 0 349.5 -130t132.5 -330t-157 -319.5t-349 -119.5l-47 239q119 0 198.5 58.5t79.5 151.5t-59.5 151.5t-149.5 58.5q-146 0 -219 -116v-697l-291 33v436z" />
    <glyph glyph-name="dv_KSsa" horiz-adv-x="1673" 
d="M1036 866h146v527h483l33 -228h-228v-1198l-288 33v639h-148q-121 0 -256 28.5t-246 84.5q-63 -49 -116.5 -114t-53.5 -110q0 -78 58.5 -117.5t105 -39.5t86.5 4q-2 8 -2 16v17q0 70 41 111.5t115 41.5t148.5 -50t74.5 -126.5t-61 -153.5q33 -57 70.5 -118.5t68.5 -114.5
l-229 -86l-129 235q-112 -20 -168 -20q-178 0 -313.5 98.5t-135.5 298.5q0 109 75 203t161 150q-51 47 -88 104t-37 156.5t82 196t230.5 96.5t226 -93.5t77.5 -206.5q0 -70 -15.5 -115.5t-62.5 -92.5q114 -56 295 -56z" />
    <glyph glyph-name="dv_JNya" horiz-adv-x="1693" 
d="M12 369.5q0 72.5 40 109.5t108 37t133 -48t92 -114q58 -8 104 -8q111 0 175.5 58.5t64.5 140.5t-45 135t-154 53h-127l-32 225h827v207h-1186l-35 228h1704l35 -228h-227v-1198l-291 33v733h-231q32 -85 32 -170q0 -244 -154.5 -350.5t-324.5 -106.5h-14
q85 -109 139 -169l-190 -138l-256 346q-63 27 -125 89.5t-62 135z" />
    <glyph glyph-name="dv_Jha.NEP" horiz-adv-x="1075" 
d="M217 887q39 0 51.5 24.5t12.5 57.5t-30 99.5t-63 96.5h-176l-35 228h1086l33 -228h-647q22 -33 40 -69q250 -2 383.5 -117t133.5 -287q0 -127 -77 -230.5t-243 -154.5l195 -307l-267 -68l-192 349l-74 2q-47 0 -79.5 23.5t-41.5 64.5q0 96 84 191t178 95q31 0 62 -41
t45 -81q141 46 141 167q0 82 -61.5 120t-157.5 40q-20 -86 -90 -144.5t-152.5 -58.5t-140 18.5t-108.5 63.5l106 179q45 -33 84 -33z" />
    <glyph glyph-name="dv_Reph" horiz-adv-x="0" 
d="M-326 1599q0 -109 99 -219h-275q-39 45 -62.5 119t-23.5 137q0 125 92.5 225.5t239.5 100.5q90 0 166 -38t108 -77l-110 -188q-27 25 -54.5 43t-73.5 18t-76 -37.5t-30 -83.5z" />
    <glyph glyph-name="dv_Reph.MAR" horiz-adv-x="1064" 
d="M532.5 418q-143.5 0 -277.5 61.5t-220 229.5l201 122q47 -100 137 -144t160.5 -44t154.5 39.5t143 148.5l199 -122q-86 -170 -220 -230.5t-277.5 -60.5zM1087 1165h-1075l-35 228h1076z" />
    <glyph glyph-name="dv_Rakar" horiz-adv-x="0" 
d="M182 -362l-182 112l307 279h199l305 -279l-168 -112l-229 202z" />
    <glyph glyph-name="dv_MatraI.1" 
d="M129 1563q0 166 127 275.5t352 109.5q309 0 681 -122t515 -222l-104 -179q-184 115 -511 201t-542 86q-123 0 -184.5 -54t-61.5 -116t18.5 -96.5t29.5 -52.5h231l37 -228h-228v-1198l-290 33v1165h-187l-35 228h189q-37 56 -37 170z" />
    <glyph glyph-name="dv_MatraI.2" 
d="M129 1563q0 166 122 275.5t345 109.5q395 0 983 -142.5t772 -201.5l-104 -179q-203 61 -753 174t-859 113q-123 0 -178.5 -54t-55.5 -116t18.5 -96.5t29.5 -52.5h231l37 -228h-228v-1198l-290 33v1165h-187l-35 228h189q-37 56 -37 170z" />
    <glyph glyph-name="dv_MatraI.3" 
d="M129 1563q0 166 121.5 275.5t363.5 109.5t733.5 -140.5t665.5 -203.5l-104 -179q-217 68 -650.5 177.5t-623.5 109.5q-123 0 -178.5 -54t-55.5 -116t18.5 -96.5t29.5 -52.5h231l37 -228h-228v-1198l-290 33v1165h-187l-35 228h189q-37 56 -37 170z" />
    <glyph glyph-name="dv_MatraI.4" 
d="M129 1563q0 166 110.5 275.5t340.5 109.5t418 -129t270 -215l-105 -179q-121 106 -252 196.5t-277 90.5t-189.5 -54t-43.5 -116t18.5 -96.5t29.5 -52.5h231l37 -228h-228v-1198l-290 33v1165h-187l-35 228h189q-37 56 -37 170z" />
    <glyph glyph-name="dv_MatraIReph" 
d="M1714 1599q0 -110 98 -219h-274q-17 17 -31 45q-182 115 -427.5 201t-432.5 86q-123 0 -184.5 -54t-61.5 -116t18.5 -96.5t29.5 -52.5h231l37 -228h-228v-1198l-290 33v1165h-187l-35 228h189q-37 56 -37 170q0 166 127 275.5t341 109.5t451.5 -81t409.5 -171
q20 106 108.5 186t217.5 80q90 0 165.5 -38t108.5 -77l-110 -188q-27 25 -54.5 43t-73.5 18t-76 -37.5t-30 -83.5z" />
    <glyph glyph-name="dv_MatraIReph.1" 
d="M1903 1599q0 -110 98 -219h-275q-12 12 -32 47q-184 115 -509 200t-538 85q-123 0 -184.5 -54t-61.5 -116t18.5 -96.5t29.5 -52.5h231l37 -228h-228v-1198l-290 33v1165h-187l-35 228h189q-37 56 -37 170q0 166 127.5 275.5t363.5 109.5t533 -83t492 -175
q20 111 108 191.5t219 80.5q90 0 166 -38t109 -77l-111 -188q-27 25 -54.5 43t-73.5 18t-75.5 -37.5t-29.5 -83.5z" />
    <glyph glyph-name="dv_MatraIReph.2" 
d="M2331 1599q0 -110 98 -219h-275q-24 27 -49 82q-274 70 -738 160t-732 90q-123 0 -178.5 -54t-55.5 -116t18.5 -96.5t29.5 -52.5h231l37 -228h-228v-1198l-290 33v1165h-187l-35 228h189q-37 56 -37 170q0 166 122 275.5t345 109.5q301 0 739.5 -91.5t737.5 -173.5
q16 111 105 195t222 84q90 0 166 -38t109 -77l-111 -188q-27 25 -54.5 43t-73.5 18t-75.5 -37.5t-29.5 -83.5z" />
    <glyph glyph-name="dv_MatraIReph.3" 
d="M2064 1599q0 -109 99 -219h-275q-28 34 -41 64q-238 72 -636.5 170t-548.5 98t-205.5 -54t-55.5 -116t18.5 -96.5t29.5 -52.5h231l37 -228h-228v-1198l-290 33v1165h-187l-35 228h189q-37 56 -37 170q0 166 122 275.5t337 109.5t586.5 -97.5t629.5 -179.5
q12 115 103.5 203t226.5 88q90 0 166 -38t108 -77l-110 -188q-27 25 -54.5 43t-73.5 18t-76 -37.5t-30 -83.5z" />
    <glyph glyph-name="dv_MatraIReph.4" 
d="M1317 1599q0 -110 98 -219h-274q-31 36 -64 119q-100 88 -213.5 150.5t-243.5 62.5t-174.5 -54t-44.5 -116t18.5 -96.5t29.5 -52.5h231l37 -228h-228v-1198l-290 33v1165h-187l-35 228h189q-37 56 -37 170q0 166 110.5 275.5t347.5 109.5t494 -185q35 84 116 141.5
t180 57.5t175 -38t109 -77l-111 -188q-27 25 -54.5 43t-73.5 18t-75.5 -37.5t-29.5 -83.5z" />
    <glyph glyph-name="dv_MatraIi.1" 
d="M-1051 1664q0 116 111 200t313 84q348 0 663.5 -188.5t414.5 -366.5h229l37 -228h-228v-1198l-290 33v1165h-187l-35 228h183q-72 104 -303.5 210.5t-468.5 106.5q-80 0 -118 -29.5t-38 -48.5q0 -47 39 -94l-270 -55q-52 65 -52 181z" />
    <glyph glyph-name="dv_MatraIi.2" 
d="M-700 1662q0 118 97 202t257 84q250 0 480.5 -185.5t316.5 -369.5h229l37 -228h-228v-1198l-290 33v1165h-187l-35 228h183q-53 104 -185.5 210.5t-285.5 106.5q-55 0 -81 -30.5t-26 -61.5t37 -80l-270 -55q-49 61 -49 179z" />
    <glyph glyph-name="dv_MatraIiReph.1" 
d="M371 1599q0 -104 86 -206h223l37 -228h-228v-1198l-290 33v1165h-187l-35 228h183q-72 104 -303.5 210.5t-468.5 106.5q-80 0 -118 -29.5t-38 -48.5q0 -47 39 -94l-270 -55q-52 66 -52 181q0 116 111.5 200t311.5 84t395.5 -69t349.5 -169q25 102 111 177t194 75t184 -38
t109 -77l-111 -188q-27 25 -54.5 43t-73.5 18t-75.5 -37.5t-29.5 -83.5z" />
    <glyph glyph-name="dv_MatraIiReph.2" 
d="M377 1599q0 -104 86 -206h217l37 -228h-228v-1198l-290 33v1165h-187l-35 228h183q-53 104 -185.5 210.5t-285.5 106.5q-55 0 -81 -30.5t-26 -61.5t37 -80l-270 -55q-49 62 -49 179q0 118 97 202t241 84q257 0 501 -189q35 86 116 144.5t181 58.5t176 -38t109 -77
l-111 -188q-27 25 -54.5 43t-73.5 18t-75.5 -37.5t-29.5 -83.5z" />
    <glyph glyph-name="dv_MatraIiReph" 
d="M-100 1710q-62 0 -62 -84q0 -35 41 -88l-272 -55q-51 59 -51 178t92 203t243 84t289 -125q43 61 114 100t160 39t164.5 -38t108.5 -77l-111 -188q-27 25 -54 43t-73 18t-76 -37.5t-30 -75.5t10 -83q29 -61 58 -131h229l37 -228h-228v-1198l-290 33v1165h-187l-35 228h183
q-35 100 -102.5 208.5t-157.5 108.5z" />
    <glyph glyph-name="dv_MatraEReph" horiz-adv-x="0" 
d="M-265 1671q-65 0 -65 -80q0 -33 27 -93t55 -97l154 -152h-334l-606 561l209 166l264 -262q25 78 91.5 131t147.5 53t137 -17t107 -64l-104 -179q-45 33 -83 33z" />
    <glyph glyph-name="dv_MatraAiReph" horiz-adv-x="0" 
d="M-219 1720q-59 0 -64 -86l60 -258h-252q-70 70 -122 101.5t-165 31.5h-205l-55 246h248q63 0 116.5 -5t104.5 -32l-94 291l262 74l35 -154q42 17 100 17q136 0 223 -84l-106 -176q-51 34 -86 34z" />
    <glyph glyph-name="dv_MatraOReph" 
d="M371 1599q0 -104 86 -206h223l37 -228h-228v-1198l-290 33v1165h-187l-35 228h138l-453 417l209 166l250 -250q29 98 113 167t190 69t182 -38t109 -77l-111 -188q-27 25 -54.5 43t-73.5 18t-75.5 -37.5t-29.5 -83.5z" />
    <glyph glyph-name="dv_MatraAuReph" 
d="M501 1962q78 0 154 -38t109 -77l-111 -188q-27 25 -54.5 43t-72.5 18t-74.5 -34.5t-31.5 -77.5l49 -215h211l37 -228h-228v-1198l-290 33v1165h-187l-35 228h228q-63 61 -114.5 88.5t-156.5 27.5h-206l-54 246h246q63 0 117.5 -5t105.5 -32l-94 291l262 74l35 -154
q77 33 155 33z" />
    <glyph glyph-name="dv_RakarMatraU" horiz-adv-x="0" 
d="M424 -776q53 0 80.5 26.5t27.5 68.5t-28.5 70.5t-79.5 28.5h-156v228h174q123 0 228.5 -85t105.5 -239t-105.5 -241t-252 -87t-286.5 104.5t-253 283.5l174 118q109 -125 193 -200.5t178 -75.5zM182 -362l-182 112l307 279h199l305 -279l-168 -112l-229 202z" />
    <glyph glyph-name="dv_RakarMatraUu" horiz-adv-x="0" 
d="M418 -582q-55 0 -83 -27.5t-28 -69.5t30 -69.5t81 -27.5h155v-230h-174q-123 0 -229.5 87.5t-106.5 241t106.5 238.5t253 85t286 -103.5t252.5 -281.5l-175 -119q-106 125 -190 200.5t-178 75.5zM182 -362l-182 112l307 279h199l305 -279l-168 -112l-229 202z" />
    <glyph glyph-name="dv_KRa" horiz-adv-x="1851" 
d="M82 612q0 190 132 319.5t345 129.5q53 0 127 -23.5t102 -56.5v184h-776l-35 228h1864l33 -228h-797v-178q29 27 97.5 51.5t123.5 24.5q217 0 349.5 -130t132.5 -330t-156 -319.5t-350 -119.5l-47 239q119 0 198.5 58.5t79.5 151.5t-59.5 151.5t-147.5 58.5
q-142 0 -221 -116v-740l-289 33v160l-499 -283l-187 166l269 152q-133 49 -211 160.5t-78 256.5zM354 612q0 -92 69 -150.5t147.5 -58.5t134 34t83.5 77v195q-29 45 -84 78.5t-134 33.5t-147.5 -58.5t-68.5 -150.5z" />
    <glyph glyph-name="dv_KRa.NEP" horiz-adv-x="1798" 
d="M406 741q-54 0 -232 -75l-111 243q70 33 177.5 59.5t165 26.5t142.5 -13t185 -79v262h-721l-35 228h1813l33 -228h-801v-211q41 29 106.5 47.5t116.5 18.5q215 0 348 -130t133 -330t-156.5 -319.5t-348.5 -119.5l-50 239q121 0 200 58.5t79 151.5t-58.5 151.5
t-147.5 58.5t-140 -36.5t-82 -79.5v-697l-289 33v356l-407 -254l-158 217l496 304q-135 118 -258 118z" />
    <glyph glyph-name="dv_KhRa" horiz-adv-x="1961" 
d="M522 948q0 132 -65 217h-445l-35 228h1975l33 -228h-228v-1198l-289 33v203l-612 -426l-186 166l121 80q-233 45 -381 177t-187 287l-53 2q-47 2 -81 25t-40 61q0 96 90 192.5t183 96.5q33 0 59.5 -35.5t40.5 -76.5q39 25 69.5 80t30.5 116zM1466 665q0 75 -44 114.5
t-96 39.5t-95 -41t-43 -115.5t44 -114.5t96 -40t95 41t43 116zM786 932q0 -125 -78.5 -241t-205.5 -169q33 -96 157.5 -195.5t327.5 -99.5q57 0 88 8.5t64 16.5l49 35q-139 35 -216 143.5t-77 231.5q0 172 119 287.5t313 115.5q80 0 141 -21v121h-716q34 -108 34 -233z" />
    <glyph glyph-name="dv_GRa" horiz-adv-x="1431" 
d="M938 1165h-387v-688q0 -70 -31 -110.5t-88 -40.5q-117 0 -214 108.5t-97 196.5q0 39 47 64.5t92 25.5v444h-248l-35 228h1442l33 -228h-225v-1198l-289 33v285l-567 -408l-187 166l754 518v604z" />
    <glyph glyph-name="dv_GhRa" horiz-adv-x="1462" 
d="M150 1061q0 53 14 104h-152l-35 228h1473l35 -228h-225v-1198l-291 33v309l-566 -432l-186 166l176 127q-123 43 -194.5 140.5t-71.5 236.5q0 182 119 278q-45 45 -70.5 114t-25.5 122zM422 1074.5q0 -60.5 48 -103.5t134 -43h101l40 -223h-127q-100 0 -152 -47t-52 -117
t52 -109t130.5 -39t140.5 27l232 168v577h-508q-39 -30 -39 -90.5z" />
    <glyph glyph-name="dv_CRa" horiz-adv-x="1486" 
d="M250 637q0 98 43 178h-191l-32 225h714l33 -225h-65q-121 0 -180.5 -48t-59.5 -130t68.5 -131t153.5 -49t163 42t98 105v561h-983l-35 228h1498l34 -228h-227v-1198l-287 33v246l-561 -369l-186 166l315 199q-135 39 -224 138t-89 257z" />
    <glyph glyph-name="dv_JRa" horiz-adv-x="1775" 
d="M705 545q0 82 -44.5 135t-154.5 53h-127l-33 225h938v207h-1272l-35 228h1788l35 -228h-229v-1198l-287 33v258l-405 -401l-187 166l592 555v155h-340q31 -96 31 -170q0 -244 -158 -350.5t-342 -106.5q-125 0 -241.5 45.5t-198.5 98.5l51 260q211 -164 379 -164
q111 0 175.5 58.5t64.5 140.5z" />
    <glyph glyph-name="dv_JhRa" horiz-adv-x="1921" 
d="M104 226.5q0 72.5 40 109.5t110 37t134.5 -48.5t90.5 -113.5q60 -6 122 -5t114.5 38t52.5 84q0 108 -121 108h-188q-133 0 -245 86t-112 237t102.5 232.5t252.5 81.5h200v92h-645l-35 228h1932l35 -228h-228v-1198l-291 33v225l-208 -274l-226 106l260 291h-190l2 -16
q0 -139 -125 -249t-340 -118l139 -174l-190 -135l-256 344q-63 31 -125 92.5t-62 134zM631 676q237 0 350 -117h444v606h-485v-334h-475q-43 0 -67.5 -22.5t-24.5 -53t27.5 -55t68.5 -24.5h162z" />
    <glyph glyph-name="dv_TRa" horiz-adv-x="1228" 
d="M406 741q-54 0 -232 -75l-111 243q70 33 177.5 59.5t165 26.5t142.5 -13t185 -79v262h-721l-35 228h1240l34 -228h-227v-1198l-291 33v356l-407 -254l-158 217l496 304q-135 118 -258 118z" />
    <glyph glyph-name="dv_TRa.alt" horiz-adv-x="1476" 
d="M582 737q-189 0 -189 -133q0 -86 81 -225t216 -348l-260 -76q-104 152 -211.5 331t-107.5 329.5t99 252t284 101.5h493v196h-975l-35 228h1491l33 -228h-225v-1198l-289 33v526l-246 -237l-186 166l326 282h-299z" />
    <glyph glyph-name="dv_ThRa" horiz-adv-x="1466" 
d="M973 1165h-187l-34 228h702l35 -228h-225v-1198l-291 33v360l-596 -483l-187 166l381 285q-150 41 -258 155.5t-108 253.5l55 72q56 16 140.5 67.5t84.5 161.5q-8 -33 -54 -56.5t-120.5 -23.5t-146.5 57.5t-72 164.5t83 179.5t217 72.5t232.5 -105.5t98.5 -269.5
t-74 -251t-160 -138q87 -117 234 -117q88 0 161.5 49t88.5 133v432z" />
    <glyph glyph-name="dv_DRa" horiz-adv-x="1288" 
d="M1135 384q0 -77 -62 -153q81 -139 139 -233l-229 -86l-127 235l-192 -335l-263 63l162 258q-215 25 -342 142.5t-127 328.5q0 244 178.5 351.5t442.5 107.5v102h-703l-35 228h1301l33 -228h-305v-331h-297q-154 0 -253.5 -57.5t-99.5 -171.5t94.5 -174t235.5 -60
q30 0 72 4l-2 33q0 70 41 111.5t113.5 41.5t148.5 -50t76 -127z" />
    <glyph glyph-name="dv_DhRa" horiz-adv-x="1564" 
d="M422 1056q0 -50 48 -89t134 -39h66l75 -223h-127q-100 0 -158.5 -42t-58.5 -117t64.5 -129.5t181.5 -54.5q64 0 156 33l268 193v577h-190l-33 228h706l33 -228h-227v-1198l-289 33v311l-567 -434l-187 166l142 102q-178 41 -260 154t-82 248q0 86 46 166t107 112
q-51 35 -85.5 109t-34.5 143q0 133 103 238.5t271 105.5q100 0 164 -35.5t105 -74.5l-138 -187q-51 45 -106.5 45t-91 -31.5t-35.5 -81.5z" />
    <glyph glyph-name="dv_NRa" horiz-adv-x="1302" 
d="M214 602q-71 0 -127 108.5t-56 179.5t27.5 125t81.5 54t106 -25l563 -264v385h-797l-35 228h1315l33 -228h-227v-1198l-289 33v381l-473 -504l-186 166l544 545l-323 149q-18 -31 -52 -83t-105 -52z" />
    <glyph glyph-name="dv_PRa" horiz-adv-x="1392" 
d="M152 766v399h-140l-35 228h1403l35 -228h-227v-1198l-289 33v332l-561 -455l-186 166l372 279q-160 33 -266 148.5t-106 295.5zM442 766q0 -100 57.5 -157.5t154 -57.5t164 48t81.5 130v436h-457v-399z" />
    <glyph glyph-name="dv_PhRa" horiz-adv-x="1961" 
d="M152 766v399h-140l-35 228h1975l35 -228h-799v-211q41 29 106.5 47.5t116.5 18.5q215 0 348 -130t133 -330t-155.5 -319.5t-352.5 -119.5l-47 239q121 0 201 58.5t80 151.5t-59.5 151.5t-148.5 58.5t-140 -36.5t-82 -79.5v-697l-289 33v332l-561 -455l-186 166l372 279
q-160 33 -266 148.5t-106 295.5zM442 766q0 -100 57.5 -157.5t154 -57.5t164 48t81.5 130v436h-457v-399z" />
    <glyph glyph-name="dv_BRa" horiz-adv-x="1292" 
d="M82 606q0 190 138 322.5t351 132.5q53 0 120 -18.5t108 -47.5v170h-787l-35 228h1305l33 -228h-228v-1198l-288 33v166l-510 -289l-187 166l263 147q-129 51 -206 163t-77 253zM354 596.5q0 -82.5 64.5 -144t142.5 -61.5t125 19l-289 327q-43 -58 -43 -140.5zM565 825
q-40 0 -61 -12l282 -319q10 10 13 20v186q-29 45 -84.5 85t-149.5 40z" />
    <glyph glyph-name="dv_BhRa" horiz-adv-x="1617" 
d="M680 436q0 -47 -22.5 -99t-67.5 -52q-104 0 -204.5 70.5t-100.5 187.5q0 59 40 89t105 30v241q-8 -2 -15 -2h-40q-125 0 -204 75t-79 193.5t88 190.5t199 72q154 0 242 -99.5t88 -265.5v-405h415v503h-186l-37 228h707l32 -228h-225v-1198l-291 33v344l-575 -467
l-187 166l525 393h-207z" />
    <glyph glyph-name="dv_MRa" horiz-adv-x="1415" 
d="M475 436q0 -47 -21.5 -99t-66.5 -52q-104 0 -204.5 70.5t-100.5 187.5q0 59 41 89t104 30v503h-215l-35 228h1428l35 -228h-228v-1198l-288 33v344l-576 -467l-186 166l524 393h-211zM924 1165h-418v-503h418v503z" />
    <glyph glyph-name="dv_YRa" horiz-adv-x="1363" 
d="M276 994.5q0 66.5 -28.5 110.5t-69.5 60h-166l-35 228h1377l32 -228h-227v-1198l-289 33v344l-575 -467l-186 166l376 281q-154 39 -268.5 155.5t-114.5 257.5l54 58q45 14 82.5 73.5t37.5 126zM532 995q0 -203 -155 -311q27 -41 82 -87t151 -46t171 49t89 133v432h-372
q34 -80 34 -170z" />
    <glyph glyph-name="dv_LRa" horiz-adv-x="1755" 
d="M1249 684q-39 109 -149 109q-58 0 -100 -61.5t-42 -158.5v-190l-258 27v163q0 213 -174 213q-74 0 -119 -45t-45 -121.5t49.5 -204.5t178.5 -386l-230 -78q-127 242 -190.5 394.5t-63.5 303.5t125 266t301.5 115t292.5 -108q104 108 289 108q84 0 148 -35v170h-1250
l-35 228h1766l35 -228h-228v-1198l-288 33v315l-328 -438l-186 166z" />
    <glyph glyph-name="dv_VRa" horiz-adv-x="1280" 
d="M82 610q0 190 132 320.5t345 130.5q53 0 121 -19.5t108 -50.5v174h-776l-35 228h1293l33 -228h-226v-1198l-289 33v160l-499 -283l-187 166l267 150q-133 49 -210 161.5t-77 255.5zM354 611q0 -93 59.5 -150.5t141.5 -59.5q111 0 158 40t75 85v172q-29 43 -76.5 83
t-143 40t-155 -58.5t-59.5 -151.5z" />
    <glyph glyph-name="dv_ShRa" horiz-adv-x="1425" 
d="M211 1138.5q0 110.5 91 201t220 90.5t220.5 -90.5t91.5 -215.5q0 -66 -29 -147.5t-90 -132.5l217 -168v717h483l33 -228h-227v-1198l-289 33v369l-578 -406l-90 240l459 323l-201 154l-362 -285l-113 230l283 219q-41 51 -80 117.5t-39 177z" />
    <glyph glyph-name="dv_SsRa" horiz-adv-x="1392" 
d="M152 766v399h-140l-35 228h1403l35 -228h-227v-1198l-289 33v332l-561 -455l-186 166l372 279q-160 33 -266 148.5t-106 295.5zM442 766q0 -100 58 -157.5t163.5 -57.5t170.5 59q-196 252 -392 490v-334zM899 1165h-338l338 -409v409z" />
    <glyph glyph-name="dv_SRa" horiz-adv-x="1669" 
d="M532 954q0 133 -65 211h-455l-35 228h1684l35 -228h-230v-1198l-288 33v385l-353 -360l-268 -68l-305 530l-72 2q-47 0 -79.5 24t-41.5 62q0 96 85 192.5t178 96.5q55 0 98 -119q55 33 83.5 92.5t28.5 116.5zM559 545q-44 -22 -47 -23l190 -303l320 326h-463zM797 955
q0 -111 -39 -195h420v405h-416q35 -99 35 -210z" />
    <glyph glyph-name="dv_HRa" horiz-adv-x="1138" 
d="M766 489q0 44 -43 74l-57 -229l-203 37l61 223q-57 -16 -89 -62.5t-32 -101.5q0 -113 125 -167t267 -62l-62 -234q-240 12 -416 131t-176 332q0 133 80 240q-69 65 -69 194t96 194.5t225 65.5h137v41h-602l-31 228h1149l35 -228h-237v-256h-416q-76 0 -76 -49
q0 -33 25 -43q66 17 133 17q207 0 322.5 -100.5t115.5 -235.5q0 -178 -137 -267l-182 134q57 46 57 124z" />
    <glyph glyph-name="dv_QRa" horiz-adv-x="1851" 
d="M641 -319q-68 0 -114 46t-46 111t46 113.5t114 48.5t115 -48t47 -114t-47 -111.5t-115 -45.5zM82 612q0 190 132 319.5t345 129.5q53 0 127 -23.5t102 -56.5v184h-776l-35 228h1864l33 -228h-797v-178q29 27 97.5 51.5t123.5 24.5q217 0 349.5 -130t132.5 -330
t-156 -319.5t-350 -119.5l-47 239q119 0 198.5 58.5t79.5 151.5t-59.5 151.5t-147.5 58.5q-142 0 -221 -116v-740l-289 33v162l-454 -254l-232 135l269 152q-133 49 -211 160.5t-78 256.5zM354 612q0 -92 69 -150.5t147.5 -58.5t134 34t83.5 77v195q-29 45 -84 78.5
t-134 33.5t-147.5 -58.5t-68.5 -150.5z" />
    <glyph glyph-name="dv_KhhRa" horiz-adv-x="1961" 
d="M229.5 -160q-65.5 0 -112.5 47t-47 113t47 113t112.5 47t112.5 -47t47 -113t-47 -113t-112.5 -47zM522 948q0 132 -65 217h-445l-35 228h1975l33 -228h-228v-1198l-289 33v203l-612 -426l-186 166l121 80q-233 45 -381 177t-187 287l-53 2q-47 2 -81 25t-40 61
q0 96 90 192.5t183 96.5q33 0 59.5 -35.5t40.5 -76.5q39 25 69.5 80t30.5 116zM1466 665q0 75 -44 114.5t-96 39.5t-95 -41t-43 -115.5t44 -114.5t96 -40t95 41t43 116zM786 932q0 -125 -78.5 -241t-205.5 -169q33 -96 157.5 -195.5t327.5 -99.5q57 0 88 8.5t64 16.5l49 35
q-139 35 -216 143.5t-77 231.5q0 172 119 287.5t313 115.5q80 0 141 -21v121h-716q34 -108 34 -233z" />
    <glyph glyph-name="dv_GhhRa" horiz-adv-x="1431" 
d="M742 -319q-67 0 -112.5 47t-45.5 112.5t46 112.5t112.5 47t113.5 -47t47 -112.5t-47 -112.5t-114 -47zM938 1165h-387v-688q0 -70 -31 -110.5t-88 -40.5q-117 0 -214 87t-97 218q0 39 47 64.5t92 25.5v444h-248l-35 228h1442l33 -228h-225v-1198l-289 33v285l-567 -408
l-187 166l754 518v604z" />
    <glyph glyph-name="dv_ZRa" horiz-adv-x="1775" 
d="M312 -319q-67 0 -112.5 46t-45.5 111t46 113.5t112.5 48.5t114.5 -48t48 -114t-48 -111.5t-115 -45.5zM705 545q0 82 -44.5 135t-154.5 53h-127l-33 225h938v207h-1272l-35 228h1788l35 -228h-229v-1198l-287 33v258l-405 -401l-187 166l592 555v155h-340q31 -96 31 -170
q0 -244 -158 -350.5t-342 -106.5q-125 0 -241.5 45.5t-198.5 98.5l51 260q211 -164 379 -164q111 0 175.5 58.5t64.5 140.5z" />
    <glyph glyph-name="dv_FRa" horiz-adv-x="1961" 
d="M697 -276q-67 0 -112.5 47t-45.5 112.5t46 112.5t112.5 47t114.5 -47t48 -112.5t-48 -112.5t-115 -47zM152 766v399h-140l-35 228h1975l35 -228h-799v-211q41 29 106.5 47.5t116.5 18.5q215 0 348 -130t133 -330t-155.5 -319.5t-352.5 -119.5l-47 239q121 0 201 58.5
t80 151.5t-59.5 151.5t-148.5 58.5t-140 -36.5t-82 -79.5v-697l-289 33v332l-561 -455l-186 166l372 279q-160 33 -266 148.5t-106 295.5zM442 766q0 -100 57.5 -157.5t154 -57.5t164 48t81.5 130v436h-457v-399z" />
    <glyph glyph-name="dv_YyRa" horiz-adv-x="1363" 
d="M669 -276q-67 0 -113 47t-46 112.5t46 112.5t113 47t114.5 -47t47.5 -112.5t-47.5 -112.5t-114.5 -47zM276 994.5q0 66.5 -28.5 110.5t-69.5 60h-166l-35 228h1377l32 -228h-227v-1198l-289 33v344l-575 -467l-186 166l376 281q-154 39 -268.5 155.5t-114.5 257.5l54 58
q45 14 82.5 73.5t37.5 126zM532 995q0 -203 -155 -311q27 -41 82 -87t151 -46t171 49t89 133v432h-372q34 -80 34 -170z" />
    <glyph glyph-name="dv_KSsRa" horiz-adv-x="1832" 
d="M1036 866h303v527h484l32 -228h-227v-1198l-289 33v416l-102 -133l-225 106l223 250h-201q-121 0 -256 28.5t-246 84.5q-63 -49 -116.5 -114t-53.5 -110q0 -78 58.5 -117.5t105 -39.5t86.5 4q-2 8 -2 16v17q0 70 41 111.5t115 41.5t148.5 -50t74.5 -126.5t-61 -153.5
q33 -57 70.5 -118.5t68.5 -114.5l-229 -86l-129 235q-112 -20 -168 -20q-178 0 -313.5 98.5t-135.5 298.5q0 109 75 203t161 150q-51 47 -88 104t-37 156.5t82 196t230.5 96.5t226 -93.5t77.5 -206.5q0 -70 -15.5 -115.5t-62.5 -92.5q114 -56 295 -56z" />
    <glyph glyph-name="dv_KR.half" horiz-adv-x="1452" 
d="M82 612q0 190 132 319.5t345 129.5q53 0 127 -23.5t102 -56.5v184h-776l-35 228h1463l35 -228h-398v-178q29 27 97.5 44.5t123.5 17.5h375v-226h-368q-96 0 -147.5 -36.5t-80.5 -79.5v-740l-289 33v162l-454 -254l-232 135l269 152q-133 49 -211 160.5t-78 256.5z
M354 612q0 -92 69 -150.5t147 -58.5t134 34t84 77v195q-29 45 -84 78.5t-134 33.5t-147.5 -58.5t-68.5 -150.5z" />
    <glyph glyph-name="dv_GhR.half" horiz-adv-x="765" 
d="M422 1074q0 -60 48 -103t134 -43h101l40 -223h-127q-100 0 -152 -47.5t-52 -117.5t52 -108.5t131 -38.5t140 27l334 242l4 -271l-672 -514l-186 166l176 127q-123 43 -194.5 140.5t-71.5 236.5q0 182 119 278q-45 45 -70.5 114t-25.5 122t14 104h-152l-35 228h785
l35 -228h-336q-39 -31 -39 -91z" />
    <glyph glyph-name="dv_TR.half" horiz-adv-x="532" 
d="M406 741q-54 0 -232 -75l-111 243q70 33 177.5 59.5t165.5 26.5t142.5 -13t184.5 -79v-547l-407 -254l-158 217l496 304q-135 118 -258 118zM557 1165h-545l-35 228h545z" />
    <glyph glyph-name="dv_TR.half.alt" horiz-adv-x="772" 
d="M582 737q-189 0 -189 -133q0 -86 81 -225t216 -348l-260 -76q-104 152 -211.5 331.5t-107.5 329.5t99 251.5t284 101.5h493v-150l103 -192l-351 -338l-186 166l326 282h-297zM793 1165h-781l-35 228h783z" />
    <glyph glyph-name="dv_DhR.half" horiz-adv-x="860" 
d="M422 1056q0 -50 48 -89t134 -39h66l75 -223h-127q-100 0 -158.5 -42t-58.5 -117t64.5 -129.5t181.5 -54.5q64 0 156 33l368 267l5 -271l-672 -514l-187 166l142 102q-178 41 -260 154t-82 248q0 86 46 166t107 112q-51 35 -85.5 109t-34.5 143q0 133 103 238.5t271 105.5
q100 0 164 -35.5t105 -74.5l-138 -187q-51 45 -107 45q-55 0 -90.5 -31.5t-35.5 -81.5z" />
    <glyph glyph-name="dv_PR.half" 
d="M152 766v399h-140l-35 228h705l35 -228h-275v-399q0 -100 58 -157.5t154 -57.5t163.5 48t81.5 130l148 -16l-37 -291l-672 -545l-186 166l372 279q-160 33 -266 148.5t-106 295.5z" />
    <glyph glyph-name="dv_VR.half" horiz-adv-x="1064" 
d="M756 611q0 93 -59.5 151.5t-141.5 58.5t-141.5 -57.5t-59.5 -151.5t59.5 -151.5t141.5 -58.5t141.5 57.5t59.5 151.5zM82 610q0 190 132 320.5t344 130.5t341 -130t129 -319q0 -107 -49 -209l-18 -145l-672 -381l-187 166l267 150q-133 49 -210 161.5t-77 255.5z
M1087 1165h-1075l-35 228h1076z" />
    <glyph glyph-name="dv_ShR.half" horiz-adv-x="741" 
d="M211 1138q0 110 91 201t220 91t220.5 -90.5t91.5 -215.5q0 -66 -29 -147.5t-90 -132.5l217 -170l65 45v-397l-65 47l-578 -406l-90 240l459 323l-201 154l-362 -285l-113 230l283 219q-41 51 -80 117.5t-39 176.5z" />
    <glyph glyph-name="dv_SsR.half" horiz-adv-x="686" 
d="M442 766q0 -100 58 -157.5t163 -57.5t171 59q-196 252 -392 490v-334zM152 766v399h-140l-35 228h697l35 -228h-148l379 -465l107 13l-37 -291l-672 -545l-186 166l372 279q-160 33 -266 148.5t-106 295.5z" />
    <glyph glyph-name="dv_SR.half" horiz-adv-x="968" 
d="M559 545q-44 -22 -47 -23l190 -303l320 326h-463zM797 955q0 -111 -39 -195h422l69 14l25 -291l-449 -458l-268 -68l-305 532h-72q-47 0 -79.5 24t-41.5 62q0 96 85 192.5t178 96.5q55 0 98 -119q55 33 83.5 92.5t28.5 116.5q0 133 -65 211h-455l-35 228h981l35 -228
h-231q35 -99 35 -210z" />
    <glyph glyph-name="dv_GR.half" horiz-adv-x="729" 
d="M1038 631l4 -271l-671 -483l-187 166zM551 1165v-688q0 -70 -31 -110.5t-88 -40.5q-117 0 -214 91t-97 214q0 39 47 64.5t92 25.5v444h-248l-35 228h740l35 -228h-201z" />
    <glyph glyph-name="dv_DR.half" horiz-adv-x="1288" 
d="M1094 -748l-480 431l195 180l455 -459zM1135 384q0 -77 -62 -153q81 -139 139 -233l-229 -86l-127 235l-192 -335l-263 63l162 258q-215 25 -342 142.5t-127 328.5q0 244 178.5 351.5t442.5 107.5v102h-703l-35 228h1301l33 -228h-305v-331h-297q-154 0 -253.5 -57.5
t-99.5 -171.5t94.5 -174t235.5 -60q30 0 72 4l-2 33q0 70 41 111.5t113 41.5t148.5 -50t76.5 -127z" />
    <glyph glyph-name="dv_BhR.half" horiz-adv-x="921" 
d="M680 436q0 -47 -22.5 -99t-67.5 -52q-104 0 -204.5 70.5t-100.5 187.5q0 59 40 89t105 30v241q-8 -2 -10 -2h-45q-125 0 -204 75.5t-79 193.5t88 190t199 72q154 0 242 -99.5t88 -265.5v-405h415v-50l133 101l-36 -291l-672 -545l-187 166l525 393h-207z" />
    <glyph glyph-name="dv_GRYa" horiz-adv-x="2107" 
d="M1347 309q-141 0 -272 78l-704 -510l-187 166l725 498q-63 91 -63 196l53 58q45 14 83 73.5t38 126t-28.5 110.5t-69.5 60h-371v-688q0 -70 -31 -110.5t-88 -40.5q-117 0 -214 106.5t-97 198.5q0 39 47 64.5t92 25.5v444h-248l-35 228h2120l33 -228h-227v-1198l-289 33
v365q-126 -56 -267 -56zM1276 995q0 -203 -156 -311q27 -41 82 -87t151.5 -46t171 49t89.5 133v432h-373q35 -82 35 -170z" />
    <glyph glyph-name="dv_ChRYa" horiz-adv-x="2928" 
d="M1843 764q0 51 -145 51h-107q6 -48 6 -65q0 -231 -182 -474t-528 -294l252 -232l-170 -112l-232 202l-227 -202l-182 112l252 232q-201 29 -315.5 139t-114.5 278q0 104 65.5 196.5t173.5 115.5q-106 37 -158.5 133t-52.5 182t23 139h-189l-35 228h2939l37 -228h-227
v-1198l-289 33v270q-112 -57 -262 -57q-190 0 -348 130t-158 298l51 59q47 14 85 20.5t38 43.5zM1277 1059q93 0 157 -31h372q147 0 220 -68.5t73 -152.5t-47 -131t-110 -88q29 -41 84 -87t152 -46t171 49t88 135v526h-1882q-84 -50 -84 -134.5t66.5 -145t201.5 -60.5h41
l29 -209h-53q-314 0 -314 -206q0 -94 89.5 -149.5t220.5 -55.5q195 0 333 98t195 205q-111 12 -184.5 90t-73.5 196t81 191.5t174 73.5z" />
    <glyph glyph-name="dv_TtTtYa" horiz-adv-x="2410" 
d="M1325 780q0 49 -145 49h-551q-115 0 -184.5 -51t-69.5 -145t86 -151.5t219 -57.5q200 0 364 123l39 -262q-43 -34 -120 -62v-383h-334q-115 0 -184.5 -51t-69.5 -146t86 -152.5t219 -57.5q192 0 364 125l39 -263q-55 -43 -167.5 -73.5t-235.5 -30.5q-240 0 -403.5 105.5
t-163.5 335.5t164.5 340t396.5 110v98q-238 2 -399.5 107.5t-161.5 334t164.5 338t396.5 109.5v96h-662l-35 228h2425l33 -228h-225v-1198l-291 33v285q-45 -20 -103.5 -37t-156.5 -17q-190 0 -349 129t-159 297l53 60q45 14 83 19t38 44zM963 1165v-121h327
q147 0 219 -68.5t72 -154.5t-46 -132t-110 -85q29 -41 83.5 -87t152.5 -46t171 49t87 137v508h-956z" />
    <glyph glyph-name="dv_TthTthYa" horiz-adv-x="2598" 
d="M377 -369q0 -79 85 -138.5t205 -59.5t202.5 59t82.5 138.5t-70.5 143.5t-218 64t-217 -64t-69.5 -143zM1217 600q0 -170 -121 -276.5t-287 -139.5v-110q184 -29 296 -160t112 -289q0 -207 -170 -320.5t-382 -113.5t-382 113.5t-170 320.5q0 158 111.5 289t295.5 160v110
q-168 33 -287.5 139.5t-119.5 271.5t111.5 296t295.5 158v116h-508l-35 228h2610l34 -228h-227v-1198l-289 33v207q-45 -20 -104 -37.5t-156 -17.5q-190 0 -349 130t-159 298l54 57q45 14 82.5 20.5t37.5 42.5q0 52 -145 52h-178q29 -77 29 -152zM377 606q0 -78 85 -137
t205 -59t202.5 59t82.5 137t-70.5 143.5t-218 65.5t-217 -65.5t-69.5 -143.5zM1475 965q147 0 220.5 -67t73.5 -152.5t-47 -133t-110 -86.5q29 -41 84 -88t151 -47t170 49t88 135v590h-1296v-116q109 -15 213 -84h453z" />
    <glyph glyph-name="dv_DdDdYa" horiz-adv-x="2185" 
d="M582 471q0 68 -99 68h-100q-106 0 -198.5 79.5t-92.5 202.5t83 199t204 76h125v69h-492l-35 228h2196l37 -228h-230v-1198l-288 33v324q-122 -54 -260 -54q-193 0 -350.5 129t-157.5 295l51 64q45 12 83 17t38 44q0 49 -146 49h-534q-35 0 -55.5 -15t-20.5 -36t22.5 -36
t55.5 -15h96q150 0 248 -72.5t98 -207.5t-98 -216v-391h-346q-35 0 -55.5 -16.5t-20.5 -37t22.5 -34.5t55.5 -14h96q150 0 248 -74t98 -221q0 -111 -99 -202t-296 -91t-361 86l41 223q138 -86 324 -86q55 0 84 18.5t29 49.5q0 67 -99 67h-100q-106 0 -198.5 80t-92.5 203
t83 199.5t204 76.5h125v72h-33q-204 0 -367 86l41 225q138 -86 324 -86q55 0 84 18.5t29 49.5zM1692 1165h-930v-80h301q147 0 219 -69.5t72 -154.5t-47 -131t-111 -85q29 -41 84 -88t152.5 -47t170 49t89.5 135v471z" />
    <glyph glyph-name="dv_DdhDdhYa" horiz-adv-x="2433" 
d="M1346 786q0 52 -146 52h-571q-115 0 -184.5 -51.5t-69.5 -132.5t43 -150.5t153 -89.5q-4 20 -4 43q2 104 78 177t175 73t179 -56.5t80 -183.5t-116 -217v-387h-334q-115 0 -184.5 -51.5t-69.5 -132.5t43 -150.5t153 -89.5q-4 20 -4 43q2 104 78 177t175 73t179 -56.5
t80 -182.5t-113.5 -214t-285.5 -88q-240 0 -403.5 117t-163.5 346t164.5 338.5t396.5 109.5v64q-238 2 -399.5 117.5t-161.5 345t164.5 339t396.5 109.5v88h-662l-35 228h2446l33 -228h-228v-1198l-291 33v291q-45 -20 -103 -37.5t-155 -17.5q-190 0 -349 131t-159 297
l54 57q47 14 84 20.5t37 44.5zM1937 1165h-974v-114h348q147 0 219 -68t72 -152.5t-46.5 -132t-109.5 -86.5q29 -43 84 -89t151.5 -46t171 50.5t84.5 134.5v503z" />
    <glyph glyph-name="dv_DdhRYa" horiz-adv-x="2512" 
d="M1761 201q-190 0 -349 129t-159 297l54 59q45 14 84 19.5t39 44.5q0 33 -51.5 41t-96.5 8h-508q-166 0 -282.5 -77t-116.5 -215t87 -229.5t240 -91.5q-18 20 -22 53t-4 99t67.5 147.5t190.5 81.5t203 -69.5t80 -189.5t-86.5 -210t-231.5 -118l250 -230l-172 -112
l-229 202l-230 -202l-182 112l250 227q-188 31 -330.5 153t-142.5 378t199.5 394t467.5 138v125h-768l-35 228h2528l35 -228h-230v-1198l-289 33v254q-119 -53 -260 -53zM2021 1165h-952v-149h324q147 0 218.5 -69.5t71.5 -154.5t-46 -131.5t-109 -85.5q31 -43 85 -89
t150 -46t170 49.5t88 133.5v542z" />
    <glyph glyph-name="dv_DGRa" horiz-adv-x="1288" 
d="M485 -137q0 -150 -106 -150q-113 0 -212 98.5t-99 186.5q6 57 55 84t96 27v167q-125 121 -125 328q0 244 178.5 351.5t442.5 107.5v102h-703l-35 228h1301l33 -228h-305v-331h-297q-154 0 -253.5 -57.5t-99.5 -171.5t94.5 -174t235.5 -60q30 0 72 4l-2 33q0 70 41 111.5
t113.5 41.5t148.5 -50t76 -127t-62 -153q81 -139 139 -233l-229 -86l-98 180l-99 -239l-264 63l94 213q-69 4 -131 16v-282z" />
    <glyph glyph-name="dv_DDYa" horiz-adv-x="2396" 
d="M629 -37q-197 0 -340.5 91t-143.5 292q0 132 113 232q-102 85 -101 218.5t92 216.5t240 83h168v69h-645l-35 228h2409l35 -228h-228v-1198l-288 33v326q-47 -20 -106.5 -37t-156.5 -17q-190 0 -348.5 128t-158.5 296l53 62q45 14 84 19t39 44q0 49 -148 49h-647
q-31 0 -55.5 -21.5t-24.5 -54t24.5 -56t55.5 -23.5h369l30 -211h-247q-236 0 -236 -158q0 -63 56.5 -100t140.5 -37h31q16 0 34 2v12q0 68 43 110t116 42t148.5 -50.5t75.5 -131.5q0 -33 -17.5 -75t-43.5 -71q31 -57 68.5 -118.5t68.5 -114.5l-229 -88l-136 247
q-97 -10 -159 -10zM948 1165v-80h328q147 0 220 -68.5t73 -153.5t-47 -131t-113 -85q29 -43 83 -89t151.5 -46t172 49t89.5 133v471h-957z" />
    <glyph glyph-name="dv_DBRa" horiz-adv-x="1294" 
d="M1135 384q0 -77 -62 -153q33 -57 102.5 -200.5t102.5 -196.5l-229 -84l-50 100q-49 -65 -125 -106l-126 -217l-271 65l92 136q-121 37 -191.5 130t-70.5 222q0 64 19 121q-232 119 -232 403q0 244 178.5 351.5t442.5 107.5v102h-703l-35 228h1301l33 -228h-305v-331h-297
q-154 0 -253.5 -57.5t-99.5 -171.5t94.5 -174t235.5 -60q30 0 72 4l-2 33q0 70 41 111.5t113.5 41.5t148.5 -50t76 -127zM541 82q0 -82 52 -126t122 -46q19 0 37 4l-207 213q-4 -20 -4 -45zM860 -14q27 40 27 96l-31 65q-71 -15 -133 -20z" />
    <glyph glyph-name="dv_DRYa" horiz-adv-x="1701" 
d="M489 1096h168v69h-645l-35 228h1715l32 -228h-227v-1198l-289 33v250l-565 -516l-186 166l84 71q-182 23 -289 116t-107 259q0 130 111 232q-100 83 -99 217.5t92 217.5t240 83zM668 504q-236 0 -236 -139q0 -76 59.5 -127.5t194.5 -51.5q59 0 133 17l389 325v637h-260
v-295h-432q-31 0 -55.5 -21.5t-24.5 -54t24.5 -56t55.5 -23.5h369l30 -211h-247z" />
    <glyph glyph-name="dv_DVYa" horiz-adv-x="2482" 
d="M1397 786q0 48 -148 48h-540q-154 0 -253.5 -57.5t-99.5 -171.5t94.5 -174t235.5 -60q30 0 72 4l-2 33q0 70 41 111.5t113.5 41.5t148.5 -50t76 -127t-62 -153q33 -57 102.5 -200.5t102.5 -196.5l-229 -84l-33 70q-120 -115 -300.5 -115t-294.5 105.5t-114 269.5
q0 64 19 121q-232 119 -232 403q0 244 178.5 351.5t442.5 107.5v102h-703l-35 228h2495l35 -228h-230v-1198l-286 33v289q-47 -20 -105.5 -36.5t-156.5 -16.5q-190 0 -349 129t-159 297l53 61q45 10 84 17.5t39 45.5zM673.5 127q-60.5 0 -126.5 8q-6 -36 -6 -53
q0 -82 52 -126t121.5 -44t121 44t51.5 126l-31 65q-122 -20 -182.5 -20zM1006 1165v-116h354q147 0 219 -69t72 -153.5t-46 -131t-108 -87.5q27 -41 81 -87t152.5 -46t172 49t88.5 135v506h-985z" />
    <glyph glyph-name="dv_DVRa" horiz-adv-x="1294" 
d="M1135 384q0 -77 -62 -153q33 -57 102.5 -200.5t102.5 -196.5l-229 -84l-50 100q-49 -65 -125 -106l-126 -217l-271 65l92 136q-121 37 -191.5 130t-70.5 222q0 64 19 121q-232 119 -232 403q0 244 178.5 351.5t442.5 107.5v102h-703l-35 228h1301l33 -228h-305v-331h-297
q-154 0 -253.5 -57.5t-99.5 -171.5t94.5 -174t235.5 -60q30 0 72 4l-2 33q0 70 41 111.5t113.5 41.5t148.5 -50t76 -127zM673.5 127q-60.5 0 -126.5 8q-6 -36 -6 -53q0 -82 52 -126t121.5 -44t121 44t51.5 126l-31 65q-122 -20 -182.5 -20z" />
    <glyph glyph-name="dv_DhNYa" horiz-adv-x="2254" 
d="M602 -222q0 -60 -57.5 -76.5t-119 -16.5t-156.5 47t-95 132t119 166t166 115q-152 35 -247 138.5t-95 263.5q0 78 42 158.5t111 119.5q-55 39 -87.5 113t-32.5 139q0 154 113.5 249t261.5 95t268 -110l-138 -187q-49 45 -105.5 45t-92 -31.5t-35.5 -72.5
q0 -100 87 -118.5t161 -18.5l75 -223h-75q-90 0 -179.5 -26t-89.5 -129t82 -145.5t182.5 -42.5t192.5 68t184 137q-47 80 -47 170l54 58q45 14 82.5 73.5t37.5 126t-29.5 110.5t-70.5 60h-84l-35 228h1295l34 -228h-227v-1198l-287 33v365q-47 -20 -106.5 -38t-155.5 -18
q-164 0 -301 92l-641 -481q41 -82 41 -142zM1427 995q0 -200 -159 -311q29 -41 83 -87t152 -46t172 49t90 133v432h-374q36 -99 36 -170z" />
    <glyph glyph-name="dv_NNYa" horiz-adv-x="1894" 
d="M807 1010q0 51 -29.5 95t-72.5 60h-693l-35 228h1903l37 -228h-227v-1198l-291 33v365q-45 -20 -104.5 -38t-155.5 -18q-200 0 -353 129l-292 -168q30 -49 30 -98.5t-24 -71.5q-59 -47 -148 -47q-189 0 -254 115q-16 28 -16 62t22.5 68t65.5 56l463 260l-244 144
q-20 -35 -54 -63.5t-69 -28.5h-10q-6 0 -10 2q-63 27 -117.5 108.5t-54.5 154t30.5 124t96.5 51.5t112 -29l420 -252q74 69 74 185zM1063 995q0 -201 -158 -311q29 -41 84 -87t151.5 -46t170 49t88.5 133v432h-373q37 -87 37 -170z" />
    <glyph glyph-name="dv_PTthYa" horiz-adv-x="2383" 
d="M408 374q0 -73 54 -125t137 -53t135 53t52 128t-54 127t-136 53t-135 -55t-53 -128zM1894 1165h-841v-104h211q147 0 218.5 -68.5t71.5 -153.5t-46 -131t-109 -85q29 -43 83 -89.5t151 -46.5t171 49.5t90 133.5v495zM600 786q160 0 160 201v178h-318v-178
q0 -94 42 -147.5t116 -53.5zM1061 381.5q0 -176.5 -129 -294.5t-335 -118t-334 117t-128 289q0 92 39 172t109 135q-131 118 -131 305v178h-140l-35 228h2399l34 -228h-229v-1198l-287 33v303q-47 -20 -106 -38.5t-156 -18.5q-193 0 -350.5 130t-157.5 296l54 61
q45 14 82.5 19.5t37.5 42.5q0 51 -145 51h-123q-32 -102 -110 -170q141 -118 141 -294.5z" />
    <glyph glyph-name="dv_BhRYa" horiz-adv-x="2281" 
d="M1196 994.5q0 66.5 -28.5 110.5t-71.5 60h-166l-35 228h1380l33 -228h-229v-1198l-289 33v365q-45 -20 -103.5 -38t-154.5 -18q-166 0 -322 105l-661 -537l-187 166l525 393h-207q0 -47 -22.5 -99t-67.5 -52q-104 0 -204.5 70.5t-100.5 187.5q0 59 40 89t105 30v241
q-8 -2 -15 -2h-40q-125 0 -204 75t-79 193.5t88 190.5t199 72q154 0 242 -99.5t88 -265.5v-405h321q-8 36 -8 75l55 58q45 14 82 73.5t37 126zM1454 995q0 -200 -156 -311q27 -41 81.5 -87t152.5 -46t171 49t87 133v432h-373q37 -87 37 -170z" />
    <glyph glyph-name="dv_ShRYa" horiz-adv-x="2105" 
d="M1352 309q-188 0 -340 117l-658 -463l-90 240l459 323l-201 154l-362 -285l-113 230l283 219q-41 51 -80 117.5t-39 177t91 201t220 90.5q43 0 73 -12.5t58 -24.5h1442l33 -228h-225v-1198l-291 33v365q-45 -20 -104.5 -38t-155.5 -18zM1276 995q0 -201 -158 -311
q31 -41 85 -87t150.5 -46t170 49t88.5 133v432h-373q37 -87 37 -170zM834 1099q0 -41 -29 -122.5t-90 -132.5l131 -103l49 54q47 14 86 73.5t39 126t-29.5 110.5t-70.5 60h-91q5 -25 5 -66z" />
    <glyph glyph-name="dv_SsTtYa" horiz-adv-x="2383" 
d="M442 987q0 -94 42 -147.5t116 -53.5q42 0 80 19l-238 293v-111zM1894 1165h-841v-104h211q147 0 218.5 -68.5t71.5 -153.5t-46 -131t-109 -85q29 -43 83 -89.5t151 -46.5t171 49.5t90 133.5v495zM760 987v178h-197l193 -235q4 28 4 57zM1298 795q0 51 -145 51h-123
q-43 -135 -162.5 -208t-269.5 -73q-84 0 -137 -59t-53 -132t55 -126t160 -53q198 0 344 112l37 -244q-59 -39 -165 -66.5t-216 -27.5q-229 0 -358.5 117t-129.5 289q0 92 39 172t109 135q-131 118 -131 305v178h-140l-35 228h2399l34 -228h-229v-1198l-287 33v303
q-47 -20 -106 -38.5t-156 -18.5q-193 0 -350.5 130t-157.5 296l54 61q45 14 82.5 19.5t37.5 42.5z" />
    <glyph glyph-name="dv_SsTtVa" horiz-adv-x="1204" 
d="M629.5 -31q-30.5 0 -90.5 6q-70 -14 -118 -74.5t-48 -150.5t53 -130t108 -40t101.5 29t64.5 69v295q-40 -4 -70.5 -4zM442 987q0 -94 42 -147.5t116 -53.5q42 0 80 19l-238 295v-113zM760 987v178h-199l195 -237q4 28 4 59zM152 987v178h-140l-35 228h1217l35 -228h-176
v-178q0 -199 -134.5 -310.5t-320.5 -111.5q-84 0 -137 -59t-53 -132t55 -126t160 -53q198 0 344 112l37 -244q-17 -11 -25 -14v-782l-279 33v90q-29 -20 -92 -33.5t-116 -13.5q-160 0 -276 110.5t-118 300.5q0 100 39 193.5t109 154.5q-111 111 -111 273q0 92 39 172
t109 135q-131 118 -131 305z" />
    <glyph glyph-name="dv_SsTthYa" horiz-adv-x="2383" 
d="M408 374q0 -73 54 -125t137 -53t135 53t52 128t-54 127t-136 53t-135 -55t-53 -128zM442 987q0 -94 42 -147.5t116 -53.5q42 0 80 19l-238 293v-111zM1894 1165h-841v-104h211q147 0 218.5 -68.5t71.5 -153.5t-46 -131t-109 -85q29 -43 83 -89.5t151 -46.5t171 49.5
t90 133.5v495zM760 987v178h-197l193 -235q4 28 4 57zM1061 381.5q0 -176.5 -129 -294.5t-335 -118t-334 117t-128 289q0 92 39 172t109 135q-131 118 -131 305v178h-140l-35 228h2399l34 -228h-229v-1198l-287 33v303q-47 -20 -106 -38.5t-156 -18.5q-193 0 -350.5 130
t-157.5 296l54 61q45 14 82.5 19.5t37.5 42.5q0 51 -145 51h-123q-32 -102 -110 -170q141 -118 141 -294.5z" />
    <glyph glyph-name="dv_HMYa" horiz-adv-x="3053" 
d="M2222 995q0 -201 -158 -311q29 -41 84.5 -87t151.5 -46t171 49t89 133v432h-373q35 -96 35 -170zM1968 994.5q0 66.5 -30.5 110.5t-71.5 60h-387v-503h321q-8 36 -8 75l53 58q45 14 84 73.5t39 126zM508 909q-76 0 -76 -47t25 -57q62 16 133 16h610v344h-276v-256h-416z
M1448 436q0 -47 -21.5 -99t-66.5 -52q-104 0 -204.5 70.5t-100.5 187.5q0 33 10 53h-479q-82 0 -132.5 -48t-50.5 -118q0 -113 125 -167t267 -62l-62 -234q-240 12 -416 131t-176 332q0 133 80 240q-69 65 -69 194t96 194.5t225 65.5h137v41h-602l-31 228h3066l33 -228h-227
v-1198l-289 33v365q-232 -103 -448 -21q-92 35 -162 92h-502z" />
    <glyph glyph-name="dv_NgYa" horiz-adv-x="2646" 
d="M1563 784q0 47 -148 47h-958q-43 0 -69 -22.5t-26 -53t28 -55t69 -24.5h151q184 0 307 -81t123 -263q0 -139 -123.5 -251t-357.5 -112q-119 0 -240.5 28t-212.5 79l50 233q102 -63 193 -83.5t192.5 -20.5t154 38t52.5 85t-27 77.5t-94 30.5h-176q-133 0 -246 86t-113 237
t102.5 232.5t251.5 81.5h216v92h-650l-35 228h2661l33 -228h-228v-1198l-291 33v289q-119 -53 -258 -53q-193 0 -350.5 129t-157.5 297l54 59q45 12 84 18t39 45zM1184 459q-68 0 -114 46t-46 114t46 114.5t114 46.5t115 -47t47 -114.5t-47 -113.5t-115 -46zM2152 1165
h-1232v-116h606q147 0 220 -69t73 -154.5t-47.5 -132t-110.5 -85.5q29 -41 84 -88t151.5 -47t171 49t84.5 135v508z" />
    <glyph glyph-name="dv_TtTta" horiz-adv-x="1226" 
d="M963 -160h-334q-115 0 -184.5 -51t-69.5 -146t86 -152.5t219 -57.5q192 0 364 125l39 -263q-55 -43 -167.5 -73.5t-235.5 -30.5q-240 0 -403.5 105.5t-163.5 335.5t164.5 340t396.5 110v98q-238 2 -399.5 107.5t-161.5 334t164.5 338t396.5 109.5v96h-662l-35 228h1240
l32 -228h-286v-336h-334q-115 0 -184.5 -51t-69.5 -145t86 -151.5t219 -57.5q200 0 364 123l39 -262q-43 -34 -120 -62v-383z" />
    <glyph glyph-name="dv_TtTtha" horiz-adv-x="1273" 
d="M377 -369q0 -79 85 -138.5t205 -59.5t202.5 59t82.5 138.5t-70.5 143.5t-218 64t-217 -64t-69.5 -143zM1217 -375q0 -207 -170 -320.5t-382 -113.5t-382 113.5t-170 320.5q0 158 111.5 289t295.5 160v119q-178 29 -292.5 134t-114.5 296q0 227 164.5 336.5t396.5 109.5
v96h-662l-35 228h1287l32 -228h-333v-336h-334q-115 0 -184.5 -51t-69.5 -145t86 -151.5t219 -57.5q200 0 364 123l39 -262q-86 -69 -274 -97v-114q184 -29 296 -160t112 -289z" />
    <glyph glyph-name="dv_TtDdha" horiz-adv-x="1226" 
d="M963 -137h-334q-115 0 -184.5 -51.5t-69.5 -132.5t43 -150.5t153 -89.5q-4 20 -4 43q2 104 78 177t175 73t179 -56.5t80 -182.5t-113.5 -214t-285.5 -88q-240 0 -403.5 117t-163.5 346t164.5 338.5t396.5 109.5v78q-238 2 -399.5 107.5t-161.5 334t164.5 338t396.5 109.5
v96h-662l-35 228h1240l32 -228h-286v-336h-334q-115 0 -184.5 -51t-69.5 -145t86 -151.5t219 -57.5q200 0 364 123l39 -262q-49 -39 -120 -62v-360z" />
    <glyph glyph-name="dv_TtYa" horiz-adv-x="2529" 
d="M1440 733q0 51 -144 51h-522q-166 0 -282.5 -80.5t-116.5 -209.5q0 -164 120.5 -225.5t233.5 -61.5t219.5 23.5t222.5 111.5l39 -262q-92 -57 -215 -87t-243 -30q-242 0 -440.5 123t-198.5 396.5t199.5 407.5t467.5 134v141h-768l-35 228h2540l35 -228h-228v-1198
l-288 33v240q-45 -20 -104.5 -38t-155.5 -18q-193 0 -350.5 129t-157.5 297l53 58q45 16 82 21t37 44zM1069 1165v-170h338q147 0 220 -66.5t73 -151.5t-47 -133t-113 -87q29 -41 84 -87t152.5 -46t171 49t88.5 135v557h-967z" />
    <glyph glyph-name="dv_TtVa" horiz-adv-x="1331" 
d="M727.5 -37q-53.5 0 -131.5 12q-70 -10 -118 -62t-48 -140t60.5 -140.5t155.5 -52.5t142.5 40t73.5 83v266q-81 -6 -134.5 -6zM113 495q0 261 199.5 395t467.5 134v141h-768l-35 228h1344l33 -228h-285v-381h-295q-166 0 -282.5 -80.5t-116.5 -209.5q0 -164 120.5 -225.5
t233.5 -61.5t219.5 23.5t222.5 111.5l39 -262l-57 -33v-780l-291 33v110q-39 -31 -107.5 -49t-121.5 -18q-213 0 -345 122.5t-132 315.5t137 315q-180 138 -180 399z" />
    <glyph glyph-name="dv_TthTtha" horiz-adv-x="1316" 
d="M377 -369q0 -79 85 -138.5t205 -59.5t202.5 59t82.5 138.5t-70.5 143.5t-218 64t-217 -64t-69.5 -143zM377 606q0 -78 85 -137t205 -59t202.5 59t82.5 137t-70.5 143.5t-218 65.5t-217 -65.5t-69.5 -143.5zM520 1165h-508l-35 228h1330l32 -228h-530v-116
q184 -27 296 -158t112 -296t-121 -271.5t-287 -139.5v-110q184 -29 296 -160t112 -289q0 -207 -170 -320.5t-382 -113.5t-382 113.5t-170 320.5q0 158 111.5 289t295.5 160v110q-168 33 -287.5 139.5t-119.5 271.5t111.5 296t295.5 158v116z" />
    <glyph glyph-name="dv_TthYa" horiz-adv-x="2668" 
d="M1368 494q0 -262 -184.5 -396.5t-435.5 -134.5t-443 121t-192 405q0 225 137 355.5t346 163.5v157h-584l-35 228h2681l35 -228h-229v-1198l-289 33v207q-124 -55 -260 -55q-190 0 -349 130t-159 298l53 57q45 14 83 20.5t38 42.5q0 52 -145 52h-129q61 -107 61 -258z
M1102 494q0 164 -115 222t-264.5 58t-248.5 -78t-99 -207q0 -164 115.5 -223t264 -59t248 78t99.5 209zM1546 965q147 0 219 -67t72 -152.5t-46 -133t-110 -86.5q29 -41 84.5 -88t151.5 -47t170 49t88 135v590h-1288v-159q76 -11 157 -41h502z" />
    <glyph glyph-name="dv_DdTta" horiz-adv-x="925" 
d="M860 473q0 -71 -39 -135v-498h-336q-115 0 -184.5 -51t-69.5 -146t85 -152.5t219 -57.5q196 0 364 125l39 -263q-53 -43 -168 -73.5t-235 -30.5q-238 0 -403 105.5t-165 335.5t165 340t396 110v98q-14 -2 -28 -2h-29q-204 0 -367 86l41 225q138 -86 324 -86q55 0 84 18.5
t29 49.5q0 68 -99 68h-100q-106 0 -198.5 79.5t-92.5 202.5t83 199t204 76h125v69h-492l-35 228h938l33 -228h-186v-297h-346q-35 0 -55.5 -15t-20.5 -36t22.5 -36t55.5 -15h96q150 0 248 -72.5t98 -220.5z" />
    <glyph glyph-name="dv_DdDda" horiz-adv-x="925" 
d="M582 471q0 68 -99 68h-100q-106 0 -198.5 79.5t-92.5 202.5t83 199t204 76h125v69h-492l-35 228h938l33 -228h-186v-297h-346q-35 0 -55.5 -15t-20.5 -36t22.5 -36t55.5 -15h96q150 0 248 -72.5t98 -207.5t-98 -216v-391h-346q-35 0 -55.5 -16.5t-20.5 -37t22.5 -34.5
t55.5 -14h96q150 0 248 -74t98 -221q0 -111 -99 -202t-296 -91t-361 86l41 223q138 -86 324 -86q55 0 84 18.5t29 49.5q0 67 -99 67h-100q-106 0 -198.5 80t-92.5 203t83 199.5t204 76.5h125v72h-33q-204 0 -367 86l41 225q138 -86 324 -86q55 0 84 18.5t29 49.5z" />
    <glyph glyph-name="dv_DdDdha" horiz-adv-x="925" 
d="M582 471q0 68 -99 68h-100q-106 0 -198.5 79.5t-92.5 202.5t83 199t204 76h125v69h-492l-35 228h938l33 -228h-186v-297h-346q-35 0 -55.5 -15t-20.5 -36t22.5 -36t55.5 -15h96q150 0 248 -72.5t98 -220.5q0 -86 -43 -147v-463h-334q-115 0 -184.5 -51.5t-69.5 -132.5
t43 -150.5t154 -89.5q-4 20 -4 43q2 104 77.5 177t175 73t179.5 -56.5t80 -182.5t-113.5 -214t-285.5 -88q-240 0 -404 117t-164 346t165 338.5t396 109.5v78q-14 -2 -28 -2h-29q-204 0 -367 86l41 225q138 -86 324 -86q55 0 84 18.5t29 49.5z" />
    <glyph glyph-name="dv_DdYa" horiz-adv-x="2377" 
d="M1292 784q0 47 -145 47h-690q-43 0 -69 -22.5t-26 -53t28 -55t69 -24.5h151q184 0 307 -81t123 -263q0 -139 -123.5 -251t-357.5 -112q-119 0 -240.5 28t-212.5 79l50 233q102 -63 193 -83.5t192.5 -20.5t154 38t52.5 85t-27 77.5t-94 30.5h-176q-133 0 -246 86t-113 237
t102.5 232.5t251.5 81.5h216v92h-650l-35 228h2390l35 -228h-227v-1198l-291 33v289q-119 -53 -258 -53q-193 0 -351.5 129t-158.5 297l53 59q45 12 84 18t39 45zM1884 1165h-964v-116h335q147 0 220 -69t73 -154.5t-46 -132t-109 -85.5q29 -41 84 -88t151 -47t169 49
t87 135v508z" />
    <glyph glyph-name="dv_DdhDdha" horiz-adv-x="1226" 
d="M820 -268q99 0 179 -56.5t80 -182.5t-113.5 -214t-285.5 -88q-240 0 -403.5 117t-163.5 346t164.5 338.5t396.5 109.5v64q-238 2 -399.5 117.5t-161.5 345t164.5 339t396.5 109.5v88h-662l-35 228h1240l32 -228h-286v-327h-334q-115 0 -184.5 -51.5t-69.5 -132.5
t43 -150.5t153 -89.5q-4 20 -4 43q2 104 78 177t175 73t179 -56.5t80 -183.5t-116 -217v-387h-334q-115 0 -184.5 -51.5t-69.5 -132.5t43 -150.5t153 -89.5q-4 20 -4 43q2 104 78 177t175 73z" />
    <glyph glyph-name="dv_DdhYa" horiz-adv-x="2512" 
d="M1761 201q-190 0 -349 129t-159 297l54 59q45 14 84 19.5t39 44.5q0 33 -51.5 41t-96.5 8h-508q-166 0 -282.5 -77t-116.5 -215t87 -229.5t240 -91.5q-18 20 -22 53t-4 99t67.5 147.5t190.5 81.5t203 -69.5t80 -180.5q0 -160 -129 -257t-349 -97t-423 119t-203 420
q0 262 199.5 400t467.5 138v125h-768l-35 228h2528l35 -228h-230v-1198l-289 33v254q-119 -53 -260 -53zM2021 1165h-952v-149h324q147 0 218.5 -69.5t71.5 -154.5t-46 -131.5t-109 -85.5q31 -43 85 -89t150 -46t170 49.5t88 133.5v542z" />
    <glyph glyph-name="dv_DGa" horiz-adv-x="1288" 
d="M660 127q-74 0 -175 18v-282q0 -150 -106 -150q-113 0 -212 98.5t-99 186.5q6 57 55 84t96 27v167q-125 121 -125 328q0 244 178.5 351.5t442.5 107.5v102h-703l-35 228h1301l33 -228h-305v-331h-297q-154 0 -253.5 -57.5t-99.5 -171.5t94.5 -174t235.5 -60q30 0 72 4
l-2 33q0 70 41 111.5t113.5 41.5t148.5 -50t76 -127t-62 -153q81 -139 139 -233l-229 -86l-127 235q-122 -20 -196 -20z" />
    <glyph glyph-name="dv_DDa" horiz-adv-x="1181" 
d="M489 1096h168v69h-645l-35 228h1194l35 -228h-258v-295h-432q-31 0 -55.5 -21.5t-24.5 -54t24.5 -56t55.5 -23.5h369l30 -211h-247q-236 0 -236 -158q0 -63 56.5 -100t140.5 -37h31q16 0 34 2v12q0 68 43 110t116 42t148.5 -50.5t75.5 -131.5q0 -33 -17.5 -75t-43.5 -71
q31 -57 68.5 -118.5t68.5 -114.5l-229 -88l-136 247q-98 -10 -159 -10q-197 0 -340.5 91t-143.5 292q0 132 113 232q-102 85 -101 218.5t92 216.5t240 83z" />
    <glyph glyph-name="dv_DNa" horiz-adv-x="1288" 
d="M848 -158q0 -74 -102.5 -113.5t-161.5 -39.5t-123 34.5t-64 106.5q0 41 73 154.5t93 148.5q-205 23 -337 137.5t-132 333.5q0 268 196.5 363.5t424.5 95.5v102h-703l-35 228h1301l33 -228h-305v-331l-211 6q-147 0 -293 -41t-146 -195q0 -131 109.5 -182t220.5 -51
q27 0 59 4h13q-2 8 -2 14v14q0 66 36.5 112t112.5 46t153 -49t77 -129.5t-62 -151.5q67 -116 139 -233l-229 -86l-127 235l-96 -174q88 -81 88 -131z" />
    <glyph glyph-name="dv_DBa" horiz-adv-x="1294" 
d="M307 80q0 64 19 121q-232 119 -232 403q0 244 178.5 351.5t442.5 107.5v102h-703l-35 228h1301l33 -228h-305v-331h-297q-154 0 -253.5 -57.5t-99.5 -171.5t94.5 -174t235.5 -60q30 0 72 4l-2 33q0 70 41 111.5t113.5 41.5t148.5 -50t76 -127t-62 -153
q33 -57 102.5 -200.5t102.5 -196.5l-229 -84l-33 70q-120 -115 -300.5 -115t-294.5 105.5t-114 269.5zM541 82q0 -82 52 -126t122 -46q19 0 37 4l-207 213q-4 -20 -4 -45zM860 -14q27 40 27 96l-31 65q-71 -15 -133 -20z" />
    <glyph glyph-name="dv_DMa" horiz-adv-x="1761" 
d="M457 831q-43 0 -69 -22.5t-26 -53t28 -55t69 -24.5h463v-324h346v813h-348v-334h-463zM643 436h-192q-133 0 -246 86t-113 237t102.5 232.5t251.5 81.5h216v92h-650l-35 228h1774l33 -228h-228v-1198l-288 33v123h-377q0 -45 -22.5 -96.5t-67.5 -51.5q-104 0 -204.5 71
t-100.5 187q0 57 40.5 87t106.5 32v84z" />
    <glyph glyph-name="dv_DYa" horiz-adv-x="1701" 
d="M489 1096h168v69h-645l-35 228h1715l32 -228h-227v-1198l-289 33v156q-68 -76 -225 -134.5t-309 -58.5q-238 0 -383.5 95.5t-145.5 287.5q0 130 111 232q-100 83 -99 217.5t92 217.5t240 83zM432 365q0 -158 254 -158q156 0 339 113.5t183 388.5v456h-260v-295h-432
q-31 0 -55.5 -21.5t-24.5 -54t24.5 -56t55.5 -23.5h369l30 -211h-247q-111 0 -173.5 -35t-62.5 -104z" />
    <glyph glyph-name="dv_DVa" horiz-adv-x="1294" 
d="M307 80q0 64 19 121q-232 119 -232 403q0 244 178.5 351.5t442.5 107.5v102h-703l-35 228h1301l33 -228h-305v-331h-297q-154 0 -253.5 -57.5t-99.5 -171.5t94.5 -174t235.5 -60q30 0 72 4l-2 33q0 70 41 111.5t113.5 41.5t148.5 -50t76 -127t-62 -153
q33 -57 102.5 -200.5t102.5 -196.5l-229 -84l-33 70q-120 -115 -300.5 -115t-294.5 105.5t-114 269.5zM673.5 127q-60.5 0 -126.5 8q-6 -36 -6 -53q0 -82 52 -127t121.5 -45t121 45t51.5 127l-31 65q-122 -20 -182.5 -20z" />
    <glyph glyph-name="dv_HMa" horiz-adv-x="1968" 
d="M1475 735v430h-551v-256h-416q-76 0 -76 -49q0 -32 25 -43q66 17 133 17q200 0 321 -99h564zM152 864q0 129 96 194.5t225 65.5h137v41h-602l-31 228h1981l33 -228h-228v-1198l-288 33v508h-412q0 -45 -19.5 -93t-60.5 -59l-22 -2q-82 0 -178.5 64.5t-112.5 165.5
q-45 10 -84 10q-82 0 -132.5 -47t-50.5 -117q0 -113 125 -167t267 -62l-62 -234q-240 12 -416 131t-176 332q0 133 80 240q-69 65 -69 194z" />
    <glyph glyph-name="dv_HYa" horiz-adv-x="2377" 
d="M924 1165v-39h331q147 0 219 -68.5t72 -154.5t-46 -132t-109 -85q27 -41 82 -88t151 -47t171 49t89 135v430h-960zM1028 498q0 -178 -137 -267l-201 138q41 27 58.5 54t17.5 68t-49 72t-131 31t-132.5 -47t-50.5 -117q0 -113 125 -167t267 -62l-62 -234q-240 12 -416 131
t-176 332q0 133 80 240q-69 65 -69 194t96 194.5t225 65.5h137v41h-602l-31 228h2390l33 -228h-227v-1198l-289 33v367q-122 -54 -262 -54q-190 0 -348 129t-158 297l53 60q45 12 83 18t38 45q0 47 -145 47h-637q-76 0 -76 -49q0 -33 25 -43q66 17 133 17
q207 0 322.5 -100.5t115.5 -235.5z" />
    <glyph glyph-name="dv_KSsMYa" horiz-adv-x="3059" 
d="M2325 309q-215 0 -369 127h-502q0 -47 -21.5 -99t-66.5 -52q-104 0 -204.5 70.5t-100.5 187.5q0 66 49 96h-76q-121 0 -256 28.5t-246 84.5q-63 -49 -116.5 -114t-53.5 -110q0 -78 58.5 -117.5t105 -39.5t86.5 4q-2 8 -2 16v17q0 70 41 111.5t115 41.5t148.5 -50
t74.5 -126.5t-61 -153.5q33 -57 70.5 -118.5t68.5 -114.5l-229 -86l-129 235q-112 -20 -168 -20q-178 0 -313.5 98.5t-135.5 298.5q0 109 75 203t161 150q-51 47 -88 104t-37 156.5t82 196t229 96.5q80 0 156 -37h2379l33 -228h-227v-1198l-289 33v365q-126 -56 -241 -56z
M2228 995q0 -202 -157 -311q29 -41 84 -87t151 -46t171 49t89 133v432h-373q35 -96 35 -170zM1974 994.5q0 66.5 -30.5 110.5t-71.5 60h-387v-503h321q-8 36 -8 75l53 58q45 14 84 73.5t39 126zM1036 866h170v299h-389l2 -35q0 -70 -15.5 -115.5t-62.5 -92.5
q114 -56 295 -56z" />
    <glyph glyph-name="dv_KSPRa" horiz-adv-x="3676" 
d="M1499 489q-82 0 -113 56h-81q-104 0 -152.5 -37t-75.5 -80v-461l-289 33v190q-41 -31 -108.5 -50t-120.5 -19q-213 0 -345 129t-132 319.5t132 320.5t345 130q53 0 121 -19.5t108 -50.5v215h-776l-35 228h3687l35 -228h-228v-1198l-288 33v332l-562 -455l-186 166
l373 279q-104 20 -187.5 77.5t-132.5 145.5h-612q-28 -17 -47 -23l313 -497l-272 -68l-301 532h-70zM568.5 780q-95.5 0 -155 -58t-59.5 -151.5t60.5 -152t155.5 -58.5t142 40t76 85v172q-29 43 -76.5 83t-143 40zM1851 954q0 136 -67 211h-707v-458q83 65 221 65h166
q35 39 82 65.5t92 26.5q53 0 99 -119q53 33 83.5 92.5t30.5 116.5zM2726 766q0 -100 57.5 -157.5t153.5 -57.5t163.5 48t82.5 130v436h-457v-399zM2114 952q0 -108 -39 -192h360v405h-354q33 -105 33 -213z" />
    <glyph glyph-name="dv_KSPLa" horiz-adv-x="4732" 
d="M354 570q0 -93 59.5 -150.5t141.5 -59.5q111 0 158 40t75 85v172q-29 43 -76.5 83t-143 40t-155 -58.5t-59.5 -151.5zM1499 489q-82 0 -113 56h-81q-104 0 -152.5 -37t-75.5 -80v-461l-289 33v190q-41 -31 -108.5 -50t-120.5 -19q-213 0 -345 129t-132 319.5t132 320.5
t345 130q53 0 121 -19.5t108 -50.5v215h-776l-35 228h4744l32 -228h-225v-1198l-293 33v637q-10 70 -51 113t-103.5 43t-105.5 -61.5t-43 -158.5v-303l-256 27v276q0 213 -176 213q-70 0 -116 -45t-46 -121.5t50.5 -204.5t172.5 -386l-223 -78q-161 314 -194 399
q-107 -41 -231.5 -41t-243.5 61.5t-181 174.5h-612q-28 -17 -47 -23l313 -497l-272 -68l-301 532h-70zM1851 954q0 136 -67 211h-707v-458q83 65 221 65h166q35 39 82 65.5t92 26.5q53 0 99 -119q53 33 83.5 92.5t30.5 116.5zM4090 1030q87 0 145 -35v170h-1511v-399
q0 -100 57.5 -157.5t151 -57.5t151.5 37q-2 16 -2 32v33q0 147 125 261t304.5 114t289.5 -106q108 108 289 108zM2114 952q0 -108 -39 -192h360v405h-354q33 -105 33 -213z" />
    <glyph glyph-name="dv_KSPLa.MAR" horiz-adv-x="4618" 
d="M354 570q0 -93 59.5 -150.5t141.5 -59.5q111 0 158 40t75 85v172q-29 43 -76.5 83t-143 40t-155 -58.5t-59.5 -151.5zM1851 954q0 136 -67 211h-707v-458q83 65 221 65h166q35 39 82 65.5t92 26.5q53 0 99 -119q53 33 83.5 92.5t30.5 116.5zM1499 489q-82 0 -113 56h-81
q-104 0 -152.5 -37t-75.5 -80v-461l-289 33v190q-41 -31 -108.5 -50t-120.5 -19q-213 0 -345 129t-132 319.5t132 320.5t345 130q53 0 121 -19.5t108 -50.5v215h-776l-35 228h4631l35 -228h-395v-164q115 -45 190.5 -140t75.5 -208q0 -156 -65.5 -308t-192.5 -394l-226 78
q125 258 175.5 386t50.5 204.5t-46 121.5t-116 45t-114 -58t-44 -155v-303l-254 27v276q0 213 -178 213q-72 0 -117 -45t-45 -121.5t49.5 -204.5t176.5 -386l-228 -78q-161 314 -194 399q-115 -41 -234.5 -41t-238.5 61.5t-181 174.5h-616q-28 -17 -47 -23l313 -497
l-272 -68l-301 532h-70zM3959 1165h-1231v-399q0 -100 57.5 -157.5t151.5 -57.5t149 37q-2 14 -2 32v33q0 147 127 261t293 114q86 0 167 -27.5t132 -78.5q57 57 156 90v153zM2114 952q0 -108 -39 -192h364v405h-358q33 -105 33 -213z" />
    <glyph glyph-name="dv_TSNYa" horiz-adv-x="3786" 
d="M418 -45q-307 267 -307 517q0 138 99 238.5t284 100.5h413q65 53 133 53q51 0 97 -119q55 33 84.5 92.5t29.5 116.5q0 136 -67 211h-1172l-35 228h3800l34 -228h-229v-1198l-289 33v365q-45 -20 -104.5 -38t-176 -18t-241.5 70t-191 176h-434q0 -45 -14 -98.5t-73 -53.5
t-141.5 36t-129.5 106h-510q-25 -15 -49 -23l313 -497l-268 -68l-301 532h-74q-47 0 -80 24t-41 67h-196q-189 0 -189 -131q0 -88 72 -181.5t211 -236.5zM1516 954q0 -106 -41 -194h327q40 22 99 22h665l12 13q45 14 84 73.5t39 126t-29.5 110.5t-70.5 60h-1118
q33 -105 33 -211zM2957 995q0 -202 -157 -311q29 -41 84 -87t151 -46t170 49t88 133v432h-373q37 -87 37 -170z" />
    <glyph glyph-name="dv_NSMYa" horiz-adv-x="3786" 
d="M3291 365q-126 -56 -240 -56q-212 0 -368 127h-500q0 -47 -23.5 -99t-68.5 -52q-104 0 -202.5 70.5t-98.5 189.5h-494q-12 -6 -24 -12.5t-25 -10.5l316 -497l-271 -68l-301 532h-71q-87 0 -117 66h-344q0 -45 -19.5 -93t-60.5 -59l-21 -2q-88 0 -191.5 75t-103.5 188
q0 57 40 87.5t110 30.5h680q87 82 166 82q31 0 57.5 -40t40.5 -79q53 33 83 92.5t30 116.5q0 132 -66 211h-1192l-35 228h3797l35 -228h-227v-1198l-291 33v365zM2955 995q0 -203 -155 -311q27 -41 82 -87t151 -46t171 49t87 133v432h-373q37 -87 37 -170zM2701 994.5
q0 66.5 -30.5 110.5t-69.5 60h-389v-503h321q-8 36 -8 75l53 58q45 14 84 73.5t39 126zM1534 952q0 -93 -37 -192h436v405h-432q33 -120 33 -213z" />
    <glyph glyph-name="dv_KKYa" horiz-adv-x="4009" 
d="M354 570q0 -93 59.5 -150.5t141.5 -59.5q111 0 158 40t75 85v172q-29 43 -76.5 83t-143 40t-155 -58.5t-59.5 -151.5zM1667 570q0 -93 60.5 -150.5t140.5 -59.5q111 0 158 40t75 85v172q-29 43 -77 83t-142 40t-154.5 -58.5t-60.5 -151.5zM3252 309q-190 0 -348 129
t-158 299l37 43h-166q-104 0 -152 -36.5t-75 -79.5v-697l-289 33v190q-41 -31 -109.5 -50t-121.5 -19q-213 0 -344 129t-133 319q0 100 32 176h-120q-104 0 -152.5 -36.5t-75.5 -79.5v-662l-289 33v190q-41 -31 -108.5 -50t-120.5 -19q-213 0 -345 129t-132 319.5t132 320.5
t345 130q53 0 121 -19.5t108 -50.5v215h-776l-35 228h4019l37 -228h-230v-1198l-289 33v365q-126 -56 -262 -56zM1842 1020q167 0 259 -70v215h-1024v-258q79 66 221 66h347q116 47 197 47zM3176 995q0 -202 -157 -311q31 -41 85 -87t150 -46t171 49t89 133v432h-372
q34 -94 34 -170zM2922 1010q0 51 -30.5 95t-71.5 60h-430v-221q95 66 223 66h309z" />
    <glyph glyph-name="dv_KTYa" horiz-adv-x="3442" 
d="M1468 612q0 41 5 68h-168q-104 0 -152.5 -38t-75.5 -79v-596l-289 33v190q-41 -31 -108.5 -50t-120.5 -19q-213 0 -345 129t-132 319.5t132 320.5t345 130q53 0 121 -19.5t108 -50.5v215h-776l-35 228h3453l35 -228h-227v-1198l-289 33v365q-47 -20 -106.5 -38
t-155.5 -18q-193 0 -349.5 129t-156.5 299h-242q-186 0 -186 -133q0 -86 80 -225t215 -348l-258 -76l-18 27q-102 147 -203 318t-101 312zM354 570q0 -93 59.5 -150.5t141.5 -59.5q111 0 158 40t75 85v172q-29 43 -76.5 83t-143 40t-155 -58.5t-59.5 -151.5zM1298 905h318
q93 64 239 64h494q4 16 4 54t-28.5 82t-71.5 60h-1176v-323q86 63 221 63zM2611 995q0 -202 -157 -311q29 -41 84 -87t151 -46t171 49t89 133v432h-375q37 -87 37 -170z" />
    <glyph glyph-name="dv_KTRa" horiz-adv-x="2564" 
d="M354 570q0 -93 59.5 -150.5t141.5 -59.5q111 0 158 40t75 85v172q-29 43 -76.5 83t-143 40t-155 -58.5t-59.5 -151.5zM1737 995q61 0 146 -13t188 -79v262h-994v-270q84 66 221 66h244q134 34 195 34zM1741 741q-56 0 -234 -75l-30 67h-172q-104 0 -152.5 -38t-75.5 -77
v-651l-289 33v190q-41 -31 -108.5 -50t-120.5 -19q-213 0 -345 129t-132 319.5t132 320.5t345 130q53 0 121 -19.5t108 -50.5v215h-776l-35 228h2577l33 -228h-228v-1198l-288 33v356l-408 -254l-160 217l498 304q-135 118 -260 118z" />
    <glyph glyph-name="dv_KTRa.alt" horiz-adv-x="2777" 
d="M1409 612q0 36 4 68h-108q-104 0 -152.5 -38t-75.5 -79v-596l-289 33v190q-41 -31 -108.5 -50t-120.5 -19q-213 0 -345 129t-132 319.5t132 320.5t345 130q53 0 121 -19.5t108 -50.5v215h-776l-35 228h2790l33 -228h-226v-1198l-288 33v526l-246 -237l-187 166l326 282
h-299q-188 0 -188 -133q0 -86 80.5 -225t216.5 -348l-260 -76q-104 152 -212 331t-108 326zM354 570q0 -93 59.5 -150.5t141.5 -59.5q111 0 158 40t75 85v172q-29 43 -76.5 83t-143 40t-155 -58.5t-59.5 -151.5zM2286 969v196h-1209v-323q86 63 221 63h256q99 64 238 64h494
z" />
    <glyph glyph-name="dv_KTVa" horiz-adv-x="3356" 
d="M1468 612q0 41 5 68h-168q-104 0 -152.5 -38t-75.5 -79v-596l-289 33v190q-41 -31 -108.5 -50t-120.5 -19q-213 0 -345 129t-132 319.5t132 320.5t345 130q53 0 121 -19.5t108 -50.5v215h-776l-35 228h3371l35 -228h-229v-1198l-289 33v190q-39 -31 -107.5 -50
t-119.5 -19q-215 0 -347 129t-134 319q0 84 30 168h-248q-186 0 -186 -133q0 -86 80 -225t215 -348l-258 -76l-18 27q-102 147 -203 318t-101 312zM2431 570q0 -93 60.5 -150.5t142.5 -59.5q111 0 156.5 40t74.5 85v172q-29 43 -76 83t-142 40t-155.5 -58.5t-60.5 -151.5z
M354 570q0 -93 59.5 -150.5t141.5 -59.5q111 0 158 40t75 85v172q-29 43 -76.5 83t-143 40t-155 -58.5t-59.5 -151.5zM2865 1165h-1788v-323q86 63 221 63h318q93 64 239 64h547q104 51 236 51q51 0 119.5 -19.5t107.5 -50.5v215z" />
    </font>
</defs>
</svg>
